<svg xmlns="http://www.w3.org/2000/svg" width="240" height="55" viewBox="0 0 240 55" fill="none">
  <g clip-path="url(#clip0_13_958)">
    <path d="M65.6452 19.7363C69.303 19.7363 71.4001 21.5529 71.4001 24.7441C71.4001 28.0335 69.303 29.9483 65.6452 29.9483H61.7923V34.6615H60.0853V19.7363H65.6452ZM61.7923 28.279H65.5964C68.2788 28.279 69.7907 27.1007 69.7907 24.7932C69.7907 22.5348 68.23 21.4056 65.5964 21.4056H61.7923V28.279Z" fill="white"/>
    <path d="M88.3235 27.1989C88.3235 31.3721 84.9096 34.7106 80.6177 34.7106C76.2772 34.7106 72.8632 31.3721 72.8632 27.1989C72.8632 22.9767 76.2772 19.7364 80.6177 19.7364C84.9096 19.6873 88.3235 23.0258 88.3235 27.1989ZM74.5702 27.1989C74.5702 30.4884 77.3013 33.0904 80.6177 33.0904C83.9341 33.0904 86.6165 30.4884 86.6165 27.1989C86.6165 23.9095 83.9341 21.3565 80.6177 21.3565C77.3013 21.3074 74.5702 23.9095 74.5702 27.1989Z" fill="white"/>
    <path d="M102.76 21.8968L101.735 23.1733C100.614 21.995 99.0043 21.3077 97.3461 21.3077C94.0297 21.3077 91.3473 23.9097 91.3473 27.1501C91.3473 30.3904 94.0297 32.9925 97.3461 32.9925C98.9555 32.9925 100.565 32.3051 101.735 31.225L102.76 32.4033C101.296 33.778 99.2969 34.7108 97.2485 34.7108C93.0055 34.7108 89.5916 31.3723 89.5916 27.1501C89.5916 22.9769 93.0055 19.6875 97.2973 19.6875C99.3457 19.6875 101.345 20.5221 102.76 21.8968Z" fill="white"/>
    <path d="M109.539 27.5917L106.661 30.7338V34.6124H104.954V19.7363H106.661V28.279L114.611 19.7363H116.61L110.758 26.217L117.049 34.6124H115.001L109.539 27.5917Z" fill="white"/>
    <path d="M120.122 21.4056V26.3152H127.584V27.9353H120.122V33.0413H128.754V34.6615H118.464V19.7363H128.51V21.3565H120.122V21.4056Z" fill="white"/>
    <path d="M136.655 21.4058V34.6617H134.948V21.4058H130.12V19.7856H141.435V21.4058H136.655Z" fill="white"/>
    <path d="M154.213 21.4058V34.6617H152.506V21.4058H147.677V19.7856H158.992V21.4058H154.213Z" fill="white"/>
    <path d="M167.673 29.8992C167.381 29.8992 167.039 29.9483 166.698 29.9483H162.796V34.6615H161.089V19.7363H166.698C170.404 19.7363 172.501 21.5529 172.501 24.7441C172.501 27.1989 171.331 28.8682 169.185 29.5555L172.648 34.6124H170.746L167.673 29.8992ZM166.698 28.279C169.38 28.279 170.892 27.1007 170.892 24.7932C170.892 22.5348 169.38 21.4056 166.698 21.4056H162.796V28.3281H166.698V28.279Z" fill="white"/>
    <path d="M187.572 28.5245C187.572 32.403 185.231 34.7106 181.378 34.7106C177.476 34.7106 175.135 32.354 175.135 28.5245V19.7363H176.842V28.4754C176.842 31.372 178.549 33.0413 181.378 33.0413C184.206 33.0413 185.865 31.372 185.865 28.4754V19.7363H187.572V28.5245Z" fill="white"/>
    <path d="M199.959 21.062L199.228 22.633C197.911 21.7493 196.35 21.3565 195.131 21.3565C193.229 21.3565 192.01 22.093 192.01 23.3204C192.01 27.1498 200.301 25.1369 200.301 30.5375C200.301 33.0413 198.106 34.6124 194.985 34.6124C192.839 34.6124 190.742 33.6796 189.327 32.354L190.108 30.832C191.473 32.1576 193.375 32.9431 195.033 32.9431C197.179 32.9431 198.496 32.0594 198.496 30.6356C198.496 26.708 190.205 28.8191 190.205 23.4677C190.205 21.1111 192.254 19.6382 195.326 19.6382C196.984 19.6873 198.74 20.2273 199.959 21.062Z" fill="white"/>
    <path d="M208.25 21.4058V34.6617H206.543V21.4058H201.715V19.7856H213.03V21.4058H208.25Z" fill="white"/>
    <path d="M216.785 21.4056V26.3152H224.247V27.9353H216.785V33.0413H225.418V34.6615H215.127V19.7363H225.174V21.3565H216.785V21.4056Z" fill="white"/>
    <path d="M235.025 29.8992C234.733 29.8992 234.391 29.9483 234.05 29.9483H230.148V34.6615H228.441V19.7363H234.05C237.757 19.7363 239.854 21.5529 239.854 24.7441C239.854 27.1989 238.683 28.8682 236.537 29.5555L240 34.6124H238.098L235.025 29.8992ZM234.05 28.279C236.732 28.279 238.244 27.1007 238.244 24.7932C238.244 22.5348 236.732 21.4056 234.05 21.4056H230.148V28.3281H234.05V28.279Z" fill="white"/>
    <path d="M30.5791 49.4394C30.823 48.8012 31.0181 48.1629 31.1156 47.4756C31.1644 47.0828 31.2132 46.7391 31.2132 46.3464C31.2132 45.119 30.5304 42.9097 29.9451 41.044C29.2136 38.0983 29.4086 38.0492 30.1402 36.3308C31.3107 33.5815 33.7005 32.845 36.1878 31.6176C36.3828 31.5685 36.5779 31.4703 36.7242 31.4212C36.773 31.4212 37.1144 31.3231 37.1632 31.3231C37.3095 31.274 37.4558 31.274 37.6509 31.2249C38.8701 31.0285 39.8943 30.8321 41.0648 30.3411C44.6738 28.8683 47.7464 25.9716 49.4046 22.093C52.6234 14.3359 48.9656 5.40046 41.2599 2.16014C33.5541 -1.08018 24.6779 2.602 21.459 10.4082C19.7521 14.4832 19.9472 18.8527 21.6541 22.584C21.9955 23.3695 22.4345 24.0569 22.9222 24.8424C23.1172 25.0879 23.3123 25.4316 23.3611 25.5788C23.4586 25.7752 23.5562 25.9716 23.6537 26.168C23.7025 26.3153 23.8488 26.6099 23.9463 26.9044C24.7754 29.5065 25.8972 31.7158 24.7267 34.4161C23.9463 36.2817 21.4103 37.8528 19.557 38.7856C18.7767 39.1293 18.0939 39.6203 17.4599 40.1603C17.0697 40.504 16.6795 40.9458 16.3869 41.3386C15.9967 41.8787 15.6553 42.4678 15.4115 43.1061C13.6557 47.3283 15.6553 52.1888 19.8496 53.9562C24.0439 55.7237 28.8234 53.6617 30.5791 49.4394Z" fill="url(#paint0_linear_13_958)"/>
    <path d="M35.3099 7.56081C32.5787 7.56081 30.1402 8.83731 28.5796 10.8502C27.0189 12.8632 24.5804 14.1397 21.8492 14.1397C19.4595 14.1397 17.3136 13.1577 15.7529 11.5376C15.6066 11.2921 15.4115 10.9975 15.2164 10.752C15.0213 10.5557 14.875 10.3102 14.6799 10.1138C13.1193 8.49364 10.9734 7.51172 8.58362 7.51172C3.8041 7.56081 0 11.3903 0 16.1526C0 20.9149 3.8041 24.7444 8.53485 24.7444C11.1197 24.7444 13.4119 23.6151 14.9726 21.7986C15.0701 21.7004 15.1189 21.6022 15.2164 21.5531C15.314 21.4549 15.3627 21.3567 15.4603 21.2585C17.0209 19.442 19.3131 18.3128 21.898 18.3128C24.5804 18.3128 27.0189 19.5893 28.5796 21.5531L28.6283 21.504C30.189 23.517 32.6275 24.7934 35.3587 24.7934C40.0894 24.7934 43.8935 20.964 43.8935 16.2017C43.8935 11.4394 40.0406 7.56081 35.3099 7.56081Z" fill="url(#paint1_linear_13_958)"/>
    <path d="M14.5824 36.0361C16.818 36.0361 18.6303 34.2117 18.6303 31.9612C18.6303 29.7106 16.818 27.8862 14.5824 27.8862C12.3468 27.8862 10.5344 29.7106 10.5344 31.9612C10.5344 34.2117 12.3468 36.0361 14.5824 36.0361Z" fill="#F4EF47"/>
    <path d="M21.0689 3.82947C22.1193 3.82947 22.9709 2.97222 22.9709 1.91474C22.9709 0.857257 22.1193 0 21.0689 0C20.0184 0 19.1668 0.857257 19.1668 1.91474C19.1668 2.97222 20.0184 3.82947 21.0689 3.82947Z" fill="#E0CC2B"/>
  </g>
  <defs>
    <linearGradient id="paint0_linear_13_958" x1="18.5148" y1="50.0111" x2="41.4345" y2="4.86375" gradientUnits="userSpaceOnUse">
      <stop stop-color="#4190E5"/>
      <stop offset="0.1843" stop-color="#408BE3"/>
      <stop offset="0.4157" stop-color="#3E7BDC"/>
      <stop offset="0.6722" stop-color="#3B62D1"/>
      <stop offset="0.9453" stop-color="#373EC2"/>
      <stop offset="1" stop-color="#3636BF"/>
    </linearGradient>
    <linearGradient id="paint1_linear_13_958" x1="3.24558" y1="26.2052" x2="37.0293" y2="8.26164" gradientUnits="userSpaceOnUse">
      <stop stop-color="#E0D32B"/>
      <stop offset="0.619" stop-color="#EDFF2A"/>
    </linearGradient>
    <clipPath id="clip0_13_958">
      <rect width="240" height="54.5455" fill="white"/>
    </clipPath>
  </defs>
</svg>