<svg width="742" height="746" viewBox="0 0 742 746" fill="none" xmlns="http://www.w3.org/2000/svg">
<g opacity="0.15">
<path d="M507.993 816.502C512.525 806.068 515.244 795.181 517.057 784.294C517.963 777.943 518.416 772.046 518.416 765.695C518.869 745.735 506.633 708.991 497.569 678.144C485.786 630.058 488.505 628.698 500.288 600.572C519.323 554.755 559.657 542.961 600.898 522.547C603.617 521.186 607.242 520.279 609.961 519.825C610.868 519.372 616.306 518.465 617.666 518.465C620.385 518.011 622.651 517.557 625.37 517.104C645.764 514.382 662.985 510.299 681.566 502.587C741.841 478.545 792.599 430.913 819.79 366.497C873.267 238.572 812.539 91.5951 684.739 38.0663C557.391 -15.4625 410.103 44.8708 357.079 172.796C328.981 239.933 332.607 312.061 360.251 373.302C366.143 386.457 373.394 397.344 381.552 410.046C384.271 414.582 387.896 420.026 388.803 421.84C390.615 425.016 391.975 427.738 393.335 431.367C394.241 433.635 396.507 438.171 397.867 443.615C411.916 486.71 430.043 522.547 411.009 567.457C398.32 598.304 356.626 624.161 325.356 639.585C312.666 645.482 300.883 653.194 290.913 662.266C284.115 668.164 278.223 674.968 272.785 682.226C266.44 690.845 260.549 700.825 256.47 711.259C227.466 780.665 260.096 860.958 329.887 889.991C399.226 919.023 478.988 886.362 507.993 816.502Z" stroke="url(#paint0_linear_117_540)" stroke-width="3" stroke-miterlimit="10"/>
<path d="M586.849 126.071C541.53 126.071 501.195 147.392 475.363 180.507C449.531 213.623 409.197 234.49 363.878 234.49C323.996 234.49 288.194 218.159 262.815 191.848C260.096 187.312 256.924 183.229 253.751 179.146C251.032 175.517 247.86 171.888 244.687 168.713C218.855 142.402 183.053 126.071 143.625 126.071C65.2226 126.071 1.77539 189.58 1.77539 268.059C1.77539 346.537 65.2226 410.046 143.625 410.046C186.225 410.046 224.294 391.447 250.579 361.507C251.939 360.146 252.845 358.786 254.205 356.971C255.564 355.61 256.47 353.796 257.83 352.435C283.209 322.041 321.277 303.442 363.878 303.442C408.744 303.442 448.625 324.309 474.457 356.517C474.91 356.064 474.91 355.61 475.363 355.61C501.195 388.725 541.53 410.046 586.849 410.046C665.252 410.046 728.699 346.537 728.699 268.059C728.699 189.58 664.798 126.071 586.849 126.071Z" stroke="url(#paint1_linear_117_540)" stroke-width="3" stroke-miterlimit="10"/>
<path d="M242.874 594.675C279.667 594.675 309.494 564.82 309.494 527.991C309.494 491.163 279.667 461.307 242.874 461.307C206.081 461.307 176.255 491.163 176.255 527.991C176.255 564.82 206.081 594.675 242.874 594.675Z" stroke="url(#paint2_linear_117_540)" stroke-width="3" stroke-miterlimit="10"/>
<path d="M350.282 64.3773C367.552 64.3773 381.552 50.3635 381.552 33.0766C381.552 15.7897 367.552 1.77588 350.282 1.77588C333.011 1.77588 319.011 15.7897 319.011 33.0766C319.011 50.3635 333.011 64.3773 350.282 64.3773Z" stroke="url(#paint3_linear_117_540)" stroke-width="3" stroke-miterlimit="10"/>
</g>
<defs>
<linearGradient id="paint0_linear_117_540" x1="313.191" y1="85.848" x2="913.124" y2="133.576" gradientUnits="userSpaceOnUse">
<stop stop-color="#DFEEFF"/>
<stop offset="1" stop-color="#5C5CFA"/>
</linearGradient>
<linearGradient id="paint1_linear_117_540" x1="84.2295" y1="147.74" x2="761.79" y2="352.864" gradientUnits="userSpaceOnUse">
<stop stop-color="#DFEEFF"/>
<stop offset="1" stop-color="#5C5CFA"/>
</linearGradient>
<linearGradient id="paint2_linear_117_540" x1="191.368" y1="471.484" x2="325.075" y2="487.281" gradientUnits="userSpaceOnUse">
<stop stop-color="#DFEEFF"/>
<stop offset="1" stop-color="#5C5CFA"/>
</linearGradient>
<linearGradient id="paint3_linear_117_540" x1="326.105" y1="6.5527" x2="388.866" y2="13.9679" gradientUnits="userSpaceOnUse">
<stop stop-color="#DFEEFF"/>
<stop offset="1" stop-color="#5C5CFA"/>
</linearGradient>
</defs>
</svg>
