<svg width="238" height="580" viewBox="0 0 238 580" fill="none" xmlns="http://www.w3.org/2000/svg">
<g opacity="0.15">
<path d="M395.832 634.834C399.36 626.719 401.477 618.251 402.888 609.783C403.593 604.844 403.946 600.257 403.946 595.318C404.299 579.793 394.773 551.214 387.717 527.222C378.545 489.823 380.661 488.764 389.834 466.889C404.652 431.253 436.051 422.08 468.156 406.203C470.272 405.144 473.095 404.439 475.212 404.086C475.917 403.733 480.151 403.027 481.209 403.027C483.326 402.674 485.09 402.322 487.207 401.969C503.083 399.852 516.489 396.676 530.954 390.678C577.876 371.979 617.39 334.932 638.558 284.83C680.188 185.333 632.913 71.0177 533.423 29.3842C434.287 -12.2493 319.627 34.6766 278.35 134.174C256.476 186.392 259.298 242.491 280.819 290.123C285.406 300.355 291.05 308.823 297.401 318.702C299.518 322.23 302.34 326.464 303.046 327.875C304.457 330.345 305.515 332.462 306.574 335.285C307.279 337.049 309.043 340.577 310.102 344.811C321.038 378.329 335.15 406.203 320.333 441.132C310.454 465.125 277.997 485.236 253.654 497.232C243.775 501.819 234.603 507.817 226.841 514.873C221.549 519.46 216.963 524.752 212.729 530.398C207.79 537.101 203.203 544.863 200.028 552.978C177.449 606.961 202.851 669.411 257.182 691.992C311.16 714.573 373.253 689.169 395.832 634.834Z" stroke="url(#paint0_linear_119_1852)" stroke-width="2.33542" stroke-miterlimit="10"/>
<path d="M457.219 97.8325C421.939 97.8325 390.54 114.415 370.431 140.172C350.321 165.928 318.922 182.158 283.642 182.158C252.596 182.158 224.725 169.456 204.968 148.992C202.851 145.464 200.381 142.289 197.912 139.113C195.795 136.291 193.325 133.468 190.856 130.998C170.746 110.534 142.875 97.8325 112.182 97.8325C51.1475 97.8325 1.75562 147.228 1.75562 208.267C1.75562 269.306 51.1475 318.702 112.182 318.702C145.345 318.702 174.98 304.236 195.442 280.949C196.501 279.891 197.206 278.832 198.265 277.421C199.323 276.363 200.029 274.951 201.087 273.893C220.844 250.254 250.479 235.788 283.642 235.788C318.569 235.788 349.615 252.018 369.725 277.068C370.078 276.715 370.078 276.363 370.431 276.363C390.54 302.119 421.939 318.702 457.219 318.702C518.253 318.702 567.645 269.306 567.645 208.267C567.645 147.228 517.901 97.8325 457.219 97.8325Z" stroke="url(#paint1_linear_119_1852)" stroke-width="2.33542" stroke-miterlimit="10"/>
<path d="M189.444 462.303C218.087 462.303 241.306 439.082 241.306 410.437C241.306 381.793 218.087 358.572 189.444 358.572C160.802 358.572 137.583 381.793 137.583 410.437C137.583 439.082 160.802 462.303 189.444 462.303Z" stroke="url(#paint2_linear_119_1852)" stroke-width="2.33542" stroke-miterlimit="10"/>
</g>
<defs>
<linearGradient id="paint0_linear_119_1852" x1="244.184" y1="66.5478" x2="711.21" y2="103.736" gradientUnits="userSpaceOnUse">
<stop stop-color="#DFEEFF"/>
<stop offset="1" stop-color="#5C5CFA"/>
</linearGradient>
<linearGradient id="paint1_linear_119_1852" x1="65.9439" y1="114.686" x2="593.327" y2="274.488" gradientUnits="userSpaceOnUse">
<stop stop-color="#DFEEFF"/>
<stop offset="1" stop-color="#5C5CFA"/>
</linearGradient>
<linearGradient id="paint2_linear_119_1852" x1="149.348" y1="366.487" x2="253.433" y2="378.796" gradientUnits="userSpaceOnUse">
<stop stop-color="#DFEEFF"/>
<stop offset="1" stop-color="#5C5CFA"/>
</linearGradient>
</defs>
</svg>
