<svg width="100%" height="100%" viewBox="0 0 839 901" fill="none" xmlns="http://www.w3.org/2000/svg">
<g opacity="0.15">
<path d="M506.993 815.502C511.525 805.068 514.244 794.181 516.057 783.294C516.963 776.943 517.416 771.046 517.416 764.695C517.87 744.735 505.633 707.991 496.569 677.144C484.786 629.058 487.506 627.698 499.289 599.572C518.323 553.755 558.657 541.961 599.898 521.547C602.617 520.186 606.242 519.279 608.962 518.825C609.868 518.372 615.306 517.465 616.666 517.465C619.385 517.011 621.651 516.557 624.37 516.104C644.764 513.382 661.985 509.299 680.566 501.587C740.841 477.545 791.599 429.913 818.791 365.497C872.267 237.572 811.539 90.5951 683.739 37.0663C556.391 -16.4625 409.103 43.8708 356.079 171.796C327.981 238.933 331.607 311.061 359.252 372.302C365.143 385.457 372.394 396.344 380.552 409.046C383.271 413.582 386.896 419.026 387.803 420.84C389.616 424.016 390.975 426.738 392.335 430.367C393.241 432.635 395.507 437.171 396.867 442.615C410.916 485.71 429.043 521.547 410.009 566.457C397.32 597.304 355.626 623.161 324.356 638.585C311.666 644.482 299.883 652.194 289.913 661.266C283.115 667.164 277.223 673.968 271.785 681.226C265.44 689.845 259.549 699.825 255.47 710.259C226.466 779.665 259.096 859.958 328.888 888.991C398.226 918.023 477.988 885.362 506.993 815.502Z" fill="url(#paint0_linear_13_682)" fill-opacity="0.4" stroke="url(#paint1_linear_13_682)" stroke-miterlimit="10"/>
<path d="M585.849 125.071C540.53 125.071 500.195 146.392 474.363 179.507C448.531 212.623 408.197 233.49 362.878 233.49C322.996 233.49 287.194 217.159 261.815 190.848C259.096 186.312 255.924 182.229 252.751 178.146C250.032 174.517 246.86 170.888 243.687 167.713C217.855 141.402 182.053 125.071 142.625 125.071C64.2226 125.071 0.775421 188.58 0.775421 267.059C0.775421 345.537 64.2226 409.046 142.625 409.046C185.225 409.046 223.294 390.447 249.579 360.507C250.939 359.146 251.845 357.786 253.205 355.971C254.564 354.61 255.471 352.796 256.83 351.435C282.209 321.041 320.277 302.442 362.878 302.442C407.744 302.442 447.625 323.309 473.457 355.517C473.91 355.064 473.91 354.61 474.363 354.61C500.195 387.725 540.53 409.046 585.849 409.046C664.252 409.046 727.699 345.537 727.699 267.059C727.699 188.58 663.798 125.071 585.849 125.071Z" fill="url(#paint2_linear_13_682)" fill-opacity="0.4" stroke="url(#paint3_linear_13_682)" stroke-miterlimit="10"/>
<path d="M241.875 593.675C278.668 593.675 308.494 563.82 308.494 526.991C308.494 490.163 278.668 460.307 241.875 460.307C205.082 460.307 175.255 490.163 175.255 526.991C175.255 563.82 205.082 593.675 241.875 593.675Z" fill="url(#paint4_linear_13_682)" fill-opacity="0.4" stroke="url(#paint5_linear_13_682)" stroke-miterlimit="10"/>
<path d="M349.282 63.3773C366.552 63.3773 380.552 49.3635 380.552 32.0766C380.552 14.7897 366.552 0.775879 349.282 0.775879C332.011 0.775879 318.011 14.7897 318.011 32.0766C318.011 49.3635 332.011 63.3773 349.282 63.3773Z" fill="url(#paint6_linear_13_682)" fill-opacity="0.4" stroke="url(#paint7_linear_13_682)" stroke-miterlimit="10"/>
</g>
<defs>
<linearGradient id="paint0_linear_13_682" x1="312.191" y1="84.848" x2="912.125" y2="132.576" gradientUnits="userSpaceOnUse">
<stop stop-color="#4190E5"/>
<stop offset="1" stop-color="#3636BF"/>
</linearGradient>
<linearGradient id="paint1_linear_13_682" x1="312.191" y1="84.848" x2="912.125" y2="132.576" gradientUnits="userSpaceOnUse">
<stop stop-color="#4190E5"/>
<stop offset="1" stop-color="#3636BF"/>
</linearGradient>
<linearGradient id="paint2_linear_13_682" x1="83.2296" y1="146.74" x2="760.79" y2="351.864" gradientUnits="userSpaceOnUse">
<stop stop-color="#4190E5"/>
<stop offset="1" stop-color="#3636BF"/>
</linearGradient>
<linearGradient id="paint3_linear_13_682" x1="83.2296" y1="146.74" x2="760.79" y2="351.864" gradientUnits="userSpaceOnUse">
<stop stop-color="#4190E5"/>
<stop offset="1" stop-color="#3636BF"/>
</linearGradient>
<linearGradient id="paint4_linear_13_682" x1="190.368" y1="470.484" x2="324.075" y2="486.281" gradientUnits="userSpaceOnUse">
<stop stop-color="#4190E5"/>
<stop offset="1" stop-color="#3636BF"/>
</linearGradient>
<linearGradient id="paint5_linear_13_682" x1="190.368" y1="470.484" x2="324.075" y2="486.281" gradientUnits="userSpaceOnUse">
<stop stop-color="#4190E5"/>
<stop offset="1" stop-color="#3636BF"/>
</linearGradient>
<linearGradient id="paint6_linear_13_682" x1="325.105" y1="5.5527" x2="387.866" y2="12.9679" gradientUnits="userSpaceOnUse">
<stop stop-color="#4190E5"/>
<stop offset="1" stop-color="#3636BF"/>
</linearGradient>
<linearGradient id="paint7_linear_13_682" x1="325.105" y1="5.5527" x2="387.866" y2="12.9679" gradientUnits="userSpaceOnUse">
<stop stop-color="#4190E5"/>
<stop offset="1" stop-color="#3636BF"/>
</linearGradient>
</defs>
</svg>
