<svg width="100%" height="100%" viewBox="0 0 352 392" fill="none" xmlns="http://www.w3.org/2000/svg">
<path d="M203.904 0.943995C258.552 0.943995 313.2 23.576 350.736 60.56L312.648 108.032C284.496 77.672 244.2 58.904 205.008 58.904C127.728 58.904 67.008 118.52 67.008 194.696C67.008 270.872 127.728 331.04 205.008 331.04C243.648 331.04 283.392 313.376 312.648 285.224L351.288 328.28C312.096 366.92 256.344 391.76 201.696 391.76C88.536 391.76 0.768001 306.2 0.768001 195.248C0.768001 85.4 89.64 0.943995 203.904 0.943995Z" fill="url(#paint0_linear_13_877)" fill-opacity="0.08"/>
<defs>
<linearGradient id="paint0_linear_13_877" x1="24.309" y1="37.0322" x2="400.167" y2="74.2076" gradientUnits="userSpaceOnUse">
<stop stop-color="#4190E5"/>
<stop offset="1" stop-color="#3636BF"/>
</linearGradient>
</defs>
</svg>
