<svg width="88" height="94" viewBox="0 0 88 94" fill="none" xmlns="http://www.w3.org/2000/svg">
<path d="M52.6981 85.2006C53.1183 84.1007 53.4545 83.0008 53.6226 81.8162C53.7066 81.1394 53.7907 80.5471 53.7907 79.8702C53.7907 77.755 52.614 73.9477 51.6055 70.7325C50.3447 65.656 50.6809 65.5714 51.9416 62.6101C53.9588 57.872 58.0771 56.6029 62.3636 54.4877C62.6998 54.4031 63.036 54.2339 63.2881 54.1493C63.3722 54.1493 63.9605 53.9801 64.0445 53.9801C64.2967 53.8954 64.5488 53.8954 64.885 53.8108C66.9862 53.4724 68.7512 53.134 70.7684 52.2879C76.9879 49.7496 82.283 44.7577 85.1406 38.0737C90.6878 24.7055 84.3842 9.30679 71.1046 3.72263C57.825 -1.86153 42.5283 4.48411 36.9811 17.9369C34.0394 24.9594 34.3756 32.4895 37.3173 38.9198C37.9056 40.2735 38.6621 41.458 39.5025 42.8117C39.8387 43.2348 40.1749 43.827 40.259 44.0809C40.4271 44.4193 40.5952 44.7577 40.7633 45.0962C40.8473 45.35 41.0995 45.8576 41.2676 46.3653C42.6964 50.8495 44.6295 54.6569 42.6123 59.3104C41.2676 62.5255 36.8971 65.233 33.7032 66.8405C32.3585 67.4328 31.1818 68.2789 30.0892 69.2096C29.4168 69.8018 28.7444 70.5633 28.2401 71.2402C27.5677 72.1709 26.9794 73.1862 26.5592 74.2861C23.5334 81.5624 26.9794 89.9387 34.2075 92.9846C41.4357 96.0305 49.6723 92.4769 52.6981 85.2006Z" fill="url(#paint0_linear_117_495)"/>
<path d="M60.8507 13.0298C56.144 13.0298 51.9416 15.2296 49.2521 18.6986C46.5626 22.1675 42.3602 24.3673 37.6535 24.3673C33.5351 24.3673 29.837 22.6752 27.1475 19.8831C26.8953 19.46 26.5592 18.9524 26.223 18.5293C25.8868 18.1909 25.6346 17.7679 25.2984 17.4294C22.6089 14.6374 18.9108 12.9452 14.7924 12.9452C6.55574 13.0298 0 19.6293 0 27.8363C0 36.0433 6.55574 42.6428 14.7084 42.6428C19.1629 42.6428 23.1132 40.6968 25.8027 37.5663C25.9708 37.397 26.0549 37.2278 26.223 37.1432C26.3911 36.974 26.4751 36.8048 26.6432 36.6356C29.3327 33.505 33.283 31.5591 37.7375 31.5591C42.3602 31.5591 46.5626 33.7589 49.2521 37.1432L49.3362 37.0586C52.0257 40.5275 56.2281 42.7274 60.9348 42.7274C69.0874 42.7274 75.6432 36.1279 75.6432 27.9209C75.6432 19.7139 69.0034 13.0298 60.8507 13.0298Z" fill="url(#paint1_linear_117_495)"/>
<path d="M25.1303 62.1026C28.983 62.1026 32.1063 58.9585 32.1063 55.0801C32.1063 51.2017 28.983 48.0576 25.1303 48.0576C21.2775 48.0576 18.1543 51.2017 18.1543 55.0801C18.1543 58.9585 21.2775 62.1026 25.1303 62.1026Z" fill="#F4EF47"/>
<path d="M36.3088 6.59946C38.1191 6.59946 39.5866 5.12212 39.5866 3.29973C39.5866 1.47734 38.1191 0 36.3088 0C34.4984 0 33.0309 1.47734 33.0309 3.29973C33.0309 5.12212 34.4984 6.59946 36.3088 6.59946Z" fill="#E0CC2B"/>
<defs>
<linearGradient id="paint0_linear_117_495" x1="31.9071" y1="86.1858" x2="71.4055" y2="8.38186" gradientUnits="userSpaceOnUse">
<stop stop-color="#4190E5"/>
<stop offset="0.1843" stop-color="#408BE3"/>
<stop offset="0.4157" stop-color="#3E7BDC"/>
<stop offset="0.6722" stop-color="#3B62D1"/>
<stop offset="0.9453" stop-color="#373EC2"/>
<stop offset="1" stop-color="#3636BF"/>
</linearGradient>
<linearGradient id="paint1_linear_117_495" x1="5.59322" y1="45.1603" x2="63.8138" y2="14.2376" gradientUnits="userSpaceOnUse">
<stop stop-color="#E0D32B"/>
<stop offset="0.619" stop-color="#EDFF2A"/>
</linearGradient>
</defs>
</svg>
