<svg width="144" height="1151" viewBox="0 0 144 1151" fill="none" xmlns="http://www.w3.org/2000/svg">
<path opacity="0.18" d="M0.997795 158.439L0.997796 128.039L84.9978 127.839L15.7978 86.6391L15.7978 72.0391L83.1978 31.0391L0.997801 31.0391L0.997802 0.639056L140.998 0.639062L140.998 27.4391L53.9978 79.8391L140.998 131.439L140.998 158.039L0.997795 158.439ZM26.9978 249.855L26.9978 326.055L0.997788 326.055L0.997793 217.655L140.998 217.655L140.998 323.455L114.998 323.455L114.998 249.855L84.5978 249.855L84.5978 314.855L59.3978 314.855L59.3978 249.855L26.9978 249.855ZM-1.40222 423.834C-1.40222 401.634 5.19779 379.234 14.7978 366.834L39.1978 377.834C30.5978 389.634 24.5978 407.234 24.5978 424.034C24.5978 443.234 30.9978 451.034 39.5978 451.034C65.7978 451.034 47.7978 369.634 99.7978 369.634C123.598 369.634 143.398 388.834 143.398 428.634C143.398 446.234 139.198 464.234 130.998 477.234L106.398 467.234C113.798 454.234 117.398 440.834 117.398 428.434C117.398 409.234 110.198 401.834 101.398 401.834C75.5978 401.834 93.3978 483.234 41.9978 483.234C18.5978 483.234 -1.40222 463.834 -1.40222 423.834ZM-1.40222 577.373C-1.40222 555.173 5.19778 532.773 14.7978 520.373L39.1978 531.373C30.5978 543.173 24.5978 560.773 24.5978 577.573C24.5978 596.773 30.9978 604.573 39.5978 604.573C65.7978 604.573 47.7978 523.173 99.7978 523.173C123.598 523.173 143.398 542.373 143.398 582.173C143.398 599.773 139.198 617.773 130.998 630.773L106.398 620.773C113.798 607.773 117.398 594.373 117.398 581.973C117.398 562.773 110.198 555.373 101.398 555.373C75.5978 555.373 93.3978 636.773 41.9978 636.773C18.5978 636.773 -1.40222 617.373 -1.40222 577.373ZM0.997768 789.512L30.9978 777.112L30.9978 712.112L0.997771 699.712L0.997773 666.512L140.998 728.912L140.998 760.913L0.997766 823.512L0.997768 789.512ZM55.5978 722.513L55.5978 766.913L109.198 744.713L55.5978 722.513ZM32.1978 956.684L73.1978 956.684L73.1978 986.284L16.3978 986.284C4.79776 970.884 -1.40224 949.684 -1.40224 929.684C-1.40224 885.684 28.7978 853.284 70.9978 853.284C113.198 853.284 143.398 885.684 143.398 930.284C143.398 954.884 134.998 975.284 119.198 988.884L99.9978 968.084C110.798 957.884 115.798 946.084 115.798 931.884C115.798 904.684 97.5978 886.084 70.9978 886.084C44.7978 886.084 26.1978 904.684 26.1978 931.484C26.1978 940.284 27.7978 948.484 32.1978 956.684ZM26.9978 1074.58L26.9978 1150.78L0.997752 1150.78L0.997756 1042.38L140.998 1042.38L140.998 1148.18L114.998 1148.18L114.998 1074.58L84.5978 1074.58L84.5978 1139.58L59.3978 1139.58L59.3978 1074.58L26.9978 1074.58Z" fill="url(#paint0_linear_117_520)"/>
<defs>
<linearGradient id="paint0_linear_117_520" x1="157.737" y1="117.392" x2="-403.149" y2="923.956" gradientUnits="userSpaceOnUse">
<stop stop-color="#4190E5"/>
<stop offset="1" stop-color="#3636BF"/>
</linearGradient>
</defs>
</svg>
