<svg width="311" height="27" viewBox="0 0 311 27" fill="none" xmlns="http://www.w3.org/2000/svg">
<path d="M10.1286 1.01221C16.4322 1.01221 20.0462 4.14272 20.0462 9.64227C20.0462 15.311 16.4322 18.6108 10.1286 18.6108H3.4888V26.7332H0.547119V1.01221H10.1286ZM3.4888 15.7341H10.0445C14.6672 15.7341 17.2727 13.7035 17.2727 9.72688C17.2727 5.83489 14.5831 3.88889 10.0445 3.88889H3.4888V15.7341Z" fill="white"/>
<path d="M49.2108 13.8728C49.2108 21.0645 43.3275 26.8179 35.9313 26.8179C28.451 26.8179 22.5676 21.0645 22.5676 13.8728C22.5676 6.59643 28.451 1.01227 35.9313 1.01227C43.3275 0.927665 49.2108 6.68104 49.2108 13.8728ZM25.5093 13.8728C25.5093 19.5415 30.216 24.0258 35.9313 24.0258C41.6465 24.0258 46.2692 19.5415 46.2692 13.8728C46.2692 8.20399 41.6465 3.80435 35.9313 3.80435C30.216 3.71974 25.5093 8.20399 25.5093 13.8728Z" fill="white"/>
<path d="M74.0892 4.73536L72.3242 6.93518C70.3911 4.90458 67.6175 3.72006 64.7599 3.72006C59.0446 3.72006 54.422 8.20431 54.422 13.7885C54.422 19.3726 59.0446 23.8569 64.7599 23.8569C67.5335 23.8569 70.307 22.6724 72.3242 20.811L74.0892 22.8416C71.5677 25.2106 68.1218 26.8182 64.5918 26.8182C57.2796 26.8182 51.3962 21.0648 51.3962 13.7885C51.3962 6.59675 57.2796 0.927979 64.6758 0.927979C68.2058 0.927979 71.6518 2.36632 74.0892 4.73536Z" fill="white"/>
<path d="M85.7719 14.5496L80.813 19.9645V26.6486H77.8713V1.01221H80.813V15.7341L94.5128 1.01221H97.9588L87.8731 12.1805L98.7152 26.6486H95.1852L85.7719 14.5496Z" fill="white"/>
<path d="M104.01 3.88889V12.3497H116.87V15.1418H104.01V23.9411H118.887V26.7332H101.153V1.01221H118.466V3.80429H104.01V3.88889Z" fill="white"/>
<path d="M132.502 3.88925V26.7335H129.561V3.88925H121.24V1.09717H140.739V3.88925H132.502Z" fill="white"/>
<path d="M162.76 3.88925V26.7335H159.818V3.88925H151.497V1.09717H170.996V3.88925H162.76Z" fill="white"/>
<path d="M185.957 18.5262C185.453 18.5262 184.864 18.6108 184.276 18.6108H177.552V26.7332H174.611V1.01221H184.276C190.664 1.01221 194.278 4.14272 194.278 9.64227C194.278 13.8727 192.261 16.7494 188.563 17.9339L194.53 26.6486H191.252L185.957 18.5262ZM184.276 15.7341C188.899 15.7341 191.504 13.7035 191.504 9.72688C191.504 5.83489 188.899 3.88889 184.276 3.88889H177.552V15.8187H184.276V15.7341Z" fill="white"/>
<path d="M220.249 16.1571C220.249 22.8412 216.214 26.8178 209.575 26.8178C202.851 26.8178 198.816 22.7566 198.816 16.1571V1.01221H201.758V16.0725C201.758 21.0644 204.7 23.9411 209.575 23.9411C214.449 23.9411 217.307 21.0644 217.307 16.0725V1.01221H220.249V16.1571Z" fill="white"/>
<path d="M241.597 3.29666L240.336 6.00413C238.067 4.48118 235.377 3.80431 233.276 3.80431C229.998 3.80431 227.897 5.07344 227.897 7.18865C227.897 13.7881 242.185 10.3192 242.185 19.6261C242.185 23.9411 238.403 26.6486 233.024 26.6486C229.326 26.6486 225.712 25.041 223.274 22.7566L224.619 20.1337C226.973 22.4182 230.25 23.7719 233.108 23.7719C236.806 23.7719 239.075 22.249 239.075 19.7953C239.075 13.0266 224.787 16.6648 224.787 7.44248C224.787 3.38127 228.317 0.843018 233.612 0.843018C236.47 0.927626 239.496 1.85832 241.597 3.29666Z" fill="white"/>
<path d="M255.885 3.88925V26.7335H252.943V3.88925H244.623V1.09717H264.122V3.88925H255.885Z" fill="white"/>
<path d="M270.593 3.88889V12.3497H283.453V15.1418H270.593V23.9411H285.47V26.7332H267.736V1.01221H285.049V3.80429H270.593V3.88889Z" fill="white"/>
<path d="M302.027 18.5262C301.523 18.5262 300.935 18.6108 300.346 18.6108H293.623V26.7332H290.681V1.01221H300.346C306.734 1.01221 310.348 4.14272 310.348 9.64227C310.348 13.8727 308.331 16.7494 304.633 17.9339L310.6 26.6486H307.322L302.027 18.5262ZM300.346 15.7341C304.969 15.7341 307.575 13.7035 307.575 9.72688C307.575 5.83489 304.969 3.88889 300.346 3.88889H293.623V15.8187H300.346V15.7341Z" fill="white"/>
</svg>
