<svg width="289" height="394" viewBox="0 0 289 394" fill="none" xmlns="http://www.w3.org/2000/svg">
<path d="M144.464 393.312C86.504 393.312 29.648 372.888 0.944001 343.08L16.952 311.616C44.552 338.664 93.68 358.536 144.464 358.536C216.776 358.536 248.24 328.176 248.24 290.088C248.24 184.104 10.328 249.24 10.328 106.272C10.328 49.416 54.488 0.287983 152.744 0.287983C196.352 0.287983 241.616 12.984 272.528 34.512L258.728 67.08C225.608 45.552 186.968 35.064 152.744 35.064C82.088 35.064 50.624 66.528 50.624 105.168C50.624 211.152 288.536 147.12 288.536 287.88C288.536 344.736 243.272 393.312 144.464 393.312Z" fill="url(#paint0_linear_13_866)" fill-opacity="0.08"/>
<defs>
<linearGradient id="paint0_linear_13_866" x1="17.309" y1="38.0322" x2="393.167" y2="75.2076" gradientUnits="userSpaceOnUse">
<stop stop-color="#4190E5"/>
<stop offset="1" stop-color="#3636BF"/>
</linearGradient>
</defs>
</svg>
