<svg width="100%" height="100%" viewBox="0 0 199 256" fill="none" xmlns="http://www.w3.org/2000/svg">
<path d="M106.92 0.199985C139.68 0.199985 171.72 10.64 195.12 26.12L177.48 63.56C150.12 47 122.76 40.16 103.68 40.16C78.84 40.16 62.64 49.52 62.64 66.44C62.64 121.52 198.72 92 198.36 182.72C198.36 227.72 158.76 255.44 103.32 255.44C63.72 255.44 26.28 239.24 0.36 215.48L18.72 178.76C44.64 202.52 77.04 215.48 104.04 215.48C133.56 215.48 151.2 204.32 151.2 184.88C151.2 128.72 15.12 160.04 15.12 70.4C15.12 27.2 52.2 0.199985 106.92 0.199985Z" fill="url(#paint0_linear_119_1491)" fill-opacity="0.08"/>
<defs>
<linearGradient id="paint0_linear_119_1491" x1="16.4081" y1="21.2289" x2="241.841" y2="44.9276" gradientUnits="userSpaceOnUse">
<stop stop-color="#4190E5"/>
<stop offset="1" stop-color="#3636BF"/>
</linearGradient>
</defs>
</svg>
