<svg width="305" height="393" viewBox="0 0 305 393" fill="none" xmlns="http://www.w3.org/2000/svg">
<path d="M163.744 0.839976C213.976 0.839976 263.104 16.848 298.984 40.584L271.936 97.992C229.984 72.6 188.032 62.112 158.776 62.112C120.688 62.112 95.848 76.464 95.848 102.408C95.848 186.864 304.504 141.6 303.952 280.704C303.952 349.704 243.232 392.208 158.224 392.208C97.504 392.208 40.096 367.368 0.352 330.936L28.504 274.632C68.248 311.064 117.928 330.936 159.328 330.936C204.592 330.936 231.64 313.824 231.64 284.016C231.64 197.904 22.984 245.928 22.984 108.48C22.984 42.24 79.84 0.839976 163.744 0.839976Z" fill="url(#paint0_linear_13_921)" fill-opacity="0.08"/>
<defs>
<linearGradient id="paint0_linear_13_921" x1="28.309" y1="38.0322" x2="404.167" y2="75.2076" gradientUnits="userSpaceOnUse">
<stop stop-color="#4190E5"/>
<stop offset="1" stop-color="#3636BF"/>
</linearGradient>
</defs>
</svg>
