<svg width="944" height="122" viewBox="0 0 944 122" fill="none" xmlns="http://www.w3.org/2000/svg">
<path opacity="0.3" d="M883.731 1C864.581 1 847.491 10.0075 836.461 24.1273C836.461 24.1273 836.461 24.1273 836.34 24.0056C825.311 38.0037 820.462 47.0112 801.312 47.0112C782.162 47.0112 777.193 38.0037 766.284 24.0056C766.284 24.0056 766.284 24.0056 766.163 24.1273C756.345 11.5899 741.68 2.94756 724.953 1.36517C724.832 1.36517 724.711 1.36517 724.59 1.36517C723.741 1.24345 722.893 1.24345 722.045 1.12172C721.439 1.12172 720.833 1.12172 720.227 1.12172C719.863 1.12172 719.378 1.12172 719.014 1.12172H718.893H718.772C718.408 1.12172 717.924 1.12172 717.56 1.12172C716.954 1.12172 716.348 1.12172 715.742 1.12172C714.894 1.12172 714.045 1.24345 713.197 1.36517C713.075 1.36517 712.954 1.36517 712.833 1.36517C696.107 3.06929 681.441 11.5899 671.624 24.1273C671.624 24.1273 671.624 24.1273 671.502 24.0056C660.473 38.0037 655.625 47.0112 636.474 47.0112C618.657 47.0112 613.203 39.2209 603.749 26.9269C592.962 11.2247 574.903 1 554.419 1H554.298H554.177C533.693 1 515.634 11.2247 504.846 26.9269C495.392 39.2209 489.817 47.0112 472.121 47.0112C455.395 47.0112 449.456 40.073 440.972 28.9962C430.306 12.1985 411.64 1 390.308 1C390.187 1 390.187 1 390.066 1C389.945 1 389.945 1 389.823 1C368.492 1 349.826 12.1985 339.16 28.9962C330.555 40.073 324.737 47.0112 308.011 47.0112C290.194 47.0112 284.739 39.2209 275.285 26.9269C264.498 11.2247 246.439 1 225.955 1H225.834H225.713C205.229 1 187.17 11.2247 176.383 26.9269C166.929 39.2209 161.353 47.0112 143.657 47.0112C124.507 47.0112 119.538 38.0037 108.629 24.0056C108.629 24.0056 108.629 24.0056 108.508 24.1273C97.4786 10.0075 80.51 1 61.2386 1C27.9074 1 1 28.0224 1 61.2527C1 94.483 27.9074 121.505 60.9961 121.505C80.1464 121.505 97.2362 112.498 108.266 98.3782C119.295 84.38 124.144 75.2508 143.294 75.2508C160.747 75.2508 166.444 82.7976 175.534 94.7265C186.321 110.794 204.623 121.384 225.349 121.384H225.47H225.592C246.318 121.384 264.619 110.794 275.407 94.7265C284.618 82.7976 290.194 75.2508 307.647 75.2508C324.252 75.2508 330.191 82.0673 338.554 93.0223C349.099 110.064 368.007 121.505 389.46 121.505C389.581 121.505 389.581 121.505 389.702 121.505C389.824 121.505 389.823 121.505 389.945 121.505C411.398 121.505 430.306 110.185 440.851 93.0223C449.335 82.0673 455.153 75.2508 471.758 75.2508C489.211 75.2508 494.908 82.7976 503.998 94.7265C514.785 110.794 533.087 121.384 553.813 121.384H553.934H554.055C574.781 121.384 593.083 110.794 603.87 94.7265C613.082 82.7976 618.657 75.2508 636.111 75.2508C655.261 75.2508 660.23 84.2583 671.139 98.3782C680.956 110.916 695.622 119.558 712.348 121.14C712.469 121.14 712.591 121.14 712.712 121.14C713.56 121.262 714.409 121.262 715.257 121.384C715.863 121.384 716.469 121.384 717.075 121.384C717.439 121.384 717.924 121.384 718.287 121.384H718.408H718.53C718.893 121.384 719.378 121.384 719.742 121.384C720.348 121.384 720.954 121.384 721.56 121.384C722.408 121.384 723.257 121.262 724.105 121.14C724.226 121.14 724.347 121.14 724.469 121.14C741.195 119.436 755.861 110.916 765.678 98.3782C776.708 84.38 781.556 75.2508 800.706 75.2508C819.856 75.2508 824.826 84.2583 835.734 98.3782C846.764 112.498 863.732 121.505 883.004 121.505C916.093 121.505 943 94.483 943 61.2527C943 28.0224 916.82 1 883.731 1Z" fill="white" stroke="url(#paint0_linear_13_929)" stroke-miterlimit="10"/>
<path d="M58.5543 83.5251C55.2669 83.5251 52.1481 82.9772 49.1978 81.8814C46.2897 80.7434 44.0348 79.2893 42.4333 77.5192L43.8873 75.1168C45.4046 76.6763 47.4698 78.0039 50.0829 79.0997C52.7381 80.1534 55.5409 80.6802 58.4911 80.6802C61.4414 80.6802 63.8438 80.3009 65.6982 79.5422C67.5948 78.7414 68.9856 77.6878 69.8707 76.3812C70.7979 75.0747 71.2616 73.6206 71.2616 72.0191C71.2616 70.1225 70.7558 68.6052 69.7443 67.4672C68.7328 66.3293 67.4051 65.4231 65.7614 64.7488C64.1177 64.0744 62.3265 63.5054 60.3877 63.0418C58.449 62.5782 56.4892 62.0935 54.5083 61.5878C52.5274 61.0399 50.7151 60.3444 49.0714 59.5015C47.4276 58.6586 46.1 57.5206 45.0885 56.0876C44.1191 54.6125 43.6344 52.7159 43.6344 50.3978C43.6344 48.2905 44.1823 46.3518 45.2782 44.5816C46.374 42.8114 48.0809 41.3785 50.399 40.2826C52.717 39.1868 55.6884 38.6389 59.313 38.6389C61.7575 38.6389 64.1598 38.9972 66.5201 39.7137C68.9224 40.4302 70.9665 41.3995 72.6524 42.6218L71.4512 45.2138C69.5968 43.9494 67.5948 43.0222 65.4453 42.4321C63.338 41.7999 61.2939 41.4838 59.313 41.4838C56.4892 41.4838 54.15 41.8842 52.2956 42.685C50.4411 43.4858 49.0714 44.5605 48.1863 45.9092C47.3012 47.2158 46.8587 48.6909 46.8587 50.3346C46.8587 52.2312 47.3433 53.7485 48.3127 54.8865C49.3242 56.0244 50.6519 56.9306 52.2956 57.6049C53.9393 58.2793 55.7516 58.8482 57.7325 59.3118C59.7134 59.7755 61.6732 60.2812 63.6119 60.8291C65.5507 61.3349 67.3419 62.0092 68.9856 62.8522C70.6294 63.6951 71.957 64.8331 72.9685 66.266C73.98 67.699 74.4858 69.5535 74.4858 71.8294C74.4858 73.8946 73.9168 75.8333 72.7788 77.6456C71.6409 79.4158 69.8918 80.8488 67.5316 81.9446C65.2135 82.9983 62.2211 83.5251 58.5543 83.5251Z" fill="url(#paint1_linear_13_929)"/>
<path d="M228.023 83.5251C224.736 83.5251 221.68 82.9772 218.857 81.8814C216.075 80.7434 213.651 79.1629 211.586 77.1399C209.521 75.1168 207.919 72.7566 206.782 70.0592C205.644 67.3197 205.075 64.3273 205.075 61.082C205.075 57.8367 205.644 54.8654 206.782 52.168C207.919 49.4285 209.521 47.0472 211.586 45.0241C213.694 43.0011 216.138 41.4417 218.92 40.3459C221.701 39.2079 224.736 38.6389 228.023 38.6389C231.142 38.6389 234.05 39.1447 236.748 40.1562C239.487 41.1677 241.826 42.7061 243.765 44.7713L241.742 46.8575C239.846 45.0031 237.738 43.6754 235.42 42.8747C233.144 42.0317 230.721 41.6103 228.15 41.6103C225.326 41.6103 222.692 42.0949 220.247 43.0643C217.845 44.0337 215.738 45.4035 213.925 47.1736C212.155 48.9438 210.764 51.009 209.753 53.3692C208.784 55.7294 208.299 58.3003 208.299 61.082C208.299 63.8637 208.784 66.4346 209.753 68.7948C210.764 71.155 212.155 73.2202 213.925 74.9904C215.738 76.7605 217.845 78.1303 220.247 79.0997C222.692 80.0691 225.326 80.5537 228.15 80.5537C230.721 80.5537 233.144 80.1534 235.42 79.3526C237.738 78.5096 239.846 77.1399 241.742 75.2433L243.765 77.3295C241.826 79.3947 239.487 80.9541 236.748 82.0078C234.05 83.0193 231.142 83.5251 228.023 83.5251Z" fill="url(#paint2_linear_13_929)"/>
<path d="M365.18 83.209L385.537 38.955H388.761L409.118 83.209H405.641L386.422 40.9781H387.813L368.657 83.209H365.18ZM372.64 70.7547L373.715 68.0362H400.204L401.279 70.7547H372.64Z" fill="url(#paint3_linear_13_929)"/>
<path d="M537.761 83.209V38.955H540.985V80.3009H566.463V83.209H537.761Z" fill="url(#paint4_linear_13_929)"/>
<path d="M708.138 59.3118H732.098V62.1567H708.138V59.3118ZM708.517 80.3009H735.828V83.209H705.293V38.955H734.88V41.8631H708.517V80.3009Z" fill="url(#paint5_linear_13_929)"/>
<path d="M882.988 83.5251C879.701 83.5251 876.582 82.9772 873.632 81.8814C870.723 80.7434 868.469 79.2893 866.867 77.5192L868.321 75.1168C869.838 76.6763 871.904 78.0039 874.517 79.0997C877.172 80.1534 879.975 80.6802 882.925 80.6802C885.875 80.6802 888.277 80.3009 890.132 79.5422C892.029 78.7414 893.419 77.6878 894.304 76.3812C895.232 75.0747 895.695 73.6206 895.695 72.0191C895.695 70.1225 895.19 68.6052 894.178 67.4672C893.166 66.3293 891.839 65.4231 890.195 64.7488C888.551 64.0744 886.76 63.5054 884.821 63.0418C882.883 62.5782 880.923 62.0935 878.942 61.5878C876.961 61.0399 875.149 60.3444 873.505 59.5015C871.861 58.6586 870.534 57.5206 869.522 56.0876C868.553 54.6125 868.068 52.7159 868.068 50.3978C868.068 48.2905 868.616 46.3518 869.712 44.5816C870.808 42.8114 872.515 41.3785 874.833 40.2826C877.151 39.1868 880.122 38.6389 883.747 38.6389C886.191 38.6389 888.594 38.9972 890.954 39.7137C893.356 40.4302 895.4 41.3995 897.086 42.6218L895.885 45.2138C894.03 43.9494 892.029 43.0222 889.879 42.4321C887.772 41.7999 885.728 41.4838 883.747 41.4838C880.923 41.4838 878.584 41.8842 876.729 42.685C874.875 43.4858 873.505 44.5605 872.62 45.9092C871.735 47.2158 871.292 48.6909 871.292 50.3346C871.292 52.2312 871.777 53.7485 872.746 54.8865C873.758 56.0244 875.086 56.9306 876.729 57.6049C878.373 58.2793 880.185 58.8482 882.166 59.3118C884.147 59.7755 886.107 60.2812 888.046 60.8291C889.984 61.3349 891.776 62.0092 893.419 62.8522C895.063 63.6951 896.391 64.8331 897.402 66.266C898.414 67.699 898.919 69.5535 898.919 71.8294C898.919 73.8946 898.351 75.8333 897.213 77.6456C896.075 79.4158 894.326 80.8488 891.965 81.9446C889.647 82.9983 886.655 83.5251 882.988 83.5251Z" fill="url(#paint6_linear_13_929)"/>
<path d="M85.0004 44.14C85.0004 44.95 84.7404 45.78 84.3504 46.36L83.6004 46.02C84.0204 45.39 84.1904 44.65 84.1904 44.09C84.1904 43.19 83.8504 42.6 83.2604 42.6C81.4604 42.6 82.4004 46.54 79.8604 46.53C78.6904 46.53 77.9404 45.5 77.9404 44C77.9404 42.98 78.3804 41.98 79.0104 41.32L79.7304 41.68C79.1004 42.33 78.7404 43.22 78.7404 44.01C78.7404 45.02 79.1504 45.65 79.8204 45.65C81.6604 45.66 80.6804 41.72 83.1904 41.72C84.2904 41.72 85.0004 42.69 85.0004 44.14ZM78.9604 50.5633L78.3304 50.7833C78.0804 50.4133 77.9404 50.0133 77.9304 49.5933C77.9304 48.8233 78.3904 48.2533 79.4304 48.2533L82.4404 48.2533L82.4404 47.4933L83.0704 47.4933L83.0704 48.2533L84.4604 48.2533L84.4604 49.0233L83.0704 49.0233L83.0804 50.6933L82.4404 50.6933L82.4404 49.0233L79.5704 49.0233C78.9304 49.0233 78.6904 49.2733 78.6904 49.7233C78.6904 49.9933 78.7804 50.2733 78.9604 50.5633ZM83.2404 52.7398L82.0704 52.7398C82.8404 53.0898 83.2604 53.7398 83.2704 54.6298L82.4804 54.6298C82.5004 53.5198 81.8104 52.8298 80.7704 52.7398L77.9704 52.7398L77.9704 51.9598L83.2404 51.9598L83.2404 52.7398ZM77.9704 58.6966L78.7804 58.6966C78.2104 58.2766 77.9304 57.6066 77.9304 56.7666C77.9304 55.6766 78.6304 54.9766 79.5404 54.9766C80.4604 54.9766 81.0404 55.7066 81.0504 56.9466L81.0504 58.6766L81.3604 58.6766C82.1304 58.6766 82.5904 58.1966 82.5904 57.2666C82.5904 56.6866 82.3704 56.1466 81.9904 55.5966L82.5604 55.2666C83.0104 55.9466 83.2704 56.5166 83.2704 57.4166C83.2704 58.7166 82.5804 59.4366 81.4504 59.4466L77.9704 59.4566L77.9704 58.6966ZM78.6104 56.9166C78.6104 57.8066 79.0604 58.4866 79.7904 58.6866L80.4204 58.6866L80.4204 57.0466C80.4204 56.1666 80.1504 55.7066 79.5704 55.7066C78.9904 55.7066 78.6104 56.1766 78.6104 56.9166ZM78.9604 63.698L78.3304 63.918C78.0804 63.548 77.9404 63.148 77.9304 62.728C77.9304 61.958 78.3904 61.388 79.4304 61.388L82.4404 61.388L82.4404 60.628L83.0704 60.628L83.0704 61.388L84.4604 61.388L84.4604 62.158L83.0704 62.158L83.0804 63.828L82.4404 63.828L82.4404 62.158L79.5704 62.158C78.9304 62.158 78.6904 62.408 78.6904 62.858C78.6904 63.128 78.7804 63.408 78.9604 63.698ZM83.2604 67.0964C83.2704 68.7964 82.0904 69.6364 80.3004 69.5564L80.3004 65.2564C79.2704 65.3964 78.6204 66.1464 78.6204 67.1664C78.6204 67.8164 78.8504 68.3864 79.2804 68.7964L78.8204 69.2264C78.2604 68.7264 77.9404 67.9864 77.9404 67.1064C77.9404 65.5564 79.0304 64.4864 80.6004 64.4864C82.1704 64.4864 83.2604 65.5664 83.2604 67.0964ZM80.9404 65.2564L80.9404 68.8564C81.9504 68.8064 82.5904 68.1264 82.5904 67.0964C82.5904 66.0964 81.9404 65.3764 80.9404 65.2564ZM83.2404 75.4853L78.5204 75.4853C76.9804 75.4853 76.0104 74.4353 76.0104 72.8353C76.0204 72.0053 76.2904 71.3153 76.7704 70.6753L77.3704 71.0353C76.9404 71.5553 76.7104 72.1053 76.7004 72.8053C76.7004 73.9553 77.4004 74.7053 78.5004 74.7053L79.3004 74.7053C78.6004 74.3353 78.2004 73.6553 78.2004 72.7653C78.2004 71.3453 79.2504 70.3653 80.7504 70.3653C82.2204 70.3653 83.2604 71.3353 83.2704 72.7453C83.2704 73.6453 82.8704 74.3253 82.1704 74.7053L83.2404 74.7053L83.2404 75.4853ZM78.8604 72.9053C78.8604 73.9553 79.6404 74.7053 80.7204 74.7053C81.8204 74.7053 82.5904 73.9553 82.5904 72.9053C82.5904 71.8453 81.8104 71.1053 80.7204 71.0953C79.6404 71.1053 78.8604 71.8453 78.8604 72.9053ZM83.2404 81.3527L77.2204 78.9327C76.4104 78.6027 75.9904 78.0527 75.9904 77.3527C75.9904 76.9127 76.1204 76.5627 76.3804 76.2427L77.0304 76.5727C76.8604 76.8127 76.7804 77.0527 76.7804 77.3127C76.7804 77.7227 77.0304 78.0627 77.5204 78.2727L78.0104 78.4927L83.2404 76.3127L83.2404 77.1327L78.8904 78.8827L83.2404 80.5527L83.2404 81.3527Z" fill="#807D7D"/>
<path d="M253.992 53.05C253.992 54.01 253.602 54.94 252.972 55.61L252.362 55.13C252.912 54.59 253.242 53.83 253.242 53.06C253.242 51.48 252.022 50.21 250.482 50.21C248.952 50.21 247.722 51.48 247.722 53.06C247.722 53.83 248.042 54.58 248.562 55.13L248.012 55.62C247.362 54.93 246.932 53.99 246.932 53.02C246.932 51 248.502 49.4 250.482 49.4C252.442 49.4 253.992 51.02 253.992 53.05ZM246.972 61.642L249.202 60.192C249.192 60.042 249.182 59.882 249.182 59.722L249.182 57.862L246.972 57.862L246.972 57.062L253.972 57.062L253.972 59.722C253.972 61.472 253.112 62.482 251.622 62.482C250.462 62.482 249.682 61.922 249.352 60.912L246.972 62.552L246.972 61.642ZM249.952 57.862L249.952 59.722C249.952 60.992 250.512 61.712 251.602 61.712C252.662 61.712 253.202 60.992 253.202 59.722L253.202 57.862L249.952 57.862ZM246.972 71.3685L246.972 70.6285L252.742 70.6185L247.712 68.0685L247.712 67.5885L252.742 65.0485L246.972 65.0485L246.972 64.2885L253.972 64.2885L253.972 65.2785L248.932 67.8385L253.972 70.3885L253.972 71.3685L246.972 71.3685Z" fill="#807D7D"/>
<path d="M411.274 44.49L411.274 40.67L409.504 39.89L409.504 39.04L416.504 42.18L416.504 43.01L409.504 46.14L409.504 45.27L411.274 44.49ZM412.044 44.15L415.594 42.57L412.044 41.01L412.044 44.15ZM414.804 49.9477C414.804 51.2077 414.024 51.9477 412.754 51.9477L409.504 51.9477L409.504 51.1677L412.544 51.1677C413.474 51.1677 414.024 50.6077 414.024 49.6777C414.014 48.6377 413.334 47.9977 412.334 47.9077L409.504 47.9077L409.504 47.1277L414.774 47.1277L414.774 47.9077L413.614 47.9077C414.414 48.2777 414.794 48.9877 414.804 49.9477ZM409.504 56.9602L410.314 56.9602C409.744 56.5402 409.464 55.8702 409.464 55.0302C409.464 53.9402 410.164 53.2402 411.074 53.2402C411.994 53.2402 412.574 53.9702 412.584 55.2102L412.584 56.9402L412.894 56.9402C413.664 56.9402 414.124 56.4602 414.124 55.5302C414.124 54.9502 413.904 54.4102 413.524 53.8602L414.094 53.5302C414.544 54.2102 414.804 54.7802 414.804 55.6802C414.804 56.9802 414.114 57.7002 412.984 57.7102L409.504 57.7202L409.504 56.9602ZM410.144 55.1802C410.144 56.0702 410.594 56.7502 411.324 56.9502L411.954 56.9502L411.954 55.3102C411.954 54.4302 411.684 53.9702 411.104 53.9702C410.524 53.9702 410.144 54.4402 410.144 55.1802ZM409.504 60.2917L409.504 59.5117L416.924 59.5117L416.924 60.2917L409.504 60.2917ZM414.774 66.3449L408.754 63.9249C407.944 63.5949 407.524 63.0449 407.524 62.3449C407.524 61.9049 407.654 61.5549 407.914 61.2349L408.564 61.5649C408.394 61.8049 408.314 62.0449 408.314 62.3049C408.314 62.7149 408.564 63.0549 409.054 63.2649L409.544 63.4849L414.774 61.3049L414.774 62.1249L410.424 63.8749L414.774 65.5449L414.774 66.3449ZM410.494 69.7645L409.864 69.9845C409.614 69.6145 409.474 69.2145 409.464 68.7945C409.464 68.0245 409.924 67.4545 410.964 67.4545L413.974 67.4545L413.974 66.6945L414.604 66.6945L414.604 67.4545L415.994 67.4545L415.994 68.2245L414.604 68.2245L414.614 69.8945L413.974 69.8945L413.974 68.2245L411.104 68.2245C410.464 68.2245 410.224 68.4745 410.224 68.9245C410.224 69.1945 410.314 69.4745 410.494 69.7645ZM416.824 71.5409C416.824 71.8309 416.594 72.0509 416.284 72.0509C415.974 72.0509 415.744 71.8309 415.744 71.5409C415.744 71.2509 415.974 71.0309 416.284 71.0309C416.594 71.0309 416.824 71.2509 416.824 71.5409ZM409.504 71.9309L409.504 71.1609L414.774 71.1609L414.774 71.9309L409.504 71.9309ZM414.794 75.907C414.804 76.757 414.514 77.457 414.014 77.937L413.464 77.507C413.844 77.107 414.074 76.577 414.074 75.937C414.074 74.847 413.284 74.067 412.134 74.067C410.984 74.067 410.184 74.847 410.184 75.937C410.184 76.627 410.424 77.197 410.864 77.567L410.384 78.017C409.814 77.547 409.474 76.817 409.474 75.907C409.474 74.377 410.564 73.297 412.134 73.297C413.704 73.297 414.794 74.387 414.794 75.907ZM414.804 80.8324C414.804 81.4624 414.624 82.0724 414.324 82.5124L413.704 82.2124C413.964 81.8024 414.134 81.2724 414.134 80.7824C414.134 80.1924 413.924 79.7424 413.434 79.7424C412.264 79.7424 412.864 82.6824 410.974 82.6824C409.934 82.6824 409.474 81.7624 409.474 80.7524C409.474 80.0024 409.734 79.2324 410.214 78.7324L410.804 79.0324C410.384 79.4824 410.134 80.1624 410.134 80.7824C410.134 81.4024 410.364 81.9024 410.884 81.9124C412.154 81.9424 411.504 78.9924 413.374 79.0024C414.384 79.0024 414.804 79.8724 414.804 80.8324Z" fill="#807D7D"/>
<path d="M568.1 33.86L568.1 36.93L567.34 36.93L567.34 33.06L574.34 33.06L574.34 33.86L568.1 33.86ZM572.63 40.256C572.63 41.816 571.55 42.926 569.98 42.926C568.4 42.926 567.31 41.816 567.31 40.256C567.31 38.696 568.4 37.586 569.98 37.586C571.55 37.586 572.63 38.696 572.63 40.256ZM571.92 40.256C571.92 39.156 571.12 38.366 569.97 38.366C568.81 38.366 568.01 39.156 568.01 40.256C568.01 41.356 568.81 42.146 569.97 42.146C571.12 42.146 571.92 41.356 571.92 40.256ZM572.63 46.3777C572.64 47.2277 572.35 47.9277 571.85 48.4077L571.3 47.9777C571.68 47.5777 571.91 47.0477 571.91 46.4077C571.91 45.3177 571.12 44.5377 569.97 44.5377C568.82 44.5377 568.02 45.3177 568.02 46.4077C568.02 47.0977 568.26 47.6677 568.7 48.0377L568.22 48.4877C567.65 48.0177 567.31 47.2877 567.31 46.3777C567.31 44.8477 568.4 43.7677 569.97 43.7677C571.54 43.7677 572.63 44.8577 572.63 46.3777ZM567.34 52.8802L568.15 52.8802C567.58 52.4602 567.3 51.7902 567.3 50.9502C567.3 49.8602 568 49.1602 568.91 49.1602C569.83 49.1602 570.41 49.8902 570.42 51.1302L570.42 52.8602L570.73 52.8602C571.5 52.8602 571.96 52.3802 571.96 51.4502C571.96 50.8702 571.74 50.3302 571.36 49.7802L571.93 49.4502C572.38 50.1302 572.64 50.7002 572.64 51.6002C572.64 52.9002 571.95 53.6202 570.82 53.6302L567.34 53.6402L567.34 52.8802ZM567.98 51.1002C567.98 51.9902 568.43 52.6702 569.16 52.8702L569.79 52.8702L569.79 51.2302C569.79 50.3502 569.52 49.8902 568.94 49.8902C568.36 49.8902 567.98 50.3602 567.98 51.1002ZM567.34 56.2116L567.34 55.4316L574.76 55.4316L574.76 56.2116L567.34 56.2116ZM574.66 58.5448C574.66 58.8348 574.43 59.0548 574.12 59.0548C573.81 59.0548 573.58 58.8348 573.58 58.5448C573.58 58.2548 573.81 58.0348 574.12 58.0348C574.43 58.0348 574.66 58.2548 574.66 58.5448ZM567.34 58.9348L567.34 58.1648L572.61 58.1648L572.61 58.9348L567.34 58.9348ZM572.01 64.6409L568.02 61.3409L568.01 64.7209L567.33 64.7209L567.34 60.4009L567.93 60.4009L571.92 63.7009L571.93 60.4909L572.61 60.4909L572.6 64.6409L572.01 64.6409ZM567.34 69.2278L568.15 69.2278C567.58 68.8078 567.3 68.1378 567.3 67.2978C567.3 66.2078 568 65.5078 568.91 65.5078C569.83 65.5078 570.41 66.2378 570.42 67.4778L570.42 69.2078L570.73 69.2078C571.5 69.2078 571.96 68.7278 571.96 67.7978C571.96 67.2178 571.74 66.6778 571.36 66.1278L571.93 65.7978C572.38 66.4778 572.64 67.0478 572.64 67.9478C572.64 69.2478 571.95 69.9678 570.82 69.9778L567.34 69.9878L567.34 69.2278ZM567.98 67.4478C567.98 68.3378 568.43 69.0178 569.16 69.2178L569.79 69.2178L569.79 67.5778C569.79 66.6978 569.52 66.2378 568.94 66.2378C568.36 66.2378 567.98 66.7078 567.98 67.4478ZM568.33 74.2293L567.7 74.4493C567.45 74.0793 567.31 73.6793 567.3 73.2593C567.3 72.4893 567.76 71.9193 568.8 71.9193L571.81 71.9193L571.81 71.1593L572.44 71.1593L572.44 71.9193L573.83 71.9193L573.83 72.6893L572.44 72.6893L572.45 74.3593L571.81 74.3593L571.81 72.6893L568.94 72.6893C568.3 72.6893 568.06 72.9393 568.06 73.3893C568.06 73.6593 568.15 73.9393 568.33 74.2293ZM574.66 76.0058C574.66 76.2958 574.43 76.5158 574.12 76.5158C573.81 76.5158 573.58 76.2958 573.58 76.0058C573.58 75.7158 573.81 75.4958 574.12 75.4958C574.43 75.4958 574.66 75.7158 574.66 76.0058ZM567.34 76.3958L567.34 75.6258L572.61 75.6258L572.61 76.3958L567.34 76.3958ZM572.63 80.4318C572.63 81.9918 571.55 83.1018 569.98 83.1018C568.4 83.1018 567.31 81.9918 567.31 80.4318C567.31 78.8718 568.4 77.7618 569.98 77.7618C571.55 77.7618 572.63 78.8718 572.63 80.4318ZM571.92 80.4318C571.92 79.3318 571.12 78.5418 569.97 78.5418C568.81 78.5418 568.01 79.3318 568.01 80.4318C568.01 81.5318 568.81 82.3218 569.97 82.3218C571.12 82.3218 571.92 81.5318 571.92 80.4318ZM572.64 87.2934C572.64 88.5534 571.86 89.2934 570.59 89.2934L567.34 89.2934L567.34 88.5134L570.38 88.5134C571.31 88.5134 571.86 87.9534 571.86 87.0234C571.85 85.9834 571.17 85.3434 570.17 85.2534L567.34 85.2534L567.34 84.4734L572.61 84.4734L572.61 85.2534L571.45 85.2534C572.25 85.6234 572.63 86.3334 572.64 87.2934Z" fill="#807D7D"/>
<path d="M746.98 34.81L746.98 30.86L744.68 30.86L744.68 34.39L743.91 34.39L743.91 30.86L741.51 30.86L741.51 34.94L740.75 34.94L740.75 30.06L747.75 30.06L747.75 34.81L746.98 34.81ZM746.05 39.2837C746.05 40.5437 745.27 41.2837 744 41.2837L740.75 41.2837L740.75 40.5037L743.79 40.5037C744.72 40.5037 745.27 39.9437 745.27 39.0137C745.26 37.9737 744.58 37.3337 743.58 37.2437L740.75 37.2437L740.75 36.4637L746.02 36.4637L746.02 37.2437L744.86 37.2437C745.66 37.6137 746.04 38.3237 746.05 39.2837ZM746.02 47.6162L741.3 47.6162C739.76 47.6162 738.79 46.5662 738.79 44.9662C738.8 44.1362 739.07 43.4462 739.55 42.8062L740.15 43.1662C739.72 43.6862 739.49 44.2362 739.48 44.9362C739.48 46.0862 740.18 46.8362 741.28 46.8362L742.08 46.8362C741.38 46.4662 740.98 45.7862 740.98 44.8962C740.98 43.4762 742.03 42.4962 743.53 42.4962C745 42.4962 746.04 43.4662 746.05 44.8762C746.05 45.7762 745.65 46.4562 744.95 46.8362L746.02 46.8362L746.02 47.6162ZM741.64 45.0362C741.64 46.0862 742.42 46.8362 743.5 46.8362C744.6 46.8362 745.37 46.0862 745.37 45.0362C745.37 43.9762 744.59 43.2362 743.5 43.2262C742.42 43.2362 741.64 43.9762 741.64 45.0362ZM740.75 52.6536L741.56 52.6536C740.99 52.2336 740.71 51.5636 740.71 50.7236C740.71 49.6336 741.41 48.9336 742.32 48.9336C743.24 48.9336 743.82 49.6636 743.83 50.9036L743.83 52.6336L744.14 52.6336C744.91 52.6336 745.37 52.1536 745.37 51.2236C745.37 50.6436 745.15 50.1036 744.77 49.5536L745.34 49.2236C745.79 49.9036 746.05 50.4736 746.05 51.3736C746.05 52.6736 745.36 53.3936 744.23 53.4036L740.75 53.4136L740.75 52.6536ZM741.39 50.8736C741.39 51.7636 741.84 52.4436 742.57 52.6436L743.2 52.6436L743.2 51.0036C743.2 50.1236 742.93 49.6636 742.35 49.6636C741.77 49.6636 741.39 50.1336 741.39 50.8736ZM746.02 59.7451L741.3 59.7451C739.76 59.7451 738.79 58.6951 738.79 57.0951C738.8 56.2651 739.07 55.5751 739.55 54.9351L740.15 55.2951C739.72 55.8151 739.49 56.3651 739.48 57.0651C739.48 58.2151 740.18 58.9651 741.28 58.9651L742.08 58.9651C741.38 58.5951 740.98 57.9151 740.98 57.0251C740.98 55.6051 742.03 54.6251 743.53 54.6251C745 54.6251 746.04 55.5951 746.05 57.0051C746.05 57.9051 745.65 58.5851 744.95 58.9651L746.02 58.9651L746.02 59.7451ZM741.64 57.1651C741.64 58.2151 742.42 58.9651 743.5 58.9651C744.6 58.9651 745.37 58.2151 745.37 57.1651C745.37 56.1051 744.59 55.3651 743.5 55.3551C742.42 55.3651 741.64 56.1051 741.64 57.1651ZM746.04 63.5925C746.05 65.2925 744.87 66.1325 743.08 66.0525L743.08 61.7525C742.05 61.8925 741.4 62.6425 741.4 63.6625C741.4 64.3125 741.63 64.8825 742.06 65.2925L741.6 65.7225C741.04 65.2225 740.72 64.4825 740.72 63.6025C740.72 62.0525 741.81 60.9825 743.38 60.9825C744.95 60.9825 746.04 62.0625 746.04 63.5925ZM743.72 61.7525L743.72 65.3525C744.73 65.3025 745.37 64.6225 745.37 63.5925C745.37 62.5925 744.72 61.8725 743.72 61.7525ZM746.05 74.1414C746.05 75.3714 745.27 76.1014 744 76.1014L740.75 76.1014L740.75 75.3214L743.79 75.3214C744.73 75.3214 745.28 74.7714 745.28 73.8614C745.25 72.7714 744.47 72.1414 743.34 72.1414L740.75 72.1414L740.75 71.3514L743.79 71.3514C744.73 71.3514 745.28 70.8114 745.28 69.8914C745.25 68.8114 744.47 68.1614 743.34 68.1614L740.75 68.1614L740.75 67.3914L746.02 67.3914L746.02 68.1614L744.83 68.1614C745.65 68.5114 746.04 69.2214 746.05 70.1714C746.05 71.1614 745.54 71.8414 744.67 72.0614C745.6 72.3914 746.04 73.1314 746.05 74.1414ZM746.04 79.9109C746.05 81.6109 744.87 82.4509 743.08 82.3709L743.08 78.0709C742.05 78.2109 741.4 78.9609 741.4 79.9809C741.4 80.6309 741.63 81.2009 742.06 81.6109L741.6 82.0409C741.04 81.5409 740.72 80.8009 740.72 79.9209C740.72 78.3709 741.81 77.3009 743.38 77.3009C744.95 77.3009 746.04 78.3809 746.04 79.9109ZM743.72 78.0709L743.72 81.6709C744.73 81.6209 745.37 80.9409 745.37 79.9109C745.37 78.9109 744.72 78.1909 743.72 78.0709ZM746.05 86.5298C746.05 87.7898 745.27 88.5298 744 88.5298L740.75 88.5298L740.75 87.7498L743.79 87.7498C744.72 87.7498 745.27 87.1898 745.27 86.2598C745.26 85.2198 744.58 84.5798 743.58 84.4898L740.75 84.4898L740.75 83.7098L746.02 83.7098L746.02 84.4898L744.86 84.4898C745.66 84.8598 746.04 85.5698 746.05 86.5298ZM741.74 92.7723L741.11 92.9923C740.86 92.6223 740.72 92.2223 740.71 91.8023C740.71 91.0323 741.17 90.4623 742.21 90.4623L745.22 90.4623L745.22 89.7023L745.85 89.7023L745.85 90.4623L747.24 90.4623L747.24 91.2323L745.85 91.2323L745.86 92.9023L745.22 92.9023L745.22 91.2323L742.35 91.2323C741.71 91.2323 741.47 91.4823 741.47 91.9323C741.47 92.2023 741.56 92.4823 741.74 92.7723Z" fill="#807D7D"/>
<path d="M907.964 33.14C907.964 33.95 907.704 34.78 907.314 35.36L906.564 35.02C906.984 34.39 907.154 33.65 907.154 33.09C907.154 32.19 906.814 31.6 906.224 31.6C904.424 31.6 905.364 35.54 902.824 35.53C901.654 35.53 900.904 34.5 900.904 33C900.904 31.98 901.344 30.98 901.974 30.32L902.694 30.68C902.064 31.33 901.704 32.22 901.704 33.01C901.704 34.02 902.114 34.65 902.784 34.65C904.624 34.66 903.644 30.72 906.154 30.72C907.254 30.72 907.964 31.69 907.964 33.14ZM906.224 39.2033C906.224 40.7633 905.144 41.8733 903.574 41.8733C901.994 41.8733 900.904 40.7633 900.904 39.2033C900.904 37.6433 901.994 36.5333 903.574 36.5333C905.144 36.5333 906.224 37.6433 906.224 39.2033ZM905.514 39.2033C905.514 38.1033 904.714 37.3133 903.564 37.3133C902.404 37.3133 901.604 38.1033 901.604 39.2033C901.604 40.3033 902.404 41.0933 903.564 41.0933C904.714 41.0933 905.514 40.3033 905.514 39.2033ZM906.224 45.3249C906.234 46.1749 905.944 46.8749 905.444 47.3549L904.894 46.9249C905.274 46.5249 905.504 45.9949 905.504 45.3549C905.504 44.2649 904.714 43.4849 903.564 43.4849C902.414 43.4849 901.614 44.2649 901.614 45.3549C901.614 46.0449 901.854 46.6149 902.294 46.9849L901.814 47.4349C901.244 46.9649 900.904 46.2349 900.904 45.3249C900.904 43.7949 901.994 42.7149 903.564 42.7149C905.134 42.7149 906.224 43.8049 906.224 45.3249ZM908.254 49.2304C908.254 49.5204 908.024 49.7404 907.714 49.7404C907.404 49.7404 907.174 49.5204 907.174 49.2304C907.174 48.9404 907.404 48.7204 907.714 48.7204C908.024 48.7204 908.254 48.9404 908.254 49.2304ZM900.934 49.6204L900.934 48.8504L906.204 48.8504L906.204 49.6204L900.934 49.6204ZM900.934 54.7864L901.744 54.7864C901.174 54.3664 900.894 53.6964 900.894 52.8564C900.894 51.7664 901.594 51.0664 902.504 51.0664C903.424 51.0664 904.004 51.7964 904.014 53.0364L904.014 54.7664L904.324 54.7664C905.094 54.7664 905.554 54.2864 905.554 53.3564C905.554 52.7764 905.334 52.2364 904.954 51.6864L905.524 51.3564C905.974 52.0364 906.234 52.6064 906.234 53.5064C906.234 54.8064 905.544 55.5264 904.414 55.5364L900.934 55.5464L900.934 54.7864ZM901.574 53.0064C901.574 53.8964 902.024 54.5764 902.754 54.7764L903.384 54.7764L903.384 53.1364C903.384 52.2564 903.114 51.7964 902.534 51.7964C901.954 51.7964 901.574 52.2664 901.574 53.0064ZM900.934 58.1179L900.934 57.3379L908.354 57.3379L908.354 58.1179L900.934 58.1179ZM900.934 70.0052L900.934 69.2652L906.704 69.2552L901.674 66.7052L901.674 66.2252L906.704 63.6852L900.934 63.6852L900.934 62.9252L907.934 62.9252L907.934 63.9152L902.894 66.4752L907.934 69.0252L907.934 70.0052L900.934 70.0052ZM906.224 74.1042C906.234 75.8042 905.054 76.6442 903.264 76.5642L903.264 72.2642C902.234 72.4042 901.584 73.1542 901.584 74.1742C901.584 74.8242 901.814 75.3942 902.244 75.8042L901.784 76.2342C901.224 75.7342 900.904 74.9942 900.904 74.1142C900.904 72.5642 901.994 71.4942 903.564 71.4942C905.134 71.4942 906.224 72.5742 906.224 74.1042ZM903.904 72.2642L903.904 75.8642C904.914 75.8142 905.554 75.1342 905.554 74.1042C905.554 73.1042 904.904 72.3842 903.904 72.2642ZM908.354 82.7431L900.934 82.7431L900.934 81.9631L902.064 81.9631C901.324 81.5731 900.894 80.8531 900.894 79.9131C900.894 78.4131 902.004 77.3731 903.574 77.3731C905.154 77.3731 906.244 78.4131 906.244 79.9031C906.244 80.8431 905.814 81.5731 905.064 81.9631L908.354 81.9631L908.354 82.7431ZM901.594 80.0631C901.594 81.1731 902.414 81.9631 903.554 81.9631C904.704 81.9631 905.534 81.1731 905.534 80.0631C905.534 78.9431 904.704 78.1531 903.554 78.1531C902.414 78.1531 901.594 78.9431 901.594 80.0631ZM908.254 85.0702C908.254 85.3602 908.024 85.5802 907.714 85.5802C907.404 85.5802 907.174 85.3602 907.174 85.0702C907.174 84.7802 907.404 84.5602 907.714 84.5602C908.024 84.5602 908.254 84.7802 908.254 85.0702ZM900.934 85.4602L900.934 84.6902L906.204 84.6902L906.204 85.4602L900.934 85.4602ZM900.934 90.6262L901.744 90.6262C901.174 90.2062 900.894 89.5362 900.894 88.6962C900.894 87.6062 901.594 86.9062 902.504 86.9062C903.424 86.9062 904.004 87.6362 904.014 88.8762L904.014 90.6062L904.324 90.6062C905.094 90.6062 905.554 90.1262 905.554 89.1962C905.554 88.6162 905.334 88.0762 904.954 87.5262L905.524 87.1962C905.974 87.8762 906.234 88.4462 906.234 89.3462C906.234 90.6463 905.544 91.3663 904.414 91.3762L900.934 91.3862L900.934 90.6262ZM901.574 88.8462C901.574 89.7362 902.024 90.4162 902.754 90.6163L903.384 90.6163L903.384 88.9762C903.384 88.0962 903.114 87.6362 902.534 87.6362C901.954 87.6362 901.574 88.1062 901.574 88.8462Z" fill="#807D7D"/>
<defs>
<linearGradient id="paint0_linear_13_929" x1="107.85" y1="10.1952" x2="624.652" y2="487.974" gradientUnits="userSpaceOnUse">
<stop stop-color="#4190E5"/>
<stop offset="1" stop-color="#3636BF"/>
</linearGradient>
<linearGradient id="paint1_linear_13_929" x1="43.6328" y1="42.5664" x2="82.8848" y2="46.6811" gradientUnits="userSpaceOnUse">
<stop stop-color="#4190E5"/>
<stop offset="1" stop-color="#3636BF"/>
</linearGradient>
<linearGradient id="paint2_linear_13_929" x1="206.815" y1="42.5664" x2="252.916" y2="48.2664" gradientUnits="userSpaceOnUse">
<stop stop-color="#4190E5"/>
<stop offset="1" stop-color="#3636BF"/>
</linearGradient>
<linearGradient id="paint3_linear_13_929" x1="369.969" y1="42.5664" x2="415.097" y2="48.0248" gradientUnits="userSpaceOnUse">
<stop stop-color="#4190E5"/>
<stop offset="1" stop-color="#3636BF"/>
</linearGradient>
<linearGradient id="paint4_linear_13_929" x1="534.245" y1="42.5664" x2="571.525" y2="46.2739" gradientUnits="userSpaceOnUse">
<stop stop-color="#4190E5"/>
<stop offset="1" stop-color="#3636BF"/>
</linearGradient>
<linearGradient id="paint5_linear_13_929" x1="702.458" y1="42.5664" x2="745.634" y2="47.5567" gradientUnits="userSpaceOnUse">
<stop stop-color="#4190E5"/>
<stop offset="1" stop-color="#3636BF"/>
</linearGradient>
<linearGradient id="paint6_linear_13_929" x1="868.066" y1="42.5664" x2="907.318" y2="46.6811" gradientUnits="userSpaceOnUse">
<stop stop-color="#4190E5"/>
<stop offset="1" stop-color="#3636BF"/>
</linearGradient>
</defs>
</svg>
