<svg width="100%" height="100%" viewBox="0 0 322 111" fill="none" xmlns="http://www.w3.org/2000/svg">
<path opacity="0.3" d="M300.866 1C294.361 1 288.555 4.05987 284.809 8.85641C284.809 8.85641 284.809 8.85641 284.767 8.81506C281.021 13.5703 279.374 16.6301 272.868 16.6301C266.363 16.6301 264.675 13.5703 260.969 8.81506C260.969 8.81506 260.969 8.81506 260.928 8.85641C257.593 4.59741 252.611 1.66159 246.929 1.12405C246.888 1.12405 246.847 1.12405 246.805 1.12405C246.517 1.0827 246.229 1.0827 245.941 1.04135C245.735 1.04135 245.529 1.04135 245.323 1.04135C245.2 1.04135 245.035 1.04135 244.911 1.04135H244.87H244.829C244.706 1.04135 244.541 1.04135 244.417 1.04135C244.212 1.04135 244.006 1.04135 243.8 1.04135C243.512 1.04135 243.223 1.0827 242.935 1.12405C242.894 1.12405 242.853 1.12405 242.812 1.12405C237.13 1.70294 232.148 4.59741 228.813 8.85641C228.813 8.85641 228.813 8.85641 228.771 8.81506C225.025 13.5703 223.378 16.6301 216.872 16.6301C210.82 16.6301 208.967 13.9838 205.756 9.80745C202.091 4.47336 195.956 1 188.998 1H188.957H188.916C181.957 1 175.822 4.47336 172.158 9.80745C168.946 13.9838 167.053 16.6301 161.041 16.6301C155.359 16.6301 153.342 14.2732 150.46 10.5104C146.836 4.80416 140.496 1 133.249 1C133.208 1 133.208 1 133.167 1C133.126 1 133.126 1 133.084 1C125.838 1 119.497 4.80416 115.874 10.5104C112.951 14.2732 110.974 16.6301 105.292 16.6301C99.2398 16.6301 97.387 13.9838 94.1755 9.80745C90.5111 4.47336 84.3762 1 77.4179 1H77.3767H77.3356C70.3773 1 64.2424 4.47336 60.578 9.80745C57.3664 13.9838 55.4725 16.6301 49.4611 16.6301C42.9557 16.6301 41.2676 13.5703 37.562 8.81506C37.562 8.81506 37.562 8.81506 37.5208 8.85641C33.7741 4.05987 28.0098 1 21.4632 1C10.1405 1 1 10.1796 1 21.468C1 32.7564 10.1405 41.936 21.3809 41.936C27.8863 41.936 33.6917 38.8762 37.4385 34.0796C41.1853 29.3244 42.8322 26.2232 49.3376 26.2232C55.2666 26.2232 57.2018 28.7869 60.2898 32.8391C63.9542 38.2973 70.1714 41.8947 77.212 41.8947H77.2532H77.2944C84.3351 41.8947 90.5522 38.2973 94.2167 32.8391C97.3459 28.7869 99.2398 26.2232 105.169 26.2232C110.81 26.2232 112.827 28.5388 115.668 32.2602C119.25 38.0492 125.673 41.936 132.961 41.936C133.002 41.936 133.002 41.936 133.043 41.936C133.084 41.936 133.084 41.936 133.126 41.936C140.413 41.936 146.836 38.0905 150.418 32.2602C153.301 28.5388 155.277 26.2232 160.918 26.2232C166.847 26.2232 168.782 28.7869 171.87 32.8391C175.534 38.2973 181.751 41.8947 188.792 41.8947H188.833H188.874C195.915 41.8947 202.132 38.2973 205.797 32.8391C208.926 28.7869 210.82 26.2232 216.749 26.2232C223.254 26.2232 224.942 29.2831 228.648 34.0796C231.983 38.3386 236.965 41.2744 242.647 41.812C242.688 41.812 242.729 41.812 242.77 41.812C243.059 41.8533 243.347 41.8533 243.635 41.8947C243.841 41.8947 244.047 41.8947 244.253 41.8947C244.376 41.8947 244.541 41.8947 244.664 41.8947H244.706H244.747C244.87 41.8947 245.035 41.8947 245.159 41.8947C245.364 41.8947 245.57 41.8947 245.776 41.8947C246.064 41.8947 246.353 41.8533 246.641 41.812C246.682 41.812 246.723 41.812 246.764 41.812C252.446 41.2331 257.428 38.3386 260.763 34.0796C264.51 29.3244 266.157 26.2232 272.662 26.2232C279.168 26.2232 280.856 29.2831 284.562 34.0796C288.308 38.8762 294.073 41.936 300.619 41.936C311.859 41.936 321 32.7564 321 21.468C321 10.1796 312.107 1 300.866 1Z" fill="white" stroke="url(#paint0_linear_119_1502)" stroke-miterlimit="10"/>
<path d="M22.1435 12.7015C24.2495 12.7015 26.4075 13.3775 27.9155 14.3915L27.0315 16.3415C25.3935 15.2495 23.4695 14.8075 22.0135 14.8075C19.6735 14.8075 18.1395 15.6915 18.1395 17.2255C18.1395 21.9055 28.3835 19.4615 28.3575 26.0655C28.3575 29.1075 25.6795 31.0575 21.7795 31.0575C19.1275 31.0575 16.5275 29.9135 14.8115 28.2755L15.7475 26.4035C17.4375 28.0415 19.7515 28.9775 21.8055 28.9775C24.4315 28.9775 26.0695 27.9115 26.0695 26.1695C26.0955 21.3855 15.8515 23.9335 15.8515 17.4075C15.8515 14.5475 18.3735 12.7015 22.1435 12.7015Z" fill="url(#paint1_linear_119_1502)"/>
<path d="M79.6736 12.7275C82.1696 12.7275 84.5876 13.7415 86.3296 15.3795L85.0816 16.9655C83.6776 15.5355 81.7016 14.6775 79.6996 14.6775C75.5916 14.6775 72.2896 17.8495 72.2896 21.8535C72.2896 25.8315 75.5916 29.0295 79.6996 29.0295C81.7016 29.0295 83.6516 28.1975 85.0816 26.8455L86.3556 28.2755C84.5616 29.9655 82.1176 31.0835 79.5956 31.0835C74.3436 31.0835 70.1836 27.0015 70.1836 21.8535C70.1836 16.7575 74.3956 12.7275 79.6736 12.7275Z" fill="url(#paint2_linear_119_1502)"/>
<path d="M138.879 26.3775H128.947L126.919 30.9795H124.709L132.873 12.7795H135.031L143.169 30.9795H140.907L138.879 26.3775ZM137.995 24.3755L133.887 15.1455L129.831 24.3755H137.995Z" fill="url(#paint3_linear_119_1502)"/>
<path d="M185.555 29.0035H193.537V30.9795H183.475V12.7795H185.555V29.0035Z" fill="url(#paint4_linear_119_1502)"/>
<path d="M252.736 14.7815H242.466V20.7615H251.644V22.7635H242.466V29.0035H253.074V30.9795H240.386V12.7795H252.736V14.7815Z" fill="url(#paint5_linear_119_1502)"/>
<path d="M301.206 12.7015C303.312 12.7015 305.47 13.3775 306.978 14.3915L306.094 16.3415C304.456 15.2495 302.532 14.8075 301.076 14.8075C298.736 14.8075 297.202 15.6915 297.202 17.2255C297.202 21.9055 307.446 19.4615 307.42 26.0655C307.42 29.1075 304.742 31.0575 300.842 31.0575C298.19 31.0575 295.59 29.9135 293.874 28.2755L294.81 26.4035C296.5 28.0415 298.814 28.9775 300.868 28.9775C303.494 28.9775 305.132 27.9115 305.132 26.1695C305.158 21.3855 294.914 23.9335 294.914 17.4075C294.914 14.5475 297.436 12.7015 301.206 12.7015Z" fill="url(#paint6_linear_119_1502)"/>
<path d="M24.2341 49.14C24.2341 49.95 23.9741 50.78 23.5841 51.36L22.8341 51.02C23.2541 50.39 23.4241 49.65 23.4241 49.09C23.4241 48.19 23.0841 47.6 22.4941 47.6C20.6941 47.6 21.6341 51.54 19.0941 51.53C17.9241 51.53 17.1741 50.5 17.1741 49C17.1741 47.98 17.6141 46.98 18.2441 46.32L18.9641 46.68C18.3341 47.33 17.9741 48.22 17.9741 49.01C17.9741 50.02 18.3841 50.65 19.0541 50.65C20.8941 50.66 19.9141 46.72 22.4241 46.72C23.5241 46.72 24.2341 47.69 24.2341 49.14ZM18.1941 55.5633L17.5641 55.7833C17.3141 55.4133 17.1741 55.0133 17.1641 54.5933C17.1641 53.8233 17.6241 53.2533 18.6641 53.2533L21.6741 53.2533L21.6741 52.4933L22.3041 52.4933L22.3041 53.2533L23.6941 53.2533L23.6941 54.0233L22.3041 54.0233L22.3141 55.6933L21.6741 55.6933L21.6741 54.0233L18.8041 54.0233C18.1641 54.0233 17.9241 54.2733 17.9241 54.7233C17.9241 54.9933 18.0141 55.2733 18.1941 55.5633ZM22.4741 57.7398L21.3041 57.7398C22.0741 58.0898 22.4941 58.7398 22.5041 59.6298L21.7141 59.6298C21.7341 58.5198 21.0441 57.8298 20.0041 57.7398L17.2041 57.7398L17.2041 56.9598L22.4741 56.9598L22.4741 57.7398ZM17.2041 63.6966L18.0141 63.6966C17.4441 63.2766 17.1641 62.6066 17.1641 61.7666C17.1641 60.6766 17.8641 59.9766 18.7741 59.9766C19.6941 59.9766 20.2741 60.7066 20.2841 61.9466L20.2841 63.6766L20.5941 63.6766C21.3641 63.6766 21.8241 63.1966 21.8241 62.2666C21.8241 61.6866 21.6041 61.1466 21.2241 60.5966L21.7941 60.2666C22.2441 60.9466 22.5041 61.5166 22.5041 62.4166C22.5041 63.7166 21.8141 64.4366 20.6841 64.4466L17.2041 64.4566L17.2041 63.6966ZM17.8441 61.9166C17.8441 62.8066 18.2941 63.4866 19.0241 63.6866L19.6541 63.6866L19.6541 62.0466C19.6541 61.1666 19.3841 60.7066 18.8041 60.7066C18.2241 60.7066 17.8441 61.1766 17.8441 61.9166ZM18.1941 68.698L17.5641 68.918C17.3141 68.548 17.1741 68.148 17.1641 67.728C17.1641 66.958 17.6241 66.388 18.6641 66.388L21.6741 66.388L21.6741 65.628L22.3041 65.628L22.3041 66.388L23.6941 66.388L23.6941 67.158L22.3041 67.158L22.3141 68.828L21.6741 68.828L21.6741 67.158L18.8041 67.158C18.1641 67.158 17.9241 67.408 17.9241 67.858C17.9241 68.128 18.0141 68.408 18.1941 68.698ZM22.4941 72.0964C22.5041 73.7964 21.3241 74.6364 19.5341 74.5564L19.5341 70.2564C18.5041 70.3964 17.8541 71.1464 17.8541 72.1664C17.8541 72.8164 18.0841 73.3864 18.5141 73.7964L18.0541 74.2264C17.4941 73.7264 17.1741 72.9864 17.1741 72.1064C17.1741 70.5564 18.2641 69.4864 19.8341 69.4864C21.4041 69.4864 22.4941 70.5664 22.4941 72.0964ZM20.1741 70.2564L20.1741 73.8564C21.1841 73.8064 21.8241 73.1264 21.8241 72.0964C21.8241 71.0964 21.1741 70.3764 20.1741 70.2564ZM22.4741 80.4853L17.7541 80.4853C16.2141 80.4853 15.2441 79.4353 15.2441 77.8353C15.2541 77.0053 15.5241 76.3153 16.0041 75.6753L16.6041 76.0353C16.1741 76.5553 15.9441 77.1053 15.9341 77.8053C15.9341 78.9553 16.6341 79.7053 17.7341 79.7053L18.5341 79.7053C17.8341 79.3353 17.4341 78.6553 17.4341 77.7653C17.4341 76.3453 18.4841 75.3653 19.9841 75.3653C21.4541 75.3653 22.4941 76.3353 22.5041 77.7453C22.5041 78.6453 22.1041 79.3253 21.4041 79.7053L22.4741 79.7053L22.4741 80.4853ZM18.0941 77.9053C18.0941 78.9553 18.8741 79.7053 19.9541 79.7053C21.0541 79.7053 21.8241 78.9553 21.8241 77.9053C21.8241 76.8453 21.0441 76.1053 19.9541 76.0953C18.8741 76.1053 18.0941 76.8453 18.0941 77.9053ZM22.4741 86.3527L16.4541 83.9327C15.6441 83.6027 15.2241 83.0527 15.2241 82.3527C15.2241 81.9127 15.3541 81.5627 15.6141 81.2427L16.2641 81.5727C16.0941 81.8127 16.0141 82.0527 16.0141 82.3127C16.0141 82.7227 16.2641 83.0627 16.7541 83.2727L17.2441 83.4927L22.4741 81.3127L22.4741 82.1327L18.1241 83.8827L22.4741 85.5527L22.4741 86.3527Z" fill="#807D7D"/>
<path d="M81.6347 50.05C81.6347 51.01 81.2447 51.94 80.6147 52.61L80.0047 52.13C80.5547 51.59 80.8847 50.83 80.8847 50.06C80.8847 48.48 79.6647 47.21 78.1247 47.21C76.5947 47.21 75.3647 48.48 75.3647 50.06C75.3647 50.83 75.6847 51.58 76.2047 52.13L75.6547 52.62C75.0047 51.93 74.5747 50.99 74.5747 50.02C74.5747 48 76.1447 46.4 78.1247 46.4C80.0847 46.4 81.6347 48.02 81.6347 50.05ZM74.6147 58.642L76.8447 57.192C76.8347 57.042 76.8247 56.882 76.8247 56.722L76.8247 54.862L74.6147 54.862L74.6147 54.062L81.6147 54.062L81.6147 56.722C81.6147 58.472 80.7547 59.482 79.2647 59.482C78.1047 59.482 77.3247 58.922 76.9947 57.912L74.6147 59.552L74.6147 58.642ZM77.5947 54.862L77.5947 56.722C77.5947 57.992 78.1547 58.712 79.2447 58.712C80.3047 58.712 80.8447 57.992 80.8447 56.722L80.8447 54.862L77.5947 54.862ZM74.6147 68.3685L74.6147 67.6285L80.3847 67.6185L75.3547 65.0685L75.3547 64.5885L80.3847 62.0485L74.6147 62.0485L74.6147 61.2885L81.6147 61.2885L81.6147 62.2785L76.5747 64.8385L81.6147 67.3885L81.6147 68.3685L74.6147 68.3685Z" fill="#807D7D"/>
<path d="M131.597 51.49L131.597 47.67L129.827 46.89L129.827 46.04L136.827 49.18L136.827 50.01L129.827 53.14L129.827 52.27L131.597 51.49ZM132.367 51.15L135.917 49.57L132.367 48.01L132.367 51.15ZM135.127 56.9477C135.127 58.2077 134.347 58.9477 133.077 58.9477L129.827 58.9477L129.827 58.1677L132.867 58.1677C133.797 58.1677 134.347 57.6077 134.347 56.6777C134.337 55.6377 133.657 54.9977 132.657 54.9077L129.827 54.9077L129.827 54.1277L135.097 54.1277L135.097 54.9077L133.937 54.9077C134.737 55.2777 135.117 55.9877 135.127 56.9477ZM129.827 63.9602L130.637 63.9602C130.067 63.5402 129.787 62.8702 129.787 62.0302C129.787 60.9402 130.487 60.2402 131.397 60.2402C132.317 60.2402 132.897 60.9702 132.907 62.2102L132.907 63.9402L133.217 63.9402C133.987 63.9402 134.447 63.4602 134.447 62.5302C134.447 61.9502 134.227 61.4102 133.847 60.8602L134.417 60.5302C134.867 61.2102 135.127 61.7802 135.127 62.6802C135.127 63.9802 134.437 64.7002 133.307 64.7102L129.827 64.7202L129.827 63.9602ZM130.467 62.1802C130.467 63.0702 130.917 63.7502 131.647 63.9502L132.277 63.9502L132.277 62.3102C132.277 61.4302 132.007 60.9702 131.427 60.9702C130.847 60.9702 130.467 61.4402 130.467 62.1802ZM129.827 67.2917L129.827 66.5117L137.247 66.5117L137.247 67.2917L129.827 67.2917ZM135.097 73.3449L129.077 70.9249C128.267 70.5949 127.847 70.0449 127.847 69.3449C127.847 68.9049 127.977 68.5549 128.237 68.2349L128.887 68.5649C128.717 68.8049 128.637 69.0449 128.637 69.3049C128.637 69.7149 128.887 70.0549 129.377 70.2649L129.867 70.4849L135.097 68.3049L135.097 69.1249L130.747 70.8749L135.097 72.5449L135.097 73.3449ZM130.817 76.7645L130.187 76.9845C129.937 76.6145 129.797 76.2145 129.787 75.7945C129.787 75.0245 130.247 74.4545 131.287 74.4545L134.297 74.4545L134.297 73.6945L134.927 73.6945L134.927 74.4545L136.317 74.4545L136.317 75.2245L134.927 75.2245L134.937 76.8945L134.297 76.8945L134.297 75.2245L131.427 75.2245C130.787 75.2245 130.547 75.4745 130.547 75.9245C130.547 76.1945 130.637 76.4745 130.817 76.7645ZM137.147 78.5409C137.147 78.8309 136.917 79.0509 136.607 79.0509C136.297 79.0509 136.067 78.8309 136.067 78.5409C136.067 78.2509 136.297 78.0309 136.607 78.0309C136.917 78.0309 137.147 78.2509 137.147 78.5409ZM129.827 78.9309L129.827 78.1609L135.097 78.1609L135.097 78.9309L129.827 78.9309ZM135.117 82.907C135.127 83.757 134.837 84.457 134.337 84.937L133.787 84.507C134.167 84.107 134.397 83.577 134.397 82.937C134.397 81.847 133.607 81.067 132.457 81.067C131.307 81.067 130.507 81.847 130.507 82.937C130.507 83.627 130.747 84.197 131.187 84.567L130.707 85.017C130.137 84.547 129.797 83.817 129.797 82.907C129.797 81.377 130.887 80.297 132.457 80.297C134.027 80.297 135.117 81.387 135.117 82.907ZM135.127 87.8324C135.127 88.4624 134.947 89.0724 134.647 89.5124L134.027 89.2124C134.287 88.8024 134.457 88.2724 134.457 87.7824C134.457 87.1924 134.247 86.7424 133.757 86.7424C132.587 86.7424 133.187 89.6824 131.297 89.6824C130.257 89.6824 129.797 88.7624 129.797 87.7524C129.797 87.0024 130.057 86.2324 130.537 85.7324L131.127 86.0324C130.707 86.4824 130.457 87.1624 130.457 87.7824C130.457 88.4024 130.687 88.9024 131.207 88.9124C132.477 88.9424 131.827 85.9924 133.697 86.0024C134.707 86.0024 135.127 86.8724 135.127 87.8324Z" fill="#807D7D"/>
<path d="M184.204 47.86L184.204 50.93L183.444 50.93L183.444 47.06L190.444 47.06L190.444 47.86L184.204 47.86ZM188.734 54.256C188.734 55.816 187.654 56.926 186.084 56.926C184.504 56.926 183.414 55.816 183.414 54.256C183.414 52.696 184.504 51.586 186.084 51.586C187.654 51.586 188.734 52.696 188.734 54.256ZM188.024 54.256C188.024 53.156 187.224 52.366 186.074 52.366C184.914 52.366 184.114 53.156 184.114 54.256C184.114 55.356 184.914 56.146 186.074 56.146C187.224 56.146 188.024 55.356 188.024 54.256ZM188.734 60.3777C188.744 61.2277 188.454 61.9277 187.954 62.4077L187.404 61.9777C187.784 61.5777 188.014 61.0477 188.014 60.4077C188.014 59.3177 187.224 58.5377 186.074 58.5377C184.924 58.5377 184.124 59.3177 184.124 60.4077C184.124 61.0977 184.364 61.6677 184.804 62.0377L184.324 62.4877C183.754 62.0177 183.414 61.2877 183.414 60.3777C183.414 58.8477 184.504 57.7677 186.074 57.7677C187.644 57.7677 188.734 58.8577 188.734 60.3777ZM183.444 66.8802L184.254 66.8802C183.684 66.4602 183.404 65.7902 183.404 64.9502C183.404 63.8602 184.104 63.1602 185.014 63.1602C185.934 63.1602 186.514 63.8902 186.524 65.1302L186.524 66.8602L186.834 66.8602C187.604 66.8602 188.064 66.3802 188.064 65.4502C188.064 64.8702 187.844 64.3302 187.464 63.7802L188.034 63.4502C188.484 64.1302 188.744 64.7002 188.744 65.6002C188.744 66.9002 188.054 67.6202 186.924 67.6302L183.444 67.6402L183.444 66.8802ZM184.084 65.1002C184.084 65.9902 184.534 66.6702 185.264 66.8702L185.894 66.8702L185.894 65.2302C185.894 64.3502 185.624 63.8902 185.044 63.8902C184.464 63.8902 184.084 64.3602 184.084 65.1002ZM183.444 70.2116L183.444 69.4316L190.864 69.4316L190.864 70.2116L183.444 70.2116ZM190.764 72.5448C190.764 72.8348 190.534 73.0548 190.224 73.0548C189.914 73.0548 189.684 72.8348 189.684 72.5448C189.684 72.2548 189.914 72.0348 190.224 72.0348C190.534 72.0348 190.764 72.2548 190.764 72.5448ZM183.444 72.9348L183.444 72.1648L188.714 72.1648L188.714 72.9348L183.444 72.9348ZM188.114 78.6409L184.124 75.3409L184.114 78.7209L183.434 78.7209L183.444 74.4009L184.034 74.4009L188.024 77.7009L188.034 74.4909L188.714 74.4909L188.704 78.6409L188.114 78.6409ZM183.444 83.2278L184.254 83.2278C183.684 82.8078 183.404 82.1378 183.404 81.2978C183.404 80.2078 184.104 79.5078 185.014 79.5078C185.934 79.5078 186.514 80.2378 186.524 81.4778L186.524 83.2078L186.834 83.2078C187.604 83.2078 188.064 82.7278 188.064 81.7978C188.064 81.2178 187.844 80.6778 187.464 80.1278L188.034 79.7978C188.484 80.4778 188.744 81.0478 188.744 81.9478C188.744 83.2478 188.054 83.9678 186.924 83.9778L183.444 83.9878L183.444 83.2278ZM184.084 81.4478C184.084 82.3378 184.534 83.0178 185.264 83.2178L185.894 83.2178L185.894 81.5778C185.894 80.6978 185.624 80.2378 185.044 80.2378C184.464 80.2378 184.084 80.7078 184.084 81.4478ZM184.434 88.2293L183.804 88.4493C183.554 88.0793 183.414 87.6793 183.404 87.2593C183.404 86.4893 183.864 85.9193 184.904 85.9193L187.914 85.9193L187.914 85.1593L188.544 85.1593L188.544 85.9193L189.934 85.9193L189.934 86.6893L188.544 86.6893L188.554 88.3593L187.914 88.3593L187.914 86.6893L185.044 86.6893C184.404 86.6893 184.164 86.9393 184.164 87.3893C184.164 87.6593 184.254 87.9393 184.434 88.2293ZM190.764 90.0058C190.764 90.2958 190.534 90.5158 190.224 90.5158C189.914 90.5158 189.684 90.2958 189.684 90.0058C189.684 89.7158 189.914 89.4958 190.224 89.4958C190.534 89.4958 190.764 89.7158 190.764 90.0058ZM183.444 90.3958L183.444 89.6258L188.714 89.6258L188.714 90.3958L183.444 90.3958ZM188.734 94.4318C188.734 95.9918 187.654 97.1018 186.084 97.1018C184.504 97.1018 183.414 95.9918 183.414 94.4318C183.414 92.8718 184.504 91.7618 186.084 91.7618C187.654 91.7618 188.734 92.8718 188.734 94.4318ZM188.024 94.4318C188.024 93.3318 187.224 92.5418 186.074 92.5418C184.914 92.5418 184.114 93.3318 184.114 94.4318C184.114 95.5318 184.914 96.3218 186.074 96.3218C187.224 96.3218 188.024 95.5318 188.024 94.4318ZM188.744 101.293C188.744 102.553 187.964 103.293 186.694 103.293L183.444 103.293L183.444 102.513L186.484 102.513C187.414 102.513 187.964 101.953 187.964 101.023C187.954 99.9834 187.274 99.3434 186.274 99.2534L183.444 99.2534L183.444 98.4734L188.714 98.4734L188.714 99.2534L187.554 99.2534C188.354 99.6234 188.734 100.333 188.744 101.293Z" fill="#807D7D"/>
<path d="M248.583 51.81L248.583 47.86L246.283 47.86L246.283 51.39L245.513 51.39L245.513 47.86L243.113 47.86L243.113 51.94L242.353 51.94L242.353 47.06L249.353 47.06L249.353 51.81L248.583 51.81ZM247.653 56.2837C247.653 57.5437 246.873 58.2837 245.603 58.2837L242.353 58.2837L242.353 57.5037L245.393 57.5037C246.323 57.5037 246.873 56.9437 246.873 56.0137C246.863 54.9737 246.183 54.3337 245.183 54.2437L242.353 54.2437L242.353 53.4637L247.623 53.4637L247.623 54.2437L246.463 54.2437C247.263 54.6137 247.643 55.3237 247.653 56.2837ZM247.623 64.6162L242.903 64.6162C241.363 64.6162 240.393 63.5662 240.393 61.9662C240.403 61.1362 240.673 60.4462 241.153 59.8062L241.753 60.1662C241.323 60.6862 241.093 61.2362 241.083 61.9362C241.083 63.0862 241.783 63.8362 242.883 63.8362L243.683 63.8362C242.983 63.4662 242.583 62.7862 242.583 61.8962C242.583 60.4762 243.633 59.4962 245.133 59.4962C246.603 59.4962 247.643 60.4662 247.653 61.8762C247.653 62.7762 247.253 63.4562 246.553 63.8362L247.623 63.8362L247.623 64.6162ZM243.243 62.0362C243.243 63.0862 244.023 63.8362 245.103 63.8362C246.203 63.8362 246.973 63.0862 246.973 62.0362C246.973 60.9762 246.193 60.2362 245.103 60.2262C244.023 60.2362 243.243 60.9762 243.243 62.0362ZM242.353 69.6536L243.163 69.6536C242.593 69.2336 242.313 68.5636 242.313 67.7236C242.313 66.6336 243.013 65.9336 243.923 65.9336C244.843 65.9336 245.423 66.6636 245.433 67.9036L245.433 69.6336L245.743 69.6336C246.513 69.6336 246.973 69.1536 246.973 68.2236C246.973 67.6436 246.753 67.1036 246.373 66.5536L246.943 66.2236C247.393 66.9036 247.653 67.4736 247.653 68.3736C247.653 69.6736 246.963 70.3936 245.833 70.4036L242.353 70.4136L242.353 69.6536ZM242.993 67.8736C242.993 68.7636 243.443 69.4436 244.173 69.6436L244.803 69.6436L244.803 68.0036C244.803 67.1236 244.533 66.6636 243.953 66.6636C243.373 66.6636 242.993 67.1336 242.993 67.8736ZM247.623 76.7451L242.903 76.7451C241.363 76.7451 240.393 75.6951 240.393 74.0951C240.403 73.2651 240.673 72.5751 241.153 71.9351L241.753 72.2951C241.323 72.8151 241.093 73.3651 241.083 74.0651C241.083 75.2151 241.783 75.9651 242.883 75.9651L243.683 75.9651C242.983 75.5951 242.583 74.9151 242.583 74.0251C242.583 72.6051 243.633 71.6251 245.133 71.6251C246.603 71.6251 247.643 72.5951 247.653 74.0051C247.653 74.9051 247.253 75.5851 246.553 75.9651L247.623 75.9651L247.623 76.7451ZM243.243 74.1651C243.243 75.2151 244.023 75.9651 245.103 75.9651C246.203 75.9651 246.973 75.2151 246.973 74.1651C246.973 73.1051 246.193 72.3651 245.103 72.3551C244.023 72.3651 243.243 73.1051 243.243 74.1651ZM247.643 80.5925C247.653 82.2925 246.473 83.1325 244.683 83.0525L244.683 78.7525C243.653 78.8925 243.003 79.6425 243.003 80.6625C243.003 81.3125 243.233 81.8825 243.663 82.2925L243.203 82.7225C242.643 82.2225 242.323 81.4825 242.323 80.6025C242.323 79.0525 243.413 77.9825 244.983 77.9825C246.553 77.9825 247.643 79.0625 247.643 80.5925ZM245.323 78.7525L245.323 82.3525C246.333 82.3025 246.973 81.6225 246.973 80.5925C246.973 79.5925 246.323 78.8725 245.323 78.7525ZM247.653 91.1414C247.653 92.3714 246.873 93.1014 245.603 93.1014L242.353 93.1014L242.353 92.3214L245.393 92.3214C246.333 92.3214 246.883 91.7714 246.883 90.8614C246.853 89.7714 246.073 89.1414 244.943 89.1414L242.353 89.1414L242.353 88.3514L245.393 88.3514C246.333 88.3514 246.883 87.8114 246.883 86.8914C246.853 85.8114 246.073 85.1614 244.943 85.1614L242.353 85.1614L242.353 84.3914L247.623 84.3914L247.623 85.1614L246.433 85.1614C247.253 85.5114 247.643 86.2214 247.653 87.1714C247.653 88.1614 247.143 88.8414 246.273 89.0614C247.203 89.3914 247.643 90.1314 247.653 91.1414ZM247.643 96.9109C247.653 98.6109 246.473 99.4509 244.683 99.3709L244.683 95.0709C243.653 95.2109 243.003 95.9609 243.003 96.9809C243.003 97.6309 243.233 98.2009 243.663 98.6109L243.203 99.0409C242.643 98.5409 242.323 97.8009 242.323 96.9209C242.323 95.3709 243.413 94.3009 244.983 94.3009C246.553 94.3009 247.643 95.3809 247.643 96.9109ZM245.323 95.0709L245.323 98.6709C246.333 98.6209 246.973 97.9409 246.973 96.9109C246.973 95.9109 246.323 95.1909 245.323 95.0709ZM247.653 103.53C247.653 104.79 246.873 105.53 245.603 105.53L242.353 105.53L242.353 104.75L245.393 104.75C246.323 104.75 246.873 104.19 246.873 103.26C246.863 102.22 246.183 101.58 245.183 101.49L242.353 101.49L242.353 100.71L247.623 100.71L247.623 101.49L246.463 101.49C247.263 101.86 247.643 102.57 247.653 103.53ZM243.343 109.772L242.713 109.992C242.463 109.622 242.323 109.222 242.313 108.802C242.313 108.032 242.773 107.462 243.813 107.462L246.823 107.462L246.823 106.702L247.453 106.702L247.453 107.462L248.843 107.462L248.843 108.232L247.453 108.232L247.463 109.902L246.823 109.902L246.823 108.232L243.953 108.232C243.313 108.232 243.073 108.482 243.073 108.932C243.073 109.202 243.163 109.482 243.343 109.772Z" fill="#807D7D"/>
<path d="M303.798 49.14C303.798 49.95 303.538 50.78 303.148 51.36L302.398 51.02C302.818 50.39 302.988 49.65 302.988 49.09C302.988 48.19 302.648 47.6 302.058 47.6C300.258 47.6 301.198 51.54 298.658 51.53C297.488 51.53 296.738 50.5 296.738 49C296.738 47.98 297.178 46.98 297.808 46.32L298.528 46.68C297.898 47.33 297.538 48.22 297.538 49.01C297.538 50.02 297.948 50.65 298.618 50.65C300.458 50.66 299.478 46.72 301.988 46.72C303.088 46.72 303.798 47.69 303.798 49.14ZM302.058 55.2033C302.058 56.7633 300.978 57.8733 299.408 57.8733C297.828 57.8733 296.738 56.7633 296.738 55.2033C296.738 53.6433 297.828 52.5333 299.408 52.5333C300.978 52.5333 302.058 53.6433 302.058 55.2033ZM301.348 55.2033C301.348 54.1033 300.548 53.3133 299.398 53.3133C298.238 53.3133 297.438 54.1033 297.438 55.2033C297.438 56.3033 298.238 57.0933 299.398 57.0933C300.548 57.0933 301.348 56.3033 301.348 55.2033ZM302.058 61.3249C302.068 62.1749 301.778 62.8749 301.278 63.3549L300.728 62.9249C301.108 62.5249 301.338 61.9949 301.338 61.3549C301.338 60.2649 300.548 59.4849 299.398 59.4849C298.248 59.4849 297.448 60.2649 297.448 61.3549C297.448 62.0449 297.688 62.6149 298.128 62.9849L297.648 63.4349C297.078 62.9649 296.738 62.2349 296.738 61.3249C296.738 59.7949 297.828 58.7149 299.398 58.7149C300.968 58.7149 302.058 59.8049 302.058 61.3249ZM304.088 65.2304C304.088 65.5204 303.858 65.7404 303.548 65.7404C303.238 65.7404 303.008 65.5204 303.008 65.2304C303.008 64.9404 303.238 64.7204 303.548 64.7204C303.858 64.7204 304.088 64.9404 304.088 65.2304ZM296.768 65.6204L296.768 64.8504L302.038 64.8504L302.038 65.6204L296.768 65.6204ZM296.768 70.7864L297.578 70.7864C297.008 70.3664 296.728 69.6964 296.728 68.8564C296.728 67.7664 297.428 67.0664 298.338 67.0664C299.258 67.0664 299.838 67.7964 299.848 69.0364L299.848 70.7664L300.158 70.7664C300.928 70.7664 301.388 70.2864 301.388 69.3564C301.388 68.7764 301.168 68.2364 300.788 67.6864L301.358 67.3564C301.808 68.0364 302.068 68.6064 302.068 69.5064C302.068 70.8064 301.378 71.5264 300.248 71.5364L296.768 71.5464L296.768 70.7864ZM297.408 69.0064C297.408 69.8964 297.858 70.5764 298.588 70.7764L299.218 70.7764L299.218 69.1364C299.218 68.2564 298.948 67.7964 298.368 67.7964C297.788 67.7964 297.408 68.2664 297.408 69.0064ZM296.768 74.1179L296.768 73.3379L304.188 73.3379L304.188 74.1179L296.768 74.1179ZM296.768 86.0052L296.768 85.2652L302.538 85.2552L297.508 82.7052L297.508 82.2252L302.538 79.6852L296.768 79.6852L296.768 78.9252L303.768 78.9252L303.768 79.9152L298.728 82.4752L303.768 85.0252L303.768 86.0052L296.768 86.0052ZM302.058 90.1042C302.068 91.8042 300.888 92.6442 299.098 92.5642L299.098 88.2642C298.068 88.4042 297.418 89.1542 297.418 90.1742C297.418 90.8242 297.648 91.3942 298.078 91.8042L297.618 92.2342C297.058 91.7342 296.738 90.9942 296.738 90.1142C296.738 88.5642 297.828 87.4942 299.398 87.4942C300.968 87.4942 302.058 88.5742 302.058 90.1042ZM299.738 88.2642L299.738 91.8642C300.748 91.8142 301.388 91.1342 301.388 90.1042C301.388 89.1042 300.738 88.3842 299.738 88.2642ZM304.188 98.7431L296.768 98.7431L296.768 97.9631L297.898 97.9631C297.158 97.5731 296.728 96.8531 296.728 95.9131C296.728 94.4131 297.838 93.3731 299.408 93.3731C300.988 93.3731 302.078 94.4131 302.078 95.9031C302.078 96.8431 301.648 97.5731 300.898 97.9631L304.188 97.9631L304.188 98.7431ZM297.428 96.0631C297.428 97.1731 298.248 97.9631 299.388 97.9631C300.538 97.9631 301.368 97.1731 301.368 96.0631C301.368 94.9431 300.538 94.1531 299.388 94.1531C298.248 94.1531 297.428 94.9431 297.428 96.0631ZM304.088 101.07C304.088 101.36 303.858 101.58 303.548 101.58C303.238 101.58 303.008 101.36 303.008 101.07C303.008 100.78 303.238 100.56 303.548 100.56C303.858 100.56 304.088 100.78 304.088 101.07ZM296.768 101.46L296.768 100.69L302.038 100.69L302.038 101.46L296.768 101.46ZM296.768 106.626L297.578 106.626C297.008 106.206 296.728 105.536 296.728 104.696C296.728 103.606 297.428 102.906 298.338 102.906C299.258 102.906 299.838 103.636 299.848 104.876L299.848 106.606L300.158 106.606C300.928 106.606 301.388 106.126 301.388 105.196C301.388 104.616 301.168 104.076 300.788 103.526L301.358 103.196C301.808 103.876 302.068 104.446 302.068 105.346C302.068 106.646 301.378 107.366 300.248 107.376L296.768 107.386L296.768 106.626ZM297.408 104.846C297.408 105.736 297.858 106.416 298.588 106.616L299.218 106.616L299.218 104.976C299.218 104.096 298.948 103.636 298.368 103.636C297.788 103.636 297.408 104.106 297.408 104.846Z" fill="#807D7D"/>
<defs>
<linearGradient id="paint0_linear_119_1502" x1="37.2973" y1="4.12364" x2="212.856" y2="166.426" gradientUnits="userSpaceOnUse">
<stop stop-color="#4190E5"/>
<stop offset="1" stop-color="#3636BF"/>
</linearGradient>
<linearGradient id="paint1_linear_119_1502" x1="15.7944" y1="14.353" x2="31.8967" y2="16.0457" gradientUnits="userSpaceOnUse">
<stop stop-color="#4190E5"/>
<stop offset="1" stop-color="#3636BF"/>
</linearGradient>
<linearGradient id="paint2_linear_119_1502" x1="71.2987" y1="14.353" x2="90.3349" y2="16.7294" gradientUnits="userSpaceOnUse">
<stop stop-color="#4190E5"/>
<stop offset="1" stop-color="#3636BF"/>
</linearGradient>
<linearGradient id="paint3_linear_119_1502" x1="126.761" y1="14.353" x2="145.797" y2="16.7294" gradientUnits="userSpaceOnUse">
<stop stop-color="#4190E5"/>
<stop offset="1" stop-color="#3636BF"/>
</linearGradient>
<linearGradient id="paint4_linear_119_1502" x1="182.307" y1="14.353" x2="196.433" y2="15.6523" gradientUnits="userSpaceOnUse">
<stop stop-color="#4190E5"/>
<stop offset="1" stop-color="#3636BF"/>
</linearGradient>
<linearGradient id="paint5_linear_119_1502" x1="239.558" y1="14.353" x2="256.643" y2="16.2613" gradientUnits="userSpaceOnUse">
<stop stop-color="#4190E5"/>
<stop offset="1" stop-color="#3636BF"/>
</linearGradient>
<linearGradient id="paint6_linear_119_1502" x1="294.857" y1="14.353" x2="310.959" y2="16.0457" gradientUnits="userSpaceOnUse">
<stop stop-color="#4190E5"/>
<stop offset="1" stop-color="#3636BF"/>
</linearGradient>
</defs>
</svg>
