<svg width="1854" height="111" viewBox="0 0 1854 111" fill="none" xmlns="http://www.w3.org/2000/svg">
<g opacity="0.2">
<mask id="path-1-outside-1_110_3" maskUnits="userSpaceOnUse" x="-2" y="-1" width="1857" height="113" fill="black">
<rect fill="white" x="-2" y="-1" width="1857" height="113"/>
<path d="M43.998 0.300579C56.6377 0.300579 69.5894 4.35774 78.64 10.4435L73.3344 22.1468C63.5036 15.593 51.9563 12.9402 43.2178 12.9402C29.1738 12.9402 19.9672 18.2457 19.9672 27.4524C19.9672 55.5404 81.4488 40.8722 81.2927 80.5076C81.2927 98.7648 65.2201 110.468 41.8134 110.468C25.8969 110.468 10.2924 103.602 -0.00656959 93.7714L5.61104 82.5361C15.7539 92.3669 29.6419 97.9846 41.9695 97.9846C57.73 97.9846 67.5608 91.5867 67.5608 81.1317C67.7168 52.4195 6.23522 67.7119 6.23522 28.5447C6.23522 11.3797 21.3716 0.300579 43.998 0.300579ZM153.593 0.456622C168.573 0.456622 183.085 6.54236 193.54 16.3732L186.05 25.8919C177.623 17.3094 165.764 12.16 153.749 12.16C129.094 12.16 109.276 31.1974 109.276 55.2283C109.276 79.1031 129.094 98.2966 153.749 98.2966C165.764 98.2966 177.467 93.3032 186.05 85.1889L193.696 93.7714C182.929 103.914 168.261 110.624 153.124 110.624C121.603 110.624 96.6363 86.1252 96.6363 55.2283C96.6363 24.6435 121.916 0.456622 153.593 0.456622ZM284.868 82.3801H225.259L213.087 110H199.823L248.821 0.768707H261.773L310.615 110H297.039L284.868 82.3801ZM279.562 70.3646L254.907 14.9688L230.564 70.3646H279.562ZM340.228 98.1406H388.134V110H327.745V0.768707H340.228V98.1406ZM482.479 12.7842H420.841V48.6744H475.925V60.6899H420.841V98.1406H484.507V110H408.358V0.768707H482.479V12.7842ZM542.457 0.300579C555.097 0.300579 568.049 4.35774 577.099 10.4435L571.794 22.1468C561.963 15.593 550.415 12.9402 541.677 12.9402C527.633 12.9402 518.426 18.2457 518.426 27.4524C518.426 55.5404 579.908 40.8722 579.752 80.5076C579.752 98.7648 563.679 110.468 540.273 110.468C524.356 110.468 508.752 103.602 498.453 93.7714L504.07 82.5361C514.213 92.3669 528.101 97.9846 540.429 97.9846C556.189 97.9846 566.02 91.5867 566.02 81.1317C566.176 52.4195 504.694 67.7119 504.694 28.5447C504.694 11.3797 519.831 0.300579 542.457 0.300579ZM680.673 0.300579C693.312 0.300579 706.264 4.35774 715.315 10.4435L710.009 22.1468C700.178 15.593 688.631 12.9402 679.892 12.9402C665.848 12.9402 656.642 18.2457 656.642 27.4524C656.642 55.5404 718.123 40.8722 717.967 80.5076C717.967 98.7648 701.895 110.468 678.488 110.468C662.571 110.468 646.967 103.602 636.668 93.7714L642.286 82.5361C652.429 92.3669 666.316 97.9846 678.644 97.9846C694.405 97.9846 704.235 91.5867 704.235 81.1317C704.391 52.4195 642.91 67.7119 642.91 28.5447C642.91 11.3797 658.046 0.300579 680.673 0.300579ZM790.267 0.456622C805.247 0.456622 819.76 6.54236 830.215 16.3732L822.724 25.8919C814.298 17.3094 802.439 12.16 790.423 12.16C765.768 12.16 745.95 31.1974 745.95 55.2283C745.95 79.1031 765.768 98.2966 790.423 98.2966C802.439 98.2966 814.142 93.3032 822.724 85.1889L830.371 93.7714C819.604 103.914 804.935 110.624 789.799 110.624C758.278 110.624 733.311 86.1252 733.311 55.2283C733.311 24.6435 758.59 0.456622 790.267 0.456622ZM921.542 82.3801H861.933L849.762 110H836.498L885.496 0.768707H898.448L947.29 110H933.714L921.542 82.3801ZM916.237 70.3646L891.582 14.9688L867.239 70.3646H916.237ZM976.903 98.1406H1024.81V110H964.419V0.768707H976.903V98.1406ZM1119.15 12.7842H1057.52V48.6744H1112.6V60.6899H1057.52V98.1406H1121.18V110H1045.03V0.768707H1119.15V12.7842ZM1179.13 0.300579C1191.77 0.300579 1204.72 4.35774 1213.77 10.4435L1208.47 22.1468C1198.64 15.593 1187.09 12.9402 1178.35 12.9402C1164.31 12.9402 1155.1 18.2457 1155.1 27.4524C1155.1 55.5404 1216.58 40.8722 1216.43 80.5076C1216.43 98.7648 1200.35 110.468 1176.95 110.468C1161.03 110.468 1145.43 103.602 1135.13 93.7714L1140.74 82.5361C1150.89 92.3669 1164.78 97.9846 1177.1 97.9846C1192.86 97.9846 1202.69 91.5867 1202.69 81.1317C1202.85 52.4195 1141.37 67.7119 1141.37 28.5447C1141.37 11.3797 1156.51 0.300579 1179.13 0.300579ZM1317.35 0.300579C1329.99 0.300579 1342.94 4.35774 1351.99 10.4435L1346.68 22.1468C1336.85 15.593 1325.31 12.9402 1316.57 12.9402C1302.52 12.9402 1293.32 18.2457 1293.32 27.4524C1293.32 55.5404 1354.8 40.8722 1354.64 80.5076C1354.64 98.7648 1338.57 110.468 1315.16 110.468C1299.25 110.468 1283.64 103.602 1273.34 93.7714L1278.96 82.5361C1289.1 92.3669 1302.99 97.9846 1315.32 97.9846C1331.08 97.9846 1340.91 91.5867 1340.91 81.1317C1341.07 52.4195 1279.58 67.7119 1279.58 28.5447C1279.58 11.3797 1294.72 0.300579 1317.35 0.300579ZM1426.94 0.456622C1441.92 0.456622 1456.43 6.54236 1466.89 16.3732L1459.4 25.8919C1450.97 17.3094 1439.11 12.16 1427.1 12.16C1402.44 12.16 1382.63 31.1974 1382.63 55.2283C1382.63 79.1031 1402.44 98.2966 1427.1 98.2966C1439.11 98.2966 1450.82 93.3032 1459.4 85.1889L1467.05 93.7714C1456.28 103.914 1441.61 110.624 1426.47 110.624C1394.95 110.624 1369.99 86.1252 1369.99 55.2283C1369.99 24.6435 1395.26 0.456622 1426.94 0.456622ZM1558.22 82.3801H1498.61L1486.44 110H1473.17L1522.17 0.768707H1535.12L1583.96 110H1570.39L1558.22 82.3801ZM1552.91 70.3646L1528.26 14.9688L1503.91 70.3646H1552.91ZM1613.58 98.1406H1661.48V110H1601.09V0.768707H1613.58V98.1406ZM1755.83 12.7842H1694.19V48.6744H1749.27V60.6899H1694.19V98.1406H1757.86V110H1681.71V0.768707H1755.83V12.7842ZM1815.81 0.300579C1828.45 0.300579 1841.4 4.35774 1850.45 10.4435L1845.14 22.1468C1835.31 15.593 1823.76 12.9402 1815.03 12.9402C1800.98 12.9402 1791.78 18.2457 1791.78 27.4524C1791.78 55.5404 1853.26 40.8722 1853.1 80.5076C1853.1 98.7648 1837.03 110.468 1813.62 110.468C1797.71 110.468 1782.1 103.602 1771.8 93.7714L1777.42 82.5361C1787.56 92.3669 1801.45 97.9846 1813.78 97.9846C1829.54 97.9846 1839.37 91.5867 1839.37 81.1317C1839.53 52.4195 1778.04 67.7119 1778.04 28.5447C1778.04 11.3797 1793.18 0.300579 1815.81 0.300579Z"/>
</mask>
<path d="M78.64 10.4435L79.5507 10.8564L79.9001 10.0858L79.198 9.61364L78.64 10.4435ZM73.3344 22.1468L72.7797 22.9789L73.7592 23.6319L74.2452 22.5597L73.3344 22.1468ZM81.2927 80.5076L80.2927 80.5036V80.5076H81.2927ZM-0.00656959 93.7714L-0.900997 93.3241L-1.2313 93.9847L-0.697045 94.4947L-0.00656959 93.7714ZM5.61104 82.5361L6.30701 81.8181L5.32698 80.8682L4.71661 82.0889L5.61104 82.5361ZM67.5608 81.1317L66.5608 81.1263V81.1317H67.5608ZM43.998 1.30058C56.4474 1.30058 69.2032 5.30314 78.082 11.2733L79.198 9.61364C69.9755 3.41233 56.8279 -0.699421 43.998 -0.699421V1.30058ZM77.7292 10.0306L72.4237 21.7339L74.2452 22.5597L79.5507 10.8564L77.7292 10.0306ZM73.8891 21.3148C63.8752 14.6389 52.1298 11.9402 43.2178 11.9402V13.9402C51.7828 13.9402 63.132 16.5471 72.7797 22.9789L73.8891 21.3148ZM43.2178 11.9402C36.0904 11.9402 30.0746 13.2833 25.8049 15.8903C21.4933 18.5228 18.9672 22.4529 18.9672 27.4524H20.9672C20.9672 23.2452 23.0443 19.9192 26.8471 17.5973C30.6917 15.2498 36.3012 13.9402 43.2178 13.9402V11.9402ZM18.9672 27.4524C18.9672 31.1612 19.9869 34.2086 21.7936 36.7501C23.5894 39.2763 26.1258 41.2514 29.0864 42.8927C34.9642 46.1513 42.7937 48.2297 50.3901 50.6042C58.0698 53.0047 65.5704 55.7196 71.1481 60.2244C76.6615 64.6772 80.3305 70.9079 80.2927 80.5036L82.2927 80.5115C82.333 70.2895 78.3753 63.4905 72.4047 58.6684C66.4985 53.8983 58.658 51.0931 50.9868 48.6953C43.2323 46.2714 35.7012 44.2731 30.0561 41.1436C27.2552 39.5908 24.9896 37.7941 23.4237 35.5913C21.8687 33.404 20.9672 30.7656 20.9672 27.4524H18.9672ZM80.2927 80.5076C80.2927 89.3085 76.4333 96.5073 69.7306 101.534C63.0032 106.58 53.3619 109.468 41.8134 109.468V111.468C53.6716 111.468 63.77 108.505 70.9306 103.134C78.1159 97.7453 82.2927 89.9638 82.2927 80.5076H80.2927ZM41.8134 109.468C26.1658 109.468 10.8055 102.71 0.683906 93.048L-0.697045 94.4947C9.77921 104.495 25.6279 111.468 41.8134 111.468V109.468ZM0.887858 94.2186L6.50547 82.9833L4.71661 82.0889L-0.900997 93.3241L0.887858 94.2186ZM4.91507 83.2542C15.2318 93.2535 29.365 98.9846 41.9695 98.9846V96.9846C29.9189 96.9846 16.2761 91.4804 6.30701 81.8181L4.91507 83.2542ZM41.9695 98.9846C49.9663 98.9846 56.5782 97.3642 61.2241 94.3148C65.9094 91.2394 68.5608 86.724 68.5608 81.1317H66.5608C66.5608 85.9945 64.2968 89.9055 60.1266 92.6428C55.9169 95.406 49.7331 96.9846 41.9695 96.9846V98.9846ZM68.5608 81.1372C68.5813 77.3557 67.5828 74.251 65.7926 71.6658C64.0123 69.0948 61.4872 67.092 58.5332 65.4374C52.6689 62.153 44.8467 60.1099 37.2471 57.802C29.5637 55.4686 22.0535 52.8543 16.4568 48.4608C10.9273 44.1201 7.23522 38.0176 7.23522 28.5447H5.23522C5.23522 38.6554 9.22837 45.329 15.2218 50.034C21.148 54.6862 28.9985 57.3872 36.6659 59.7157C44.4172 62.0696 51.9362 64.0349 57.5558 67.1824C60.3438 68.7439 62.5963 70.5629 64.1484 72.8043C65.6906 75.0315 66.5793 77.7297 66.5608 81.1263L68.5608 81.1372ZM7.23522 28.5447C7.23522 20.2911 10.8594 13.5227 17.2283 8.78833C23.623 4.03471 32.8356 1.30058 43.998 1.30058V-0.699421C32.534 -0.699421 22.8652 2.10603 16.0351 7.18323C9.17923 12.2796 5.23522 19.6333 5.23522 28.5447H7.23522ZM193.54 16.3732L194.326 16.9916L194.892 16.2719L194.225 15.6447L193.54 16.3732ZM186.05 25.8919L185.336 26.5925L186.133 27.4037L186.836 26.5103L186.05 25.8919ZM186.05 85.1889L186.797 84.5237L186.111 83.7546L185.363 84.4622L186.05 85.1889ZM193.696 93.7714L194.382 94.4992L195.09 93.8323L194.443 93.1061L193.696 93.7714ZM153.593 1.45662C168.309 1.45662 182.579 7.43869 192.855 17.1017L194.225 15.6447C183.592 5.64603 168.837 -0.543378 153.593 -0.543378V1.45662ZM192.754 15.7548L185.264 25.2735L186.836 26.5103L194.326 16.9916L192.754 15.7548ZM186.763 25.1913C178.156 16.4244 166.042 11.16 153.749 11.16V13.16C165.486 13.16 177.091 18.1945 185.336 26.5925L186.763 25.1913ZM153.749 11.16C128.574 11.16 108.276 30.6128 108.276 55.2283H110.276C110.276 31.782 129.613 13.16 153.749 13.16V11.16ZM108.276 55.2283C108.276 79.6854 128.572 99.2966 153.749 99.2966V97.2966C129.615 97.2966 110.276 78.5209 110.276 55.2283H108.276ZM153.749 99.2966C166.036 99.2966 177.981 94.1938 186.737 85.9155L185.363 84.4622C176.954 92.4126 165.492 97.2966 153.749 97.2966V99.2966ZM185.303 85.8541L192.949 94.4366L194.443 93.1061L186.797 84.5237L185.303 85.8541ZM193.01 93.0435C182.401 103.037 167.971 109.624 153.124 109.624V111.624C168.551 111.624 183.457 104.791 194.382 94.4992L193.01 93.0435ZM153.124 109.624C122.137 109.624 97.6363 85.5547 97.6363 55.2283H95.6363C95.6363 86.6956 121.069 111.624 153.124 111.624V109.624ZM97.6363 55.2283C97.6363 25.2338 122.429 1.45662 153.593 1.45662V-0.543378C121.402 -0.543378 95.6363 24.0533 95.6363 55.2283H97.6363ZM284.868 82.3801L285.783 81.9768L285.52 81.3801H284.868V82.3801ZM225.259 82.3801V81.3801H224.606L224.343 81.9768L225.259 82.3801ZM213.087 110V111H213.739L214.002 110.403L213.087 110ZM199.823 110L198.911 109.591L198.279 111H199.823V110ZM248.821 0.768707V-0.231293H248.174L247.909 0.359427L248.821 0.768707ZM261.773 0.768707L262.686 0.360513L262.421 -0.231293H261.773V0.768707ZM310.615 110V111H312.158L311.528 109.592L310.615 110ZM297.039 110L296.124 110.403L296.387 111H297.039V110ZM279.562 70.3646V71.3646H281.102L280.476 69.958L279.562 70.3646ZM254.907 14.9688L255.821 14.5622L254.901 12.4964L253.992 14.5665L254.907 14.9688ZM230.564 70.3646L229.649 69.9623L229.032 71.3646H230.564V70.3646ZM284.868 81.3801H225.259V83.3801H284.868V81.3801ZM224.343 81.9768L212.172 109.597L214.002 110.403L226.174 82.7833L224.343 81.9768ZM213.087 109H199.823V111H213.087V109ZM200.736 110.409L249.734 1.17799L247.909 0.359427L198.911 109.591L200.736 110.409ZM248.821 1.76871H261.773V-0.231293H248.821V1.76871ZM260.86 1.1769L309.702 110.408L311.528 109.592L262.686 0.360513L260.86 1.1769ZM310.615 109H297.039V111H310.615V109ZM297.954 109.597L285.783 81.9768L283.953 82.7833L296.124 110.403L297.954 109.597ZM280.476 69.958L255.821 14.5622L253.993 15.3754L278.649 70.7713L280.476 69.958ZM253.992 14.5665L229.649 69.9623L231.48 70.767L255.823 15.3711L253.992 14.5665ZM230.564 71.3646H279.562V69.3646H230.564V71.3646ZM340.228 98.1406H339.228V99.1406H340.228V98.1406ZM388.134 98.1406H389.134V97.1406H388.134V98.1406ZM388.134 110V111H389.134V110H388.134ZM327.745 110H326.745V111H327.745V110ZM327.745 0.768707V-0.231293H326.745V0.768707H327.745ZM340.228 0.768707H341.228V-0.231293H340.228V0.768707ZM340.228 99.1406H388.134V97.1406H340.228V99.1406ZM387.134 98.1406V110H389.134V98.1406H387.134ZM388.134 109H327.745V111H388.134V109ZM328.745 110V0.768707H326.745V110H328.745ZM327.745 1.76871H340.228V-0.231293H327.745V1.76871ZM339.228 0.768707V98.1406H341.228V0.768707H339.228ZM482.479 12.7842V13.7842H483.479V12.7842H482.479ZM420.841 12.7842V11.7842H419.841V12.7842H420.841ZM420.841 48.6744H419.841V49.6744H420.841V48.6744ZM475.925 48.6744H476.925V47.6744H475.925V48.6744ZM475.925 60.6899V61.6899H476.925V60.6899H475.925ZM420.841 60.6899V59.6899H419.841V60.6899H420.841ZM420.841 98.1406H419.841V99.1406H420.841V98.1406ZM484.507 98.1406H485.507V97.1406H484.507V98.1406ZM484.507 110V111H485.507V110H484.507ZM408.358 110H407.358V111H408.358V110ZM408.358 0.768707V-0.231293H407.358V0.768707H408.358ZM482.479 0.768707H483.479V-0.231293H482.479V0.768707ZM482.479 11.7842H420.841V13.7842H482.479V11.7842ZM419.841 12.7842V48.6744H421.841V12.7842H419.841ZM420.841 49.6744H475.925V47.6744H420.841V49.6744ZM474.925 48.6744V60.6899H476.925V48.6744H474.925ZM475.925 59.6899H420.841V61.6899H475.925V59.6899ZM419.841 60.6899V98.1406H421.841V60.6899H419.841ZM420.841 99.1406H484.507V97.1406H420.841V99.1406ZM483.507 98.1406V110H485.507V98.1406H483.507ZM484.507 109H408.358V111H484.507V109ZM409.358 110V0.768707H407.358V110H409.358ZM408.358 1.76871H482.479V-0.231293H408.358V1.76871ZM481.479 0.768707V12.7842H483.479V0.768707H481.479ZM577.099 10.4435L578.01 10.8564L578.359 10.0858L577.657 9.61364L577.099 10.4435ZM571.794 22.1468L571.239 22.9789L572.218 23.6319L572.704 22.5597L571.794 22.1468ZM579.752 80.5076L578.752 80.5036V80.5076H579.752ZM498.453 93.7714L497.558 93.3241L497.228 93.9847L497.762 94.4947L498.453 93.7714ZM504.07 82.5361L504.766 81.8181L503.786 80.8682L503.176 82.0889L504.07 82.5361ZM566.02 81.1317L565.02 81.1263V81.1317H566.02ZM542.457 1.30058C554.907 1.30058 567.662 5.30314 576.541 11.2733L577.657 9.61364C568.435 3.41233 555.287 -0.699421 542.457 -0.699421V1.30058ZM576.188 10.0306L570.883 21.7339L572.704 22.5597L578.01 10.8564L576.188 10.0306ZM572.348 21.3148C562.334 14.6389 550.589 11.9402 541.677 11.9402V13.9402C550.242 13.9402 561.591 16.5471 571.239 22.9789L572.348 21.3148ZM541.677 11.9402C534.55 11.9402 528.534 13.2833 524.264 15.8903C519.952 18.5228 517.426 22.4529 517.426 27.4524H519.426C519.426 23.2452 521.503 19.9192 525.306 17.5973C529.151 15.2498 534.76 13.9402 541.677 13.9402V11.9402ZM517.426 27.4524C517.426 31.1612 518.446 34.2086 520.253 36.7501C522.049 39.2763 524.585 41.2514 527.546 42.8927C533.423 46.1513 541.253 48.2297 548.849 50.6042C556.529 53.0047 564.03 55.7196 569.607 60.2244C575.121 64.6772 578.79 70.9079 578.752 80.5036L580.752 80.5115C580.792 70.2895 576.834 63.4905 570.864 58.6684C564.958 53.8983 557.117 51.0931 549.446 48.6953C541.691 46.2714 534.16 44.2731 528.515 41.1436C525.714 39.5908 523.449 37.7941 521.883 35.5913C520.328 33.404 519.426 30.7656 519.426 27.4524H517.426ZM578.752 80.5076C578.752 89.3085 574.892 96.5073 568.19 101.534C561.462 106.58 551.821 109.468 540.273 109.468V111.468C552.131 111.468 562.229 108.505 569.39 103.134C576.575 97.7453 580.752 89.9638 580.752 80.5076H578.752ZM540.273 109.468C524.625 109.468 509.265 102.71 499.143 93.048L497.762 94.4947C508.238 104.495 524.087 111.468 540.273 111.468V109.468ZM499.347 94.2186L504.965 82.9833L503.176 82.0889L497.558 93.3241L499.347 94.2186ZM503.374 83.2542C513.691 93.2535 527.824 98.9846 540.429 98.9846V96.9846C528.378 96.9846 514.735 91.4804 504.766 81.8181L503.374 83.2542ZM540.429 98.9846C548.425 98.9846 555.037 97.3642 559.683 94.3148C564.369 91.2394 567.02 86.724 567.02 81.1317H565.02C565.02 85.9945 562.756 89.9055 558.586 92.6428C554.376 95.406 548.192 96.9846 540.429 96.9846V98.9846ZM567.02 81.1372C567.04 77.3557 566.042 74.251 564.252 71.6658C562.471 69.0948 559.946 67.092 556.992 65.4374C551.128 62.153 543.306 60.1099 535.706 57.802C528.023 55.4686 520.513 52.8543 514.916 48.4608C509.386 44.1201 505.694 38.0176 505.694 28.5447H503.694C503.694 38.6554 507.688 45.329 513.681 50.034C519.607 54.6862 527.458 57.3872 535.125 59.7157C542.876 62.0696 550.395 64.0349 556.015 67.1824C558.803 68.7439 561.055 70.5629 562.608 72.8043C564.15 75.0315 565.038 77.7297 565.02 81.1263L567.02 81.1372ZM505.694 28.5447C505.694 20.2911 509.319 13.5227 515.687 8.78833C522.082 4.03471 531.295 1.30058 542.457 1.30058V-0.699421C530.993 -0.699421 521.324 2.10603 514.494 7.18323C507.638 12.2796 503.694 19.6333 503.694 28.5447H505.694ZM715.315 10.4435L716.225 10.8564L716.575 10.0858L715.873 9.61364L715.315 10.4435ZM710.009 22.1468L709.454 22.9789L710.434 23.6319L710.92 22.5597L710.009 22.1468ZM717.967 80.5076L716.967 80.5036V80.5076H717.967ZM636.668 93.7714L635.774 93.3241L635.443 93.9847L635.978 94.4947L636.668 93.7714ZM642.286 82.5361L642.982 81.8181L642.002 80.8682L641.391 82.0889L642.286 82.5361ZM704.235 81.1317L703.235 81.1263V81.1317H704.235ZM680.673 1.30058C693.122 1.30058 705.878 5.30314 714.757 11.2733L715.873 9.61364C706.65 3.41233 693.502 -0.699421 680.673 -0.699421V1.30058ZM714.404 10.0306L709.098 21.7339L710.92 22.5597L716.225 10.8564L714.404 10.0306ZM710.564 21.3148C700.55 14.6389 688.804 11.9402 679.892 11.9402V13.9402C688.457 13.9402 699.807 16.5471 709.454 22.9789L710.564 21.3148ZM679.892 11.9402C672.765 11.9402 666.749 13.2833 662.479 15.8903C658.168 18.5228 655.642 22.4529 655.642 27.4524H657.642C657.642 23.2452 659.719 19.9192 663.522 17.5973C667.366 15.2498 672.976 13.9402 679.892 13.9402V11.9402ZM655.642 27.4524C655.642 31.1612 656.661 34.2086 658.468 36.7501C660.264 39.2763 662.8 41.2514 665.761 42.8927C671.639 46.1513 679.468 48.2297 687.065 50.6042C694.744 53.0047 702.245 55.7196 707.823 60.2244C713.336 64.6772 717.005 70.9079 716.967 80.5036L718.967 80.5115C719.008 70.2895 715.05 63.4905 709.079 58.6684C703.173 53.8983 695.333 51.0931 687.661 48.6953C679.907 46.2714 672.376 44.2731 666.731 41.1436C663.93 39.5908 661.664 37.7941 660.098 35.5913C658.543 33.404 657.642 30.7656 657.642 27.4524H655.642ZM716.967 80.5076C716.967 89.3085 713.108 96.5073 706.405 101.534C699.678 106.58 690.036 109.468 678.488 109.468V111.468C690.346 111.468 700.445 108.505 707.605 103.134C714.79 97.7453 718.967 89.9638 718.967 80.5076H716.967ZM678.488 109.468C662.84 109.468 647.48 102.71 637.358 93.048L635.978 94.4947C646.454 104.495 662.302 111.468 678.488 111.468V109.468ZM637.562 94.2186L643.18 82.9833L641.391 82.0889L635.774 93.3241L637.562 94.2186ZM641.59 83.2542C651.906 93.2535 666.04 98.9846 678.644 98.9846V96.9846C666.593 96.9846 652.951 91.4804 642.982 81.8181L641.59 83.2542ZM678.644 98.9846C686.641 98.9846 693.253 97.3642 697.899 94.3148C702.584 91.2394 705.235 86.724 705.235 81.1317H703.235C703.235 85.9945 700.971 89.9055 696.801 92.6428C692.591 95.406 686.408 96.9846 678.644 96.9846V98.9846ZM705.235 81.1372C705.256 77.3557 704.257 74.251 702.467 71.6658C700.687 69.0948 698.162 67.092 695.208 65.4374C689.343 62.153 681.521 60.1099 673.922 57.802C666.238 55.4686 658.728 52.8543 653.131 48.4608C647.602 44.1201 643.91 38.0176 643.91 28.5447H641.91C641.91 38.6554 645.903 45.329 651.896 50.034C657.823 54.6862 665.673 57.3872 673.34 59.7157C681.092 62.0696 688.611 64.0349 694.23 67.1824C697.018 68.7439 699.271 70.5629 700.823 72.8043C702.365 75.0315 703.254 77.7297 703.235 81.1263L705.235 81.1372ZM643.91 28.5447C643.91 20.2911 647.534 13.5227 653.903 8.78833C660.298 4.03471 669.51 1.30058 680.673 1.30058V-0.699421C669.209 -0.699421 659.54 2.10603 652.71 7.18323C645.854 12.2796 641.91 19.6333 641.91 28.5447H643.91ZM830.215 16.3732L831 16.9916L831.567 16.2719L830.9 15.6447L830.215 16.3732ZM822.724 25.8919L822.011 26.5925L822.807 27.4037L823.51 26.5103L822.724 25.8919ZM822.724 85.1889L823.471 84.5237L822.786 83.7546L822.037 84.4622L822.724 85.1889ZM830.371 93.7714L831.056 94.4992L831.764 93.8323L831.117 93.1061L830.371 93.7714ZM790.267 1.45662C804.983 1.45662 819.253 7.43869 829.53 17.1017L830.9 15.6447C820.266 5.64603 805.511 -0.543378 790.267 -0.543378V1.45662ZM829.429 15.7548L821.939 25.2735L823.51 26.5103L831 16.9916L829.429 15.7548ZM823.438 25.1913C814.83 16.4244 802.717 11.16 790.423 11.16V13.16C802.161 13.16 813.766 18.1945 822.011 26.5925L823.438 25.1913ZM790.423 11.16C765.249 11.16 744.95 30.6128 744.95 55.2283H746.95C746.95 31.782 766.288 13.16 790.423 13.16V11.16ZM744.95 55.2283C744.95 79.6854 765.246 99.2966 790.423 99.2966V97.2966C766.29 97.2966 746.95 78.5209 746.95 55.2283H744.95ZM790.423 99.2966C802.71 99.2966 814.656 94.1938 823.411 85.9155L822.037 84.4622C813.628 92.4126 802.167 97.2966 790.423 97.2966V99.2966ZM821.978 85.8541L829.624 94.4366L831.117 93.1061L823.471 84.5237L821.978 85.8541ZM829.685 93.0435C819.076 103.037 804.645 109.624 789.799 109.624V111.624C805.226 111.624 820.131 104.791 831.056 94.4992L829.685 93.0435ZM789.799 109.624C758.812 109.624 734.311 85.5547 734.311 55.2283H732.311C732.311 86.6956 757.744 111.624 789.799 111.624V109.624ZM734.311 55.2283C734.311 25.2338 759.104 1.45662 790.267 1.45662V-0.543378C758.076 -0.543378 732.311 24.0533 732.311 55.2283H734.311ZM921.542 82.3801L922.457 81.9768L922.194 81.3801H921.542V82.3801ZM861.933 82.3801V81.3801H861.281L861.018 81.9768L861.933 82.3801ZM849.762 110V111H850.414L850.677 110.403L849.762 110ZM836.498 110L835.585 109.591L834.953 111H836.498V110ZM885.496 0.768707V-0.231293H884.848L884.583 0.359427L885.496 0.768707ZM898.448 0.768707L899.36 0.360513L899.096 -0.231293H898.448V0.768707ZM947.29 110V111H948.832L948.202 109.592L947.29 110ZM933.714 110L932.799 110.403L933.062 111H933.714V110ZM916.237 70.3646V71.3646H917.776L917.15 69.958L916.237 70.3646ZM891.582 14.9688L892.495 14.5622L891.576 12.4964L890.666 14.5665L891.582 14.9688ZM867.239 70.3646L866.323 69.9623L865.707 71.3646H867.239V70.3646ZM921.542 81.3801H861.933V83.3801H921.542V81.3801ZM861.018 81.9768L848.847 109.597L850.677 110.403L862.848 82.7833L861.018 81.9768ZM849.762 109H836.498V111H849.762V109ZM837.41 110.409L886.408 1.17799L884.583 0.359427L835.585 109.591L837.41 110.409ZM885.496 1.76871H898.448V-0.231293H885.496V1.76871ZM897.535 1.1769L946.377 110.408L948.202 109.592L899.36 0.360513L897.535 1.1769ZM947.29 109H933.714V111H947.29V109ZM934.629 109.597L922.457 81.9768L920.627 82.7833L932.799 110.403L934.629 109.597ZM917.15 69.958L892.495 14.5622L890.668 15.3754L915.323 70.7713L917.15 69.958ZM890.666 14.5665L866.323 69.9623L868.154 70.767L892.497 15.3711L890.666 14.5665ZM867.239 71.3646H916.237V69.3646H867.239V71.3646ZM976.903 98.1406H975.903V99.1406H976.903V98.1406ZM1024.81 98.1406H1025.81V97.1406H1024.81V98.1406ZM1024.81 110V111H1025.81V110H1024.81ZM964.419 110H963.419V111H964.419V110ZM964.419 0.768707V-0.231293H963.419V0.768707H964.419ZM976.903 0.768707H977.903V-0.231293H976.903V0.768707ZM976.903 99.1406H1024.81V97.1406H976.903V99.1406ZM1023.81 98.1406V110H1025.81V98.1406H1023.81ZM1024.81 109H964.419V111H1024.81V109ZM965.419 110V0.768707H963.419V110H965.419ZM964.419 1.76871H976.903V-0.231293H964.419V1.76871ZM975.903 0.768707V98.1406H977.903V0.768707H975.903ZM1119.15 12.7842V13.7842H1120.15V12.7842H1119.15ZM1057.52 12.7842V11.7842H1056.52V12.7842H1057.52ZM1057.52 48.6744H1056.52V49.6744H1057.52V48.6744ZM1112.6 48.6744H1113.6V47.6744H1112.6V48.6744ZM1112.6 60.6899V61.6899H1113.6V60.6899H1112.6ZM1057.52 60.6899V59.6899H1056.52V60.6899H1057.52ZM1057.52 98.1406H1056.52V99.1406H1057.52V98.1406ZM1121.18 98.1406H1122.18V97.1406H1121.18V98.1406ZM1121.18 110V111H1122.18V110H1121.18ZM1045.03 110H1044.03V111H1045.03V110ZM1045.03 0.768707V-0.231293H1044.03V0.768707H1045.03ZM1119.15 0.768707H1120.15V-0.231293H1119.15V0.768707ZM1119.15 11.7842H1057.52V13.7842H1119.15V11.7842ZM1056.52 12.7842V48.6744H1058.52V12.7842H1056.52ZM1057.52 49.6744H1112.6V47.6744H1057.52V49.6744ZM1111.6 48.6744V60.6899H1113.6V48.6744H1111.6ZM1112.6 59.6899H1057.52V61.6899H1112.6V59.6899ZM1056.52 60.6899V98.1406H1058.52V60.6899H1056.52ZM1057.52 99.1406H1121.18V97.1406H1057.52V99.1406ZM1120.18 98.1406V110H1122.18V98.1406H1120.18ZM1121.18 109H1045.03V111H1121.18V109ZM1046.03 110V0.768707H1044.03V110H1046.03ZM1045.03 1.76871H1119.15V-0.231293H1045.03V1.76871ZM1118.15 0.768707V12.7842H1120.15V0.768707H1118.15ZM1213.77 10.4435L1214.68 10.8564L1215.03 10.0858L1214.33 9.61364L1213.77 10.4435ZM1208.47 22.1468L1207.91 22.9789L1208.89 23.6319L1209.38 22.5597L1208.47 22.1468ZM1216.43 80.5076L1215.43 80.5036V80.5076H1216.43ZM1135.13 93.7714L1134.23 93.3241L1133.9 93.9847L1134.44 94.4947L1135.13 93.7714ZM1140.74 82.5361L1141.44 81.8181L1140.46 80.8682L1139.85 82.0889L1140.74 82.5361ZM1202.69 81.1317L1201.69 81.1263V81.1317H1202.69ZM1179.13 1.30058C1191.58 1.30058 1204.34 5.30314 1213.22 11.2733L1214.33 9.61364C1205.11 3.41233 1191.96 -0.699421 1179.13 -0.699421V1.30058ZM1212.86 10.0306L1207.56 21.7339L1209.38 22.5597L1214.68 10.8564L1212.86 10.0306ZM1209.02 21.3148C1199.01 14.6389 1187.26 11.9402 1178.35 11.9402V13.9402C1186.92 13.9402 1198.27 16.5471 1207.91 22.9789L1209.02 21.3148ZM1178.35 11.9402C1171.22 11.9402 1165.21 13.2833 1160.94 15.8903C1156.63 18.5228 1154.1 22.4529 1154.1 27.4524H1156.1C1156.1 23.2452 1158.18 19.9192 1161.98 17.5973C1165.83 15.2498 1171.43 13.9402 1178.35 13.9402V11.9402ZM1154.1 27.4524C1154.1 31.1612 1155.12 34.2086 1156.93 36.7501C1158.72 39.2763 1161.26 41.2514 1164.22 42.8927C1170.1 46.1513 1177.93 48.2297 1185.52 50.6042C1193.2 53.0047 1200.7 55.7196 1206.28 60.2244C1211.8 64.6772 1215.46 70.9079 1215.43 80.5036L1217.43 80.5115C1217.47 70.2895 1213.51 63.4905 1207.54 58.6684C1201.63 53.8983 1193.79 51.0931 1186.12 48.6953C1178.37 46.2714 1170.83 44.2731 1165.19 41.1436C1162.39 39.5908 1160.12 37.7941 1158.56 35.5913C1157 33.404 1156.1 30.7656 1156.1 27.4524H1154.1ZM1215.43 80.5076C1215.43 89.3085 1211.57 96.5073 1204.86 101.534C1198.14 106.58 1188.5 109.468 1176.95 109.468V111.468C1188.81 111.468 1198.9 108.505 1206.06 103.134C1213.25 97.7453 1217.43 89.9638 1217.43 80.5076H1215.43ZM1176.95 109.468C1161.3 109.468 1145.94 102.71 1135.82 93.048L1134.44 94.4947C1144.91 104.495 1160.76 111.468 1176.95 111.468V109.468ZM1136.02 94.2186L1141.64 82.9833L1139.85 82.0889L1134.23 93.3241L1136.02 94.2186ZM1140.05 83.2542C1150.37 93.2535 1164.5 98.9846 1177.1 98.9846V96.9846C1165.05 96.9846 1151.41 91.4804 1141.44 81.8181L1140.05 83.2542ZM1177.1 98.9846C1185.1 98.9846 1191.71 97.3642 1196.36 94.3148C1201.04 91.2394 1203.69 86.724 1203.69 81.1317H1201.69C1201.69 85.9945 1199.43 89.9055 1195.26 92.6428C1191.05 95.406 1184.87 96.9846 1177.1 96.9846V98.9846ZM1203.69 81.1372C1203.71 77.3557 1202.72 74.251 1200.93 71.6658C1199.15 69.0948 1196.62 67.092 1193.67 65.4374C1187.8 62.153 1179.98 60.1099 1172.38 57.802C1164.7 55.4686 1157.19 52.8543 1151.59 48.4608C1146.06 44.1201 1142.37 38.0176 1142.37 28.5447H1140.37C1140.37 38.6554 1144.36 45.329 1150.36 50.034C1156.28 54.6862 1164.13 57.3872 1171.8 59.7157C1179.55 62.0696 1187.07 64.0349 1192.69 67.1824C1195.48 68.7439 1197.73 70.5629 1199.28 72.8043C1200.82 75.0315 1201.71 77.7297 1201.69 81.1263L1203.69 81.1372ZM1142.37 28.5447C1142.37 20.2911 1145.99 13.5227 1152.36 8.78833C1158.76 4.03471 1167.97 1.30058 1179.13 1.30058V-0.699421C1167.67 -0.699421 1158 2.10603 1151.17 7.18323C1144.31 12.2796 1140.37 19.6333 1140.37 28.5447H1142.37ZM1351.99 10.4435L1352.9 10.8564L1353.25 10.0858L1352.55 9.61364L1351.99 10.4435ZM1346.68 22.1468L1346.13 22.9789L1347.11 23.6319L1347.59 22.5597L1346.68 22.1468ZM1354.64 80.5076L1353.64 80.5036V80.5076H1354.64ZM1273.34 93.7714L1272.45 93.3241L1272.12 93.9847L1272.65 94.4947L1273.34 93.7714ZM1278.96 82.5361L1279.66 81.8181L1278.68 80.8682L1278.07 82.0889L1278.96 82.5361ZM1340.91 81.1317L1339.91 81.1263V81.1317H1340.91ZM1317.35 1.30058C1329.8 1.30058 1342.55 5.30314 1351.43 11.2733L1352.55 9.61364C1343.32 3.41233 1330.18 -0.699421 1317.35 -0.699421V1.30058ZM1351.08 10.0306L1345.77 21.7339L1347.59 22.5597L1352.9 10.8564L1351.08 10.0306ZM1347.24 21.3148C1337.22 14.6389 1325.48 11.9402 1316.57 11.9402V13.9402C1325.13 13.9402 1336.48 16.5471 1346.13 22.9789L1347.24 21.3148ZM1316.57 11.9402C1309.44 11.9402 1303.42 13.2833 1299.15 15.8903C1294.84 18.5228 1292.32 22.4529 1292.32 27.4524H1294.32C1294.32 23.2452 1296.39 19.9192 1300.2 17.5973C1304.04 15.2498 1309.65 13.9402 1316.57 13.9402V11.9402ZM1292.32 27.4524C1292.32 31.1612 1293.34 34.2086 1295.14 36.7501C1296.94 39.2763 1299.47 41.2514 1302.44 42.8927C1308.31 46.1513 1316.14 48.2297 1323.74 50.6042C1331.42 53.0047 1338.92 55.7196 1344.5 60.2244C1350.01 64.6772 1353.68 70.9079 1353.64 80.5036L1355.64 80.5115C1355.68 70.2895 1351.72 63.4905 1345.75 58.6684C1339.85 53.8983 1332.01 51.0931 1324.34 48.6953C1316.58 46.2714 1309.05 44.2731 1303.41 41.1436C1300.6 39.5908 1298.34 37.7941 1296.77 35.5913C1295.22 33.404 1294.32 30.7656 1294.32 27.4524H1292.32ZM1353.64 80.5076C1353.64 89.3085 1349.78 96.5073 1343.08 101.534C1336.35 106.58 1326.71 109.468 1315.16 109.468V111.468C1327.02 111.468 1337.12 108.505 1344.28 103.134C1351.46 97.7453 1355.64 89.9638 1355.64 80.5076H1353.64ZM1315.16 109.468C1299.51 109.468 1284.15 102.71 1274.03 93.048L1272.65 94.4947C1283.13 104.495 1298.98 111.468 1315.16 111.468V109.468ZM1274.24 94.2186L1279.85 82.9833L1278.07 82.0889L1272.45 93.3241L1274.24 94.2186ZM1278.26 83.2542C1288.58 93.2535 1302.71 98.9846 1315.32 98.9846V96.9846C1303.27 96.9846 1289.63 91.4804 1279.66 81.8181L1278.26 83.2542ZM1315.32 98.9846C1323.32 98.9846 1329.93 97.3642 1334.57 94.3148C1339.26 91.2394 1341.91 86.724 1341.91 81.1317H1339.91C1339.91 85.9945 1337.65 89.9055 1333.48 92.6428C1329.27 95.406 1323.08 96.9846 1315.32 96.9846V98.9846ZM1341.91 81.1372C1341.93 77.3557 1340.93 74.251 1339.14 71.6658C1337.36 69.0948 1334.84 67.092 1331.88 65.4374C1326.02 62.153 1318.2 60.1099 1310.6 57.802C1302.91 55.4686 1295.4 52.8543 1289.81 48.4608C1284.28 44.1201 1280.58 38.0176 1280.58 28.5447H1278.58C1278.58 38.6554 1282.58 45.329 1288.57 50.034C1294.5 54.6862 1302.35 57.3872 1310.02 59.7157C1317.77 62.0696 1325.29 64.0349 1330.9 67.1824C1333.69 68.7439 1335.95 70.5629 1337.5 72.8043C1339.04 75.0315 1339.93 77.7297 1339.91 81.1263L1341.91 81.1372ZM1280.58 28.5447C1280.58 20.2911 1284.21 13.5227 1290.58 8.78833C1296.97 4.03471 1306.18 1.30058 1317.35 1.30058V-0.699421C1305.88 -0.699421 1296.21 2.10603 1289.38 7.18323C1282.53 12.2796 1278.58 19.6333 1278.58 28.5447H1280.58ZM1466.89 16.3732L1467.68 16.9916L1468.24 16.2719L1467.57 15.6447L1466.89 16.3732ZM1459.4 25.8919L1458.69 26.5925L1459.48 27.4037L1460.18 26.5103L1459.4 25.8919ZM1459.4 85.1889L1460.15 84.5237L1459.46 83.7546L1458.71 84.4622L1459.4 85.1889ZM1467.05 93.7714L1467.73 94.4992L1468.44 93.8323L1467.79 93.1061L1467.05 93.7714ZM1426.94 1.45662C1441.66 1.45662 1455.93 7.43869 1466.2 17.1017L1467.57 15.6447C1456.94 5.64603 1442.19 -0.543378 1426.94 -0.543378V1.45662ZM1466.1 15.7548L1458.61 25.2735L1460.18 26.5103L1467.68 16.9916L1466.1 15.7548ZM1460.11 25.1913C1451.51 16.4244 1439.39 11.16 1427.1 11.16V13.16C1438.84 13.16 1450.44 18.1945 1458.69 26.5925L1460.11 25.1913ZM1427.1 11.16C1401.92 11.16 1381.63 30.6128 1381.63 55.2283H1383.63C1383.63 31.782 1402.96 13.16 1427.1 13.16V11.16ZM1381.63 55.2283C1381.63 79.6854 1401.92 99.2966 1427.1 99.2966V97.2966C1402.96 97.2966 1383.63 78.5209 1383.63 55.2283H1381.63ZM1427.1 99.2966C1439.39 99.2966 1451.33 94.1938 1460.09 85.9155L1458.71 84.4622C1450.3 92.4126 1438.84 97.2966 1427.1 97.2966V99.2966ZM1458.65 85.8541L1466.3 94.4366L1467.79 93.1061L1460.15 84.5237L1458.65 85.8541ZM1466.36 93.0435C1455.75 103.037 1441.32 109.624 1426.47 109.624V111.624C1441.9 111.624 1456.81 104.791 1467.73 94.4992L1466.36 93.0435ZM1426.47 109.624C1395.49 109.624 1370.99 85.5547 1370.99 55.2283H1368.99C1368.99 86.6956 1394.42 111.624 1426.47 111.624V109.624ZM1370.99 55.2283C1370.99 25.2338 1395.78 1.45662 1426.94 1.45662V-0.543378C1394.75 -0.543378 1368.99 24.0533 1368.99 55.2283H1370.99ZM1558.22 82.3801L1559.13 81.9768L1558.87 81.3801H1558.22V82.3801ZM1498.61 82.3801V81.3801H1497.96L1497.69 81.9768L1498.61 82.3801ZM1486.44 110V111H1487.09L1487.35 110.403L1486.44 110ZM1473.17 110L1472.26 109.591L1471.63 111H1473.17V110ZM1522.17 0.768707V-0.231293H1521.52L1521.26 0.359427L1522.17 0.768707ZM1535.12 0.768707L1536.04 0.360513L1535.77 -0.231293H1535.12V0.768707ZM1583.96 110V111H1585.51L1584.88 109.592L1583.96 110ZM1570.39 110L1569.47 110.403L1569.74 111H1570.39V110ZM1552.91 70.3646V71.3646H1554.45L1553.82 69.958L1552.91 70.3646ZM1528.26 14.9688L1529.17 14.5622L1528.25 12.4964L1527.34 14.5665L1528.26 14.9688ZM1503.91 70.3646L1503 69.9623L1502.38 71.3646H1503.91V70.3646ZM1558.22 81.3801H1498.61V83.3801H1558.22V81.3801ZM1497.69 81.9768L1485.52 109.597L1487.35 110.403L1499.52 82.7833L1497.69 81.9768ZM1486.44 109H1473.17V111H1486.44V109ZM1474.08 110.409L1523.08 1.17799L1521.26 0.359427L1472.26 109.591L1474.08 110.409ZM1522.17 1.76871H1535.12V-0.231293H1522.17V1.76871ZM1534.21 1.1769L1583.05 110.408L1584.88 109.592L1536.04 0.360513L1534.21 1.1769ZM1583.96 109H1570.39V111H1583.96V109ZM1571.3 109.597L1559.13 81.9768L1557.3 82.7833L1569.47 110.403L1571.3 109.597ZM1553.82 69.958L1529.17 14.5622L1527.34 15.3754L1552 70.7713L1553.82 69.958ZM1527.34 14.5665L1503 69.9623L1504.83 70.767L1529.17 15.3711L1527.34 14.5665ZM1503.91 71.3646H1552.91V69.3646H1503.91V71.3646ZM1613.58 98.1406H1612.58V99.1406H1613.58V98.1406ZM1661.48 98.1406H1662.48V97.1406H1661.48V98.1406ZM1661.48 110V111H1662.48V110H1661.48ZM1601.09 110H1600.09V111H1601.09V110ZM1601.09 0.768707V-0.231293H1600.09V0.768707H1601.09ZM1613.58 0.768707H1614.58V-0.231293H1613.58V0.768707ZM1613.58 99.1406H1661.48V97.1406H1613.58V99.1406ZM1660.48 98.1406V110H1662.48V98.1406H1660.48ZM1661.48 109H1601.09V111H1661.48V109ZM1602.09 110V0.768707H1600.09V110H1602.09ZM1601.09 1.76871H1613.58V-0.231293H1601.09V1.76871ZM1612.58 0.768707V98.1406H1614.58V0.768707H1612.58ZM1755.83 12.7842V13.7842H1756.83V12.7842H1755.83ZM1694.19 12.7842V11.7842H1693.19V12.7842H1694.19ZM1694.19 48.6744H1693.19V49.6744H1694.19V48.6744ZM1749.27 48.6744H1750.27V47.6744H1749.27V48.6744ZM1749.27 60.6899V61.6899H1750.27V60.6899H1749.27ZM1694.19 60.6899V59.6899H1693.19V60.6899H1694.19ZM1694.19 98.1406H1693.19V99.1406H1694.19V98.1406ZM1757.86 98.1406H1758.86V97.1406H1757.86V98.1406ZM1757.86 110V111H1758.86V110H1757.86ZM1681.71 110H1680.71V111H1681.71V110ZM1681.71 0.768707V-0.231293H1680.71V0.768707H1681.71ZM1755.83 0.768707H1756.83V-0.231293H1755.83V0.768707ZM1755.83 11.7842H1694.19V13.7842H1755.83V11.7842ZM1693.19 12.7842V48.6744H1695.19V12.7842H1693.19ZM1694.19 49.6744H1749.27V47.6744H1694.19V49.6744ZM1748.27 48.6744V60.6899H1750.27V48.6744H1748.27ZM1749.27 59.6899H1694.19V61.6899H1749.27V59.6899ZM1693.19 60.6899V98.1406H1695.19V60.6899H1693.19ZM1694.19 99.1406H1757.86V97.1406H1694.19V99.1406ZM1756.86 98.1406V110H1758.86V98.1406H1756.86ZM1757.86 109H1681.71V111H1757.86V109ZM1682.71 110V0.768707H1680.71V110H1682.71ZM1681.71 1.76871H1755.83V-0.231293H1681.71V1.76871ZM1754.83 0.768707V12.7842H1756.83V0.768707H1754.83ZM1850.45 10.4435L1851.36 10.8564L1851.71 10.0858L1851.01 9.61364L1850.45 10.4435ZM1845.14 22.1468L1844.59 22.9789L1845.57 23.6319L1846.05 22.5597L1845.14 22.1468ZM1853.1 80.5076L1852.1 80.5036V80.5076H1853.1ZM1771.8 93.7714L1770.91 93.3241L1770.58 93.9847L1771.11 94.4947L1771.8 93.7714ZM1777.42 82.5361L1778.12 81.8181L1777.14 80.8682L1776.52 82.0889L1777.42 82.5361ZM1839.37 81.1317L1838.37 81.1263V81.1317H1839.37ZM1815.81 1.30058C1828.26 1.30058 1841.01 5.30314 1849.89 11.2733L1851.01 9.61364C1841.78 3.41233 1828.64 -0.699421 1815.81 -0.699421V1.30058ZM1849.54 10.0306L1844.23 21.7339L1846.05 22.5597L1851.36 10.8564L1849.54 10.0306ZM1845.7 21.3148C1835.68 14.6389 1823.94 11.9402 1815.03 11.9402V13.9402C1823.59 13.9402 1834.94 16.5471 1844.59 22.9789L1845.7 21.3148ZM1815.03 11.9402C1807.9 11.9402 1801.88 13.2833 1797.61 15.8903C1793.3 18.5228 1790.78 22.4529 1790.78 27.4524H1792.78C1792.78 23.2452 1794.85 19.9192 1798.66 17.5973C1802.5 15.2498 1808.11 13.9402 1815.03 13.9402V11.9402ZM1790.78 27.4524C1790.78 31.1612 1791.8 34.2086 1793.6 36.7501C1795.4 39.2763 1797.93 41.2514 1800.89 42.8927C1806.77 46.1513 1814.6 48.2297 1822.2 50.6042C1829.88 53.0047 1837.38 55.7196 1842.96 60.2244C1848.47 64.6772 1852.14 70.9079 1852.1 80.5036L1854.1 80.5115C1854.14 70.2895 1850.18 63.4905 1844.21 58.6684C1838.31 53.8983 1830.47 51.0931 1822.8 48.6953C1815.04 46.2714 1807.51 44.2731 1801.86 41.1436C1799.06 39.5908 1796.8 37.7941 1795.23 35.5913C1793.68 33.404 1792.78 30.7656 1792.78 27.4524H1790.78ZM1852.1 80.5076C1852.1 89.3085 1848.24 96.5073 1841.54 101.534C1834.81 106.58 1825.17 109.468 1813.62 109.468V111.468C1825.48 111.468 1835.58 108.505 1842.74 103.134C1849.92 97.7453 1854.1 89.9638 1854.1 80.5076H1852.1ZM1813.62 109.468C1797.97 109.468 1782.61 102.71 1772.49 93.048L1771.11 94.4947C1781.59 104.495 1797.44 111.468 1813.62 111.468V109.468ZM1772.7 94.2186L1778.31 82.9833L1776.52 82.0889L1770.91 93.3241L1772.7 94.2186ZM1776.72 83.2542C1787.04 93.2535 1801.17 98.9846 1813.78 98.9846V96.9846C1801.73 96.9846 1788.08 91.4804 1778.12 81.8181L1776.72 83.2542ZM1813.78 98.9846C1821.77 98.9846 1828.39 97.3642 1833.03 94.3148C1837.72 91.2394 1840.37 86.724 1840.37 81.1317H1838.37C1838.37 85.9945 1836.11 89.9055 1831.93 92.6428C1827.73 95.406 1821.54 96.9846 1813.78 96.9846V98.9846ZM1840.37 81.1372C1840.39 77.3557 1839.39 74.251 1837.6 71.6658C1835.82 69.0948 1833.3 67.092 1830.34 65.4374C1824.48 62.153 1816.65 60.1099 1809.06 57.802C1801.37 55.4686 1793.86 52.8543 1788.26 48.4608C1782.74 44.1201 1779.04 38.0176 1779.04 28.5447H1777.04C1777.04 38.6554 1781.04 45.329 1787.03 50.034C1792.96 54.6862 1800.81 57.3872 1808.47 59.7157C1816.23 62.0696 1823.74 64.0349 1829.36 67.1824C1832.15 68.7439 1834.4 70.5629 1835.96 72.8043C1837.5 75.0315 1838.39 77.7297 1838.37 81.1263L1840.37 81.1372ZM1779.04 28.5447C1779.04 20.2911 1782.67 13.5227 1789.04 8.78833C1795.43 4.03471 1804.64 1.30058 1815.81 1.30058V-0.699421C1804.34 -0.699421 1794.67 2.10603 1787.84 7.18323C1780.99 12.2796 1777.04 19.6333 1777.04 28.5447H1779.04Z" fill="white" mask="url(#path-1-outside-1_110_3)"/>
</g>
</svg>
