<svg width="590" height="112" viewBox="0 0 590 112" fill="none" xmlns="http://www.w3.org/2000/svg">
<g opacity="0.2">
<mask id="path-1-outside-1_107_13" maskUnits="userSpaceOnUse" x="-1" y="-1" width="592" height="114" fill="black">
<rect fill="white" x="-1" y="-1" width="592" height="114"/>
<path d="M40.7497 111.78C32.6354 111.78 24.9371 110.428 17.6551 107.723C10.477 104.914 4.91141 101.325 0.95828 96.956L4.54731 91.0263C8.29238 94.8754 13.3898 98.1523 19.8397 100.857C26.3936 103.458 33.3115 104.758 40.5936 104.758C47.8757 104.758 53.8054 103.822 58.3827 101.949C63.0641 99.9728 66.4971 97.3721 68.6817 94.1472C70.9703 90.9222 72.1147 87.3332 72.1147 83.3801C72.1147 78.6987 70.8663 74.9537 68.3696 72.1449C65.8729 69.3361 62.5959 67.0994 58.5388 65.4349C54.4816 63.7705 50.0603 62.3661 45.275 61.2217C40.4896 60.0774 35.6522 58.8811 30.7628 57.6327C25.8734 56.2803 21.4001 54.5638 17.343 52.4832C13.2858 50.4026 10.0089 47.5938 7.51216 44.0568C5.11947 40.4158 3.92313 35.7344 3.92313 30.0128C3.92313 24.8113 5.27552 20.0259 7.98029 15.6567C10.6851 11.2874 14.8983 7.75042 20.6199 5.04565C26.3416 2.34087 33.6757 0.988485 42.6222 0.988485C48.6559 0.988485 54.5856 1.87274 60.4113 3.64125C66.341 5.40976 71.3865 7.80244 75.5476 10.8193L72.5828 17.2171C68.0055 14.0962 63.0641 11.8076 57.7586 10.3512C52.5571 8.79072 47.5116 8.0105 42.6222 8.0105C35.6522 8.0105 29.8786 8.99878 25.3013 10.9753C20.7239 12.9519 17.343 15.6047 15.1583 18.9336C12.9737 22.1586 11.8814 25.7996 11.8814 29.8568C11.8814 34.5381 13.0778 38.2832 15.4704 41.092C17.9672 43.9008 21.2441 46.1374 25.3013 47.8019C29.3584 49.4664 33.8317 50.8708 38.7211 52.0151C43.6105 53.1594 48.4479 54.4078 53.2333 55.7602C58.0186 57.0085 62.4399 58.673 66.4971 60.7536C70.5542 62.8342 73.8312 65.643 76.3279 69.18C78.8246 72.717 80.0729 77.2943 80.0729 82.912C80.0729 88.0094 78.6685 92.7948 75.8597 97.2681C73.0509 101.637 68.7337 105.174 62.908 107.879C57.1864 110.48 49.8003 111.78 40.7497 111.78ZM153.316 111.78C145.202 111.78 137.66 110.428 130.69 107.723C123.824 104.914 117.842 101.013 112.745 96.0197C107.647 91.0263 103.694 85.2006 100.885 78.5427C98.0766 71.7808 96.6722 64.3947 96.6722 56.3844C96.6722 48.3741 98.0766 41.04 100.885 34.3821C103.694 27.6201 107.647 21.7424 112.745 16.749C117.946 11.7556 123.98 7.90647 130.846 5.20169C137.712 2.39289 145.202 0.988485 153.316 0.988485C161.015 0.988485 168.193 2.23684 174.851 4.73356C181.613 7.23028 187.386 11.0274 192.172 16.1248L187.178 21.2743C182.497 16.697 177.295 13.42 171.574 11.4435C165.956 9.36288 159.974 8.32258 153.629 8.32258C146.659 8.32258 140.157 9.51893 134.123 11.9116C128.193 14.3043 122.992 17.6853 118.518 22.0545C114.149 26.4238 110.716 31.5212 108.22 37.3469C105.827 43.1726 104.63 49.5184 104.63 56.3844C104.63 63.2503 105.827 69.5961 108.22 75.4218C110.716 81.2475 114.149 86.3449 118.518 90.7142C122.992 95.0834 128.193 98.4644 134.123 100.857C140.157 103.25 146.659 104.446 153.629 104.446C159.974 104.446 165.956 103.458 171.574 101.481C177.295 99.4007 182.497 96.0197 187.178 91.3384L192.172 96.4878C187.386 101.585 181.613 105.434 174.851 108.035C168.193 110.532 161.015 111.78 153.316 111.78ZM197.675 111L247.921 1.76871H255.879L306.126 111H297.543L250.106 6.76214H253.539L206.257 111H197.675ZM216.088 80.2592L218.741 73.5493H284.123L286.776 80.2592H216.088ZM325.955 111V1.76871H333.914V103.822H396.8V111H325.955ZM424.258 52.0151H483.398V59.0371H424.258V52.0151ZM425.194 103.822H492.605V111H417.236V1.76871H490.264V8.94676H425.194V103.822ZM550.333 111.78C542.219 111.78 534.521 110.428 527.239 107.723C520.06 104.914 514.495 101.325 510.542 96.956L514.131 91.0263C517.876 94.8754 522.973 98.1523 529.423 100.857C535.977 103.458 542.895 104.758 550.177 104.758C557.459 104.758 563.389 103.822 567.966 101.949C572.648 99.9728 576.081 97.3721 578.265 94.1472C580.554 90.9222 581.698 87.3332 581.698 83.3801C581.698 78.6987 580.45 74.9537 577.953 72.1449C575.456 69.3361 572.179 67.0994 568.122 65.4349C564.065 63.7705 559.644 62.3661 554.858 61.2217C550.073 60.0774 545.236 58.8811 540.346 57.6327C535.457 56.2803 530.984 54.5638 526.926 52.4832C522.869 50.4026 519.592 47.5938 517.096 44.0568C514.703 40.4158 513.507 35.7344 513.507 30.0128C513.507 24.8113 514.859 20.0259 517.564 15.6567C520.269 11.2874 524.482 7.75042 530.203 5.04565C535.925 2.34087 543.259 0.988485 552.206 0.988485C558.239 0.988485 564.169 1.87274 569.995 3.64125C575.924 5.40976 580.97 7.80244 585.131 10.8193L582.166 17.2171C577.589 14.0962 572.648 11.8076 567.342 10.3512C562.141 8.79072 557.095 8.0105 552.206 8.0105C545.236 8.0105 539.462 8.99878 534.885 10.9753C530.307 12.9519 526.926 15.6047 524.742 18.9336C522.557 22.1586 521.465 25.7996 521.465 29.8568C521.465 34.5381 522.661 38.2832 525.054 41.092C527.551 43.9008 530.828 46.1374 534.885 47.8019C538.942 49.4664 543.415 50.8708 548.305 52.0151C553.194 53.1594 558.031 54.4078 562.817 55.7602C567.602 57.0085 572.023 58.673 576.081 60.7536C580.138 62.8342 583.415 65.643 585.911 69.18C588.408 72.717 589.656 77.2943 589.656 82.912C589.656 88.0094 588.252 92.7948 585.443 97.2681C582.634 101.637 578.317 105.174 572.491 107.879C566.77 110.48 559.384 111.78 550.333 111.78Z"/>
</mask>
<path d="M17.6551 107.723L17.2907 108.654L17.2987 108.657L17.3069 108.66L17.6551 107.723ZM0.95828 96.956L0.10278 96.4382L-0.282634 97.0749L0.216744 97.6269L0.95828 96.956ZM4.54731 91.0263L5.26403 90.3289L4.36176 89.4016L3.69181 90.5085L4.54731 91.0263ZM19.8397 100.857L19.453 101.779L19.4619 101.783L19.4708 101.787L19.8397 100.857ZM58.3827 101.949L58.7614 102.875L58.7717 102.871L58.3827 101.949ZM68.6817 94.1472L67.8662 93.5684L67.8599 93.5773L67.8538 93.5863L68.6817 94.1472ZM68.3696 72.1449L67.6222 72.8092L67.6222 72.8092L68.3696 72.1449ZM45.275 61.2217L45.0424 62.1943L45.0424 62.1943L45.275 61.2217ZM30.7628 57.6327L30.4962 58.5965L30.5058 58.5992L30.5154 58.6016L30.7628 57.6327ZM17.343 52.4832L17.7993 51.5934L17.7993 51.5934L17.343 52.4832ZM7.51216 44.0568L6.67645 44.606L6.68559 44.6199L6.69519 44.6335L7.51216 44.0568ZM7.98029 15.6567L8.83056 16.183L8.83056 16.183L7.98029 15.6567ZM20.6199 5.04565L21.0473 5.94972L21.0473 5.94972L20.6199 5.04565ZM60.4113 3.64125L60.1208 4.59814L60.1255 4.59954L60.4113 3.64125ZM75.5476 10.8193L76.455 11.2398L76.8011 10.4929L76.1346 10.0097L75.5476 10.8193ZM72.5828 17.2171L72.0195 18.0434L72.9941 18.7079L73.4901 17.6376L72.5828 17.2171ZM57.7586 10.3512L57.4712 11.309L57.4825 11.3124L57.4938 11.3155L57.7586 10.3512ZM25.3013 10.9753L25.6977 11.8934L25.6977 11.8934L25.3013 10.9753ZM15.1583 18.9336L15.9863 19.4945L15.9904 19.4884L15.9944 19.4823L15.1583 18.9336ZM15.4704 41.092L14.7092 41.7404L14.716 41.7485L14.723 41.7563L15.4704 41.092ZM25.3013 47.8019L25.6808 46.8767L25.6808 46.8767L25.3013 47.8019ZM38.7211 52.0151L38.949 51.0414L38.949 51.0414L38.7211 52.0151ZM53.2333 55.7602L52.9613 56.7225L52.971 56.7252L52.9808 56.7278L53.2333 55.7602ZM66.4971 60.7536L66.9534 59.8638L66.9534 59.8638L66.4971 60.7536ZM76.3279 69.18L75.5109 69.7567L75.5109 69.7567L76.3279 69.18ZM75.8597 97.2681L76.701 97.8089L76.7066 97.7998L75.8597 97.2681ZM62.908 107.879L63.3218 108.79L63.3291 108.786L62.908 107.879ZM40.7497 110.78C32.7488 110.78 25.169 109.447 18.0032 106.786L17.3069 108.66C24.7053 111.408 32.5219 112.78 40.7497 112.78V110.78ZM18.0195 106.792C10.9428 104.023 5.52214 100.51 1.69982 96.2851L0.216744 97.6269C4.30068 102.141 10.0112 105.806 17.2907 108.654L18.0195 106.792ZM1.81378 97.4738L5.40281 91.5441L3.69181 90.5085L0.10278 96.4382L1.81378 97.4738ZM3.83058 91.7236C7.69313 95.6935 12.9149 99.0375 19.453 101.779L20.2264 99.9349C13.8648 97.2671 8.89163 94.0573 5.26403 90.3289L3.83058 91.7236ZM19.4708 101.787C26.146 104.435 33.1895 105.758 40.5936 105.758V103.758C33.4336 103.758 26.6412 102.48 20.2085 99.9276L19.4708 101.787ZM40.5936 105.758C47.9497 105.758 54.0212 104.814 58.7614 102.875L58.0041 101.024C53.5897 102.83 47.8018 103.758 40.5936 103.758V105.758ZM58.7717 102.871C63.5777 100.841 67.1881 98.135 69.5096 94.708L67.8538 93.5863C65.806 96.6092 62.5504 99.1042 57.9938 101.028L58.7717 102.871ZM69.4972 94.7259C71.9058 91.3319 73.1147 87.5407 73.1147 83.3801H71.1147C71.1147 87.1258 70.0349 90.5126 67.8662 93.5684L69.4972 94.7259ZM73.1147 83.3801C73.1147 78.5164 71.8137 74.5142 69.117 71.4805L67.6222 72.8092C69.919 75.3931 71.1147 78.8811 71.1147 83.3801H73.1147ZM69.117 71.4805C66.5035 68.5404 63.0929 66.2224 58.9183 64.5098L58.1592 66.3601C62.0989 67.9764 65.2422 70.1318 67.6222 72.8092L69.117 71.4805ZM58.9183 64.5098C54.8081 62.8235 50.3371 61.4041 45.5075 60.2492L45.0424 62.1943C49.7836 63.3281 54.1551 64.7174 58.1592 66.3601L58.9183 64.5098ZM45.5075 60.2492C40.7272 59.106 35.8948 57.9109 31.0102 56.6638L30.5154 58.6016C35.4096 59.8512 40.252 61.0488 45.0424 62.1943L45.5075 60.2492ZM31.0294 56.6689C26.1984 55.3327 21.7896 53.6397 17.7993 51.5934L16.8867 53.3731C21.0107 55.488 25.5485 57.228 30.4962 58.5965L31.0294 56.6689ZM17.7993 51.5934C13.878 49.5825 10.7277 46.8781 8.32912 43.4801L6.69519 44.6335C9.29004 48.3095 12.6936 51.2228 16.8867 53.3731L17.7993 51.5934ZM8.34786 43.5076C6.0912 40.0736 4.92313 35.5994 4.92313 30.0128H2.92313C2.92313 35.8695 4.14774 40.758 6.67645 44.606L8.34786 43.5076ZM4.92313 30.0128C4.92313 24.9949 6.22492 20.3922 8.83056 16.183L7.13003 15.1303C4.32611 19.6597 2.92313 24.6278 2.92313 30.0128H4.92313ZM8.83056 16.183C11.4125 12.0122 15.4596 8.59119 21.0473 5.94972L20.1925 4.14158C14.337 6.90965 9.95765 10.5626 7.13003 15.1303L8.83056 16.183ZM21.0473 5.94972C26.5919 3.32864 33.7664 1.98848 42.6222 1.98848V-0.0115153C33.5849 -0.0115153 26.0912 1.35311 20.1925 4.14158L21.0473 5.94972ZM42.6222 1.98848C48.5566 1.98848 54.3885 2.85795 60.1208 4.59813L60.7018 2.68437C54.7828 0.887531 48.7553 -0.0115153 42.6222 -0.0115153V1.98848ZM60.1255 4.59954C65.9685 6.34219 70.9072 8.69017 74.9607 11.6289L76.1346 10.0097C71.8657 6.91472 66.7135 4.47732 60.6971 2.68296L60.1255 4.59954ZM74.6403 10.3988L71.6755 16.7967L73.4901 17.6376L76.455 11.2398L74.6403 10.3988ZM73.1461 16.3909C68.4782 13.2082 63.436 10.8727 58.0233 9.38684L57.4938 11.3155C62.6921 12.7425 67.5327 14.9842 72.0195 18.0434L73.1461 16.3909ZM58.0459 9.39334C52.7614 7.80799 47.619 7.0105 42.6222 7.0105V9.0105C47.4042 9.0105 52.3527 9.77346 57.4712 11.309L58.0459 9.39334ZM42.6222 7.0105C35.5664 7.0105 29.6466 8.0097 24.9048 10.0573L25.6977 11.8934C30.1105 9.98787 35.738 9.0105 42.6222 9.0105V7.0105ZM24.9048 10.0573C20.1933 12.0918 16.6384 14.8557 14.3223 18.385L15.9944 19.4823C18.0476 16.3536 21.2546 13.812 25.6977 11.8934L24.9048 10.0573ZM14.3304 18.3728C12.0288 21.7704 10.8814 25.6084 10.8814 29.8568H12.8814C12.8814 25.9907 13.9186 22.5467 15.9863 19.4945L14.3304 18.3728ZM10.8814 29.8568C10.8814 34.7102 12.1246 38.7064 14.7092 41.7404L16.2317 40.4435C14.0309 37.86 12.8814 34.366 12.8814 29.8568H10.8814ZM14.723 41.7563C17.3365 44.6965 20.7471 47.0144 24.9217 48.7271L25.6808 46.8767C21.7411 45.2604 18.5978 43.1051 16.2178 40.4276L14.723 41.7563ZM24.9217 48.7271C29.0345 50.4144 33.5593 51.834 38.4932 52.9888L38.949 51.0414C34.1041 49.9075 29.6823 48.5184 25.6808 46.8767L24.9217 48.7271ZM38.4932 52.9888C43.368 54.1297 48.1907 55.3743 52.9613 56.7225L53.5052 54.7979C48.7051 53.4413 43.853 52.1892 38.949 51.0414L38.4932 52.9888ZM52.9808 56.7278C57.7015 57.9593 62.0537 59.5988 66.0407 61.6434L66.9534 59.8638C62.8261 57.7472 58.3357 56.0578 53.4857 54.7926L52.9808 56.7278ZM66.0407 61.6434C69.962 63.6543 73.1123 66.3587 75.5109 69.7567L77.1448 68.6033C74.55 64.9273 71.1464 62.0141 66.9534 59.8638L66.0407 61.6434ZM75.5109 69.7567C77.8575 73.0811 79.0729 77.4397 79.0729 82.912H81.0729C81.0729 77.149 79.7916 72.353 77.1448 68.6033L75.5109 69.7567ZM79.0729 82.912C79.0729 87.8142 77.7254 92.4163 75.0128 96.7363L76.7066 97.7998C79.6117 93.1733 81.0729 88.2046 81.0729 82.912H79.0729ZM75.0186 96.7273C72.334 100.903 68.1813 104.328 62.4869 106.972L63.3291 108.786C69.286 106.02 73.7678 102.371 76.7009 97.8088L75.0186 96.7273ZM62.4942 106.969C56.9466 109.49 49.7156 110.78 40.7497 110.78V112.78C49.885 112.78 57.4261 111.469 63.3218 108.789L62.4942 106.969ZM130.69 107.723L130.311 108.649L130.32 108.652L130.328 108.655L130.69 107.723ZM112.745 96.0197L112.045 96.7341L112.045 96.7341L112.745 96.0197ZM100.885 78.5427L99.9619 78.9263L99.964 78.9314L100.885 78.5427ZM100.885 34.3821L101.807 34.7708L101.809 34.7657L100.885 34.3821ZM112.745 16.749L112.052 16.0276L112.045 16.0346L112.745 16.749ZM130.846 5.20169L131.213 6.13218L131.225 6.12724L130.846 5.20169ZM174.851 4.73356L174.499 5.6699L174.504 5.67165L174.851 4.73356ZM192.172 16.1248L192.889 16.821L193.554 16.136L192.901 15.4404L192.172 16.1248ZM187.178 21.2743L186.479 21.9893L187.197 22.6913L187.896 21.9704L187.178 21.2743ZM171.574 11.4435L171.226 12.3812L171.237 12.3851L171.247 12.3887L171.574 11.4435ZM134.123 11.9116L133.754 10.982L133.749 10.9843L134.123 11.9116ZM118.518 22.0545L117.82 21.3391L117.811 21.3474L118.518 22.0545ZM108.22 37.3469L107.3 36.953L107.297 36.96L107.294 36.967L108.22 37.3469ZM108.22 75.4218L107.294 75.8017L107.297 75.8087L107.3 75.8157L108.22 75.4218ZM118.518 90.7142L117.811 91.4213L117.82 91.4296L118.518 90.7142ZM134.123 100.857L133.749 101.784L133.754 101.787L134.123 100.857ZM171.574 101.481L171.906 102.425L171.915 102.421L171.574 101.481ZM187.178 91.3384L187.896 90.6422L187.189 89.9132L186.471 90.6313L187.178 91.3384ZM192.172 96.4878L192.901 97.1723L193.554 96.4767L192.889 95.7917L192.172 96.4878ZM174.851 108.035L175.202 108.972L175.21 108.968L174.851 108.035ZM153.316 110.78C145.315 110.78 137.897 109.447 131.052 106.791L130.328 108.655C137.423 111.409 145.089 112.78 153.316 112.78V110.78ZM131.069 106.798C124.317 104.036 118.446 100.205 113.445 95.3054L112.045 96.7341C117.239 101.822 123.33 105.793 130.311 108.649L131.069 106.798ZM113.445 95.3054C108.443 90.4059 104.565 84.6913 101.807 78.154L99.964 78.9314C102.824 85.7099 106.852 91.6466 112.045 96.7341L113.445 95.3054ZM101.809 78.1591C99.0552 71.5297 97.6722 64.2754 97.6722 56.3844H95.6722C95.6722 64.5139 97.098 72.0318 99.9619 78.9263L101.809 78.1591ZM97.6722 56.3844C97.6722 48.4931 99.0552 41.2929 101.807 34.7708L99.964 33.9934C97.098 40.787 95.6722 48.2551 95.6722 56.3844H97.6722ZM101.809 34.7657C104.568 28.1246 108.446 22.3602 113.445 17.4634L112.045 16.0346C106.849 21.1246 102.821 27.1157 99.9619 33.9984L101.809 34.7657ZM113.437 17.4704C118.543 12.5694 124.465 8.79026 131.213 6.1321L130.479 4.27128C123.495 7.02268 117.35 10.9418 112.052 16.0276L113.437 17.4704ZM131.225 6.12724C137.96 3.37203 145.32 1.98848 153.316 1.98848V-0.0115153C145.084 -0.0115153 137.464 1.41374 130.467 4.27615L131.225 6.12724ZM153.316 1.98848C160.905 1.98848 167.963 3.21863 174.499 5.66988L175.202 3.79723C168.423 1.25505 161.125 -0.0115153 153.316 -0.0115153V1.98848ZM174.504 5.67165C181.125 8.11636 186.767 11.8285 191.442 16.8093L192.901 15.4404C188.006 10.2263 182.1 6.34419 175.197 3.79546L174.504 5.67165ZM191.454 15.4287L186.46 20.5781L187.896 21.9704L192.889 16.821L191.454 15.4287ZM187.877 20.5593C183.099 15.8872 177.773 12.527 171.9 10.4983L171.247 12.3887C176.818 14.3131 181.895 17.5067 186.479 21.9893L187.877 20.5593ZM171.921 10.5057C166.186 8.38157 160.086 7.32258 153.629 7.32258V9.32258C159.863 9.32258 165.726 10.3442 171.226 12.3812L171.921 10.5057ZM153.629 7.32258C146.542 7.32258 139.914 8.53948 133.754 10.982L134.492 12.8412C140.4 10.4984 146.775 9.32258 153.629 9.32258V7.32258ZM133.749 10.9843C127.701 13.4246 122.388 16.8767 117.82 21.3391L119.217 22.7699C123.595 18.4939 128.686 15.184 134.497 12.839L133.749 10.9843ZM117.811 21.3474C113.35 25.809 109.846 31.0135 107.3 36.953L109.139 37.7408C111.587 32.029 114.949 27.0386 119.226 22.7616L117.811 21.3474ZM107.294 36.967C104.848 42.9237 103.63 49.3999 103.63 56.3844H105.63C105.63 49.6369 106.806 43.4215 109.145 37.7268L107.294 36.967ZM103.63 56.3844C103.63 63.3688 104.848 69.845 107.294 75.8017L109.145 75.0419C106.806 69.3472 105.63 63.1318 105.63 56.3844H103.63ZM107.3 75.8157C109.846 81.7553 113.35 86.9598 117.811 91.4213L119.226 90.0071C114.949 85.7301 111.587 80.7397 109.139 75.0279L107.3 75.8157ZM117.82 91.4296C122.388 95.892 127.701 99.3441 133.749 101.784L134.497 99.9297C128.686 97.5847 123.595 94.2748 119.217 89.9988L117.82 91.4296ZM133.754 101.787C139.914 104.229 146.542 105.446 153.629 105.446V103.446C146.775 103.446 140.4 102.27 134.492 99.9275L133.754 101.787ZM153.629 105.446C160.08 105.446 166.175 104.441 171.906 102.425L171.242 100.538C165.738 102.475 159.869 103.446 153.629 103.446V105.446ZM171.915 102.421C177.786 100.286 183.11 96.821 187.885 92.0455L186.471 90.6313C181.884 95.2184 176.805 98.5151 171.232 100.541L171.915 102.421ZM186.46 92.0345L191.454 97.184L192.889 95.7917L187.896 90.6422L186.46 92.0345ZM191.442 95.8034C186.764 100.787 181.118 104.553 174.492 107.102L175.21 108.968C182.107 106.316 188.008 102.384 192.901 97.1723L191.442 95.8034ZM174.499 107.099C167.963 109.55 160.905 110.78 153.316 110.78V112.78C161.125 112.78 168.423 111.514 175.202 108.971L174.499 107.099ZM197.675 111L196.766 110.582L196.114 112H197.675V111ZM247.921 1.76871V0.768707H247.28L247.012 1.3508L247.921 1.76871ZM255.879 1.76871L256.788 1.3508L256.52 0.768707H255.879V1.76871ZM306.126 111V112H307.686L307.034 110.582L306.126 111ZM297.543 111L296.633 111.414L296.9 112H297.543V111ZM250.106 6.76214V5.76214H248.552L249.195 7.17635L250.106 6.76214ZM253.539 6.76214L254.449 7.17522L255.09 5.76214H253.539V6.76214ZM206.257 111V112H206.902L207.168 111.413L206.257 111ZM216.088 80.2592L215.158 79.8915L214.617 81.2592H216.088V80.2592ZM218.741 73.5493V72.5493H218.061L217.811 73.1816L218.741 73.5493ZM284.123 73.5493L285.053 73.1816L284.803 72.5493H284.123V73.5493ZM286.776 80.2592V81.2592H288.247L287.706 79.8915L286.776 80.2592ZM198.583 111.418L248.829 2.18661L247.012 1.3508L196.766 110.582L198.583 111.418ZM247.921 2.76871H255.879V0.768707H247.921V2.76871ZM254.971 2.18661L305.217 111.418L307.034 110.582L256.788 1.3508L254.971 2.18661ZM306.126 110H297.543V112H306.126V110ZM298.453 110.586L251.016 6.34792L249.195 7.17635L296.633 111.414L298.453 110.586ZM250.106 7.76214H253.539V5.76214H250.106V7.76214ZM252.628 6.34905L205.346 110.587L207.168 111.413L254.449 7.17522L252.628 6.34905ZM206.257 110H197.675V112H206.257V110ZM217.018 80.6269L219.671 73.9169L217.811 73.1816L215.158 79.8915L217.018 80.6269ZM218.741 74.5493H284.123V72.5493H218.741V74.5493ZM283.193 73.9169L285.846 80.6269L287.706 79.8915L285.053 73.1816L283.193 73.9169ZM286.776 79.2592H216.088V81.2592H286.776V79.2592ZM325.955 111H324.955V112H325.955V111ZM325.955 1.76871V0.768707H324.955V1.76871H325.955ZM333.914 1.76871H334.914V0.768707H333.914V1.76871ZM333.914 103.822H332.914V104.822H333.914V103.822ZM396.8 103.822H397.8V102.822H396.8V103.822ZM396.8 111V112H397.8V111H396.8ZM326.955 111V1.76871H324.955V111H326.955ZM325.955 2.76871H333.914V0.768707H325.955V2.76871ZM332.914 1.76871V103.822H334.914V1.76871H332.914ZM333.914 104.822H396.8V102.822H333.914V104.822ZM395.8 103.822V111H397.8V103.822H395.8ZM396.8 110H325.955V112H396.8V110ZM424.258 52.0151V51.0151H423.258V52.0151H424.258ZM483.398 52.0151H484.398V51.0151H483.398V52.0151ZM483.398 59.0371V60.0371H484.398V59.0371H483.398ZM424.258 59.0371H423.258V60.0371H424.258V59.0371ZM425.194 103.822H424.194V104.822H425.194V103.822ZM492.605 103.822H493.605V102.822H492.605V103.822ZM492.605 111V112H493.605V111H492.605ZM417.236 111H416.236V112H417.236V111ZM417.236 1.76871V0.768707H416.236V1.76871H417.236ZM490.264 1.76871H491.264V0.768707H490.264V1.76871ZM490.264 8.94676V9.94676H491.264V8.94676H490.264ZM425.194 8.94676V7.94676H424.194V8.94676H425.194ZM424.258 53.0151H483.398V51.0151H424.258V53.0151ZM482.398 52.0151V59.0371H484.398V52.0151H482.398ZM483.398 58.0371H424.258V60.0371H483.398V58.0371ZM425.258 59.0371V52.0151H423.258V59.0371H425.258ZM425.194 104.822H492.605V102.822H425.194V104.822ZM491.605 103.822V111H493.605V103.822H491.605ZM492.605 110H417.236V112H492.605V110ZM418.236 111V1.76871H416.236V111H418.236ZM417.236 2.76871H490.264V0.768707H417.236V2.76871ZM489.264 1.76871V8.94676H491.264V1.76871H489.264ZM490.264 7.94676H425.194V9.94676H490.264V7.94676ZM424.194 8.94676V103.822H426.194V8.94676H424.194ZM527.239 107.723L526.874 108.654L526.882 108.657L526.89 108.66L527.239 107.723ZM510.542 96.956L509.686 96.4382L509.301 97.0749L509.8 97.6269L510.542 96.956ZM514.131 91.0263L514.847 90.3289L513.945 89.4016L513.275 90.5085L514.131 91.0263ZM529.423 100.857L529.036 101.779L529.045 101.783L529.054 101.787L529.423 100.857ZM567.966 101.949L568.345 102.875L568.355 102.871L567.966 101.949ZM578.265 94.1472L577.45 93.5684L577.443 93.5773L577.437 93.5863L578.265 94.1472ZM577.953 72.1449L577.206 72.8092L577.206 72.8092L577.953 72.1449ZM554.858 61.2217L554.626 62.1943L554.626 62.1943L554.858 61.2217ZM540.346 57.6327L540.08 58.5965L540.089 58.5992L540.099 58.6016L540.346 57.6327ZM526.926 52.4832L527.383 51.5934L527.383 51.5934L526.926 52.4832ZM517.096 44.0568L516.26 44.606L516.269 44.6199L516.279 44.6335L517.096 44.0568ZM517.564 15.6567L518.414 16.183L518.414 16.183L517.564 15.6567ZM530.203 5.04565L530.631 5.94972L530.631 5.94972L530.203 5.04565ZM569.995 3.64125L569.704 4.59814L569.709 4.59954L569.995 3.64125ZM585.131 10.8193L586.038 11.2398L586.385 10.4929L585.718 10.0097L585.131 10.8193ZM582.166 17.2171L581.603 18.0434L582.578 18.7079L583.074 17.6376L582.166 17.2171ZM567.342 10.3512L567.055 11.309L567.066 11.3124L567.077 11.3155L567.342 10.3512ZM534.885 10.9753L535.281 11.8934L535.281 11.8934L534.885 10.9753ZM524.742 18.9336L525.57 19.4945L525.574 19.4884L525.578 19.4823L524.742 18.9336ZM525.054 41.092L524.293 41.7404L524.299 41.7485L524.306 41.7563L525.054 41.092ZM534.885 47.8019L535.264 46.8767L535.264 46.8767L534.885 47.8019ZM548.305 52.0151L548.532 51.0414L548.532 51.0414L548.305 52.0151ZM562.817 55.7602L562.545 56.7225L562.555 56.7252L562.564 56.7278L562.817 55.7602ZM576.081 60.7536L576.537 59.8638L576.537 59.8638L576.081 60.7536ZM585.911 69.18L585.094 69.7567L585.094 69.7567L585.911 69.18ZM585.443 97.2681L586.284 97.8089L586.29 97.7998L585.443 97.2681ZM572.491 107.879L572.905 108.79L572.913 108.786L572.491 107.879ZM550.333 110.78C542.332 110.78 534.752 109.447 527.587 106.786L526.89 108.66C534.289 111.408 542.105 112.78 550.333 112.78V110.78ZM527.603 106.792C520.526 104.023 515.106 100.51 511.283 96.2851L509.8 97.6269C513.884 102.141 519.595 105.806 526.874 108.654L527.603 106.792ZM511.397 97.4738L514.986 91.5441L513.275 90.5085L509.686 96.4382L511.397 97.4738ZM513.414 91.7236C517.277 95.6935 522.498 99.0375 529.036 101.779L529.81 99.9349C523.448 97.2671 518.475 94.0573 514.847 90.3289L513.414 91.7236ZM529.054 101.787C535.729 104.435 542.773 105.758 550.177 105.758V103.758C543.017 103.758 536.225 102.48 529.792 99.9276L529.054 101.787ZM550.177 105.758C557.533 105.758 563.605 104.814 568.345 102.875L567.588 101.024C563.173 102.83 557.385 103.758 550.177 103.758V105.758ZM568.355 102.871C573.161 100.841 576.772 98.135 579.093 94.708L577.437 93.5863C575.389 96.6092 572.134 99.1042 567.577 101.028L568.355 102.871ZM579.081 94.7259C581.489 91.3319 582.698 87.5407 582.698 83.3801H580.698C580.698 87.1258 579.618 90.5126 577.45 93.5684L579.081 94.7259ZM582.698 83.3801C582.698 78.5164 581.397 74.5142 578.7 71.4805L577.206 72.8092C579.502 75.3931 580.698 78.8811 580.698 83.3801H582.698ZM578.7 71.4805C576.087 68.5404 572.676 66.2224 568.502 64.5098L567.743 66.3601C571.682 67.9764 574.826 70.1318 577.206 72.8092L578.7 71.4805ZM568.502 64.5098C564.392 62.8235 559.921 61.4041 555.091 60.2492L554.626 62.1943C559.367 63.3281 563.739 64.7174 567.743 66.3601L568.502 64.5098ZM555.091 60.2492C550.311 59.106 545.478 57.9109 540.594 56.6638L540.099 58.6016C544.993 59.8512 549.835 61.0488 554.626 62.1943L555.091 60.2492ZM540.613 56.6689C535.782 55.3327 531.373 53.6397 527.383 51.5934L526.47 53.3731C530.594 55.488 535.132 57.228 540.08 58.5965L540.613 56.6689ZM527.383 51.5934C523.461 49.5825 520.311 46.8781 517.913 43.4801L516.279 44.6335C518.874 48.3095 522.277 51.2228 526.47 53.3731L527.383 51.5934ZM517.931 43.5076C515.675 40.0736 514.507 35.5994 514.507 30.0128H512.507C512.507 35.8695 513.731 40.758 516.26 44.606L517.931 43.5076ZM514.507 30.0128C514.507 24.9949 515.808 20.3922 518.414 16.183L516.713 15.1303C513.91 19.6597 512.507 24.6278 512.507 30.0128H514.507ZM518.414 16.183C520.996 12.0122 525.043 8.59119 530.631 5.94972L529.776 4.14158C523.92 6.90965 519.541 10.5626 516.713 15.1303L518.414 16.183ZM530.631 5.94972C536.175 3.32864 543.35 1.98848 552.206 1.98848V-0.0115153C543.168 -0.0115153 535.675 1.35311 529.776 4.14158L530.631 5.94972ZM552.206 1.98848C558.14 1.98848 563.972 2.85795 569.704 4.59813L570.285 2.68437C564.366 0.887531 558.339 -0.0115153 552.206 -0.0115153V1.98848ZM569.709 4.59954C575.552 6.34219 580.491 8.69017 584.544 11.6289L585.718 10.0097C581.449 6.91472 576.297 4.47732 570.281 2.68296L569.709 4.59954ZM584.224 10.3988L581.259 16.7967L583.074 17.6376L586.038 11.2398L584.224 10.3988ZM582.73 16.3909C578.062 13.2082 573.019 10.8727 567.607 9.38684L567.077 11.3155C572.276 12.7425 577.116 14.9842 581.603 18.0434L582.73 16.3909ZM567.629 9.39334C562.345 7.80799 557.203 7.0105 552.206 7.0105V9.0105C556.988 9.0105 561.936 9.77346 567.055 11.309L567.629 9.39334ZM552.206 7.0105C545.15 7.0105 539.23 8.0097 534.488 10.0573L535.281 11.8934C539.694 9.98787 545.321 9.0105 552.206 9.0105V7.0105ZM534.488 10.0573C529.777 12.0918 526.222 14.8557 523.906 18.385L525.578 19.4823C527.631 16.3536 530.838 13.812 535.281 11.8934L534.488 10.0573ZM523.914 18.3728C521.612 21.7704 520.465 25.6084 520.465 29.8568H522.465C522.465 25.9907 523.502 22.5467 525.57 19.4945L523.914 18.3728ZM520.465 29.8568C520.465 34.7102 521.708 38.7064 524.293 41.7404L525.815 40.4435C523.614 37.86 522.465 34.366 522.465 29.8568H520.465ZM524.306 41.7563C526.92 44.6965 530.331 47.0144 534.505 48.7271L535.264 46.8767C531.325 45.2604 528.181 43.1051 525.801 40.4276L524.306 41.7563ZM534.505 48.7271C538.618 50.4144 543.143 51.834 548.077 52.9888L548.532 51.0414C543.688 49.9075 539.266 48.5184 535.264 46.8767L534.505 48.7271ZM548.077 52.9888C552.951 54.1297 557.774 55.3743 562.545 56.7225L563.089 54.7979C558.289 53.4413 553.436 52.1892 548.532 51.0414L548.077 52.9888ZM562.564 56.7278C567.285 57.9593 571.637 59.5988 575.624 61.6434L576.537 59.8638C572.41 57.7472 567.919 56.0578 563.069 54.7926L562.564 56.7278ZM575.624 61.6434C579.546 63.6543 582.696 66.3587 585.094 69.7567L586.728 68.6033C584.133 64.9273 580.73 62.0141 576.537 59.8638L575.624 61.6434ZM585.094 69.7567C587.441 73.0811 588.656 77.4397 588.656 82.912H590.656C590.656 77.149 589.375 72.353 586.728 68.6033L585.094 69.7567ZM588.656 82.912C588.656 87.8142 587.309 92.4163 584.596 96.7363L586.29 97.7998C589.195 93.1733 590.656 88.2046 590.656 82.912H588.656ZM584.602 96.7273C581.918 100.903 577.765 104.328 572.07 106.972L572.913 108.786C578.87 106.02 583.351 102.371 586.284 97.8088L584.602 96.7273ZM572.078 106.969C566.53 109.49 559.299 110.78 550.333 110.78V112.78C559.468 112.78 567.01 111.469 572.905 108.789L572.078 106.969Z" fill="white" mask="url(#path-1-outside-1_107_13)"/>
</g>
</svg>
