<svg width="121" height="120" viewBox="0 0 121 120" fill="none" xmlns="http://www.w3.org/2000/svg">
<circle cx="60.5" cy="60" r="59" stroke="url(#paint0_linear_168_198)" stroke-width="2"/>
<path d="M45.5 54C47.269 54 48.984 54.517 50.459 55.494C50.918 55.798 51.539 55.673 51.845 55.212C52.15 54.752 52.024 54.132 51.564 53.826C49.76 52.632 47.663 52 45.5 52C39.435 52 34.5 56.935 34.5 63C34.5 69.065 39.435 74 45.5 74C51.565 74 56.5 69.065 56.5 63C56.5 60.836 55.869 58.739 54.674 56.936C54.369 56.476 53.748 56.349 53.288 56.655C52.828 56.961 52.702 57.581 53.007 58.042C53.983 59.515 54.5 61.23 54.5 63C54.5 66.114 52.91 68.862 50.5 70.478V68C50.5 66.54 49.706 65.274 48.535 64.575C49.128 63.878 49.5 62.986 49.5 62C49.5 59.794 47.706 58 45.5 58C43.294 58 41.5 59.794 41.5 62C41.5 62.986 41.872 63.878 42.465 64.575C41.294 65.274 40.5 66.54 40.5 68C40.5 68.553 40.948 69 41.5 69C42.052 69 42.5 68.553 42.5 68C42.5 66.897 43.397 66 44.5 66H46.5C47.603 66 48.5 66.897 48.5 68V71.475C47.56 71.809 46.553 72 45.5 72C40.538 72 36.5 67.963 36.5 63C36.5 58.037 40.538 54 45.5 54ZM45.5 60C46.603 60 47.5 60.897 47.5 62C47.5 63.103 46.603 64 45.5 64C44.397 64 43.5 63.103 43.5 62C43.5 60.897 44.397 60 45.5 60Z" fill="url(#paint1_linear_168_198)"/>
<path d="M61.5 69H65.5C66.052 69 66.5 68.553 66.5 68V57C66.5 56.447 66.052 56 65.5 56H61.5C60.948 56 60.5 56.447 60.5 57V68C60.5 68.553 60.948 69 61.5 69ZM62.5 58H64.5V67H62.5V58Z" fill="url(#paint2_linear_168_198)"/>
<path d="M86.371 35.776C86.72 35.918 87.1 36 87.5 36C89.154 36 90.5 34.654 90.5 33C90.5 31.346 89.154 30 87.5 30C85.846 30 84.5 31.346 84.5 33C84.5 33.524 84.647 34.009 84.884 34.438L80.63 39.224C80.28 39.082 79.9 39 79.5 39C78.645 39 77.876 39.364 77.329 39.94L73.476 38.228C73.483 38.152 73.5 38.078 73.5 38C73.5 36.346 72.154 35 70.5 35C68.846 35 67.5 36.346 67.5 38C67.5 38.58 67.673 39.117 67.959 39.576L63.478 45.177C63.169 45.07 62.844 45 62.5 45C60.846 45 59.5 46.346 59.5 48C59.5 48.359 59.574 48.699 59.69 49.018L55.856 52.175C53.161 49.596 49.516 48 45.5 48C37.229 48 30.5 54.729 30.5 63C30.5 66.25 31.537 69.354 33.499 71.973C33.83 72.413 34.456 72.503 34.899 72.174C35.341 71.843 35.431 71.216 35.1 70.774C33.399 68.503 32.5 65.814 32.5 63C32.5 55.832 38.332 50 45.5 50C52.668 50 58.5 55.832 58.5 63C58.5 70.168 52.668 76 45.5 76C42.685 76 39.997 75.102 37.727 73.4C37.283 73.069 36.658 73.161 36.327 73.601C35.996 74.043 36.086 74.67 36.528 75.001C39.147 76.963 42.25 78 45.5 78C48.553 78 51.392 77.078 53.764 75.506L57.731 79.473C57.203 80.587 57.387 81.958 58.308 82.879L59.722 84.293L63.964 88.535C64.939 89.51 66.219 89.997 67.5 89.997C68.781 89.997 70.061 89.51 71.036 88.535C71.98 87.591 72.5 86.336 72.5 85C72.5 83.664 71.98 82.409 71.036 81.465L66.794 77.222L65.38 75.808C64.493 74.922 63.094 74.739 61.983 75.24L58.007 71.264C59.578 68.892 60.5 66.053 60.5 63C60.5 59.465 59.264 56.218 57.211 53.651L60.963 50.562C61.414 50.834 61.936 51 62.5 51C64.154 51 65.5 49.654 65.5 48C65.5 47.42 65.327 46.883 65.041 46.424L69.522 40.823C69.831 40.93 70.156 41 70.5 41C71.355 41 72.124 40.636 72.671 40.06L76.524 41.772C76.517 41.848 76.5 41.922 76.5 42C76.5 43.654 77.846 45 79.5 45C81.154 45 82.5 43.654 82.5 42C82.5 41.476 82.353 40.991 82.116 40.562L86.371 35.776ZM70.5 85C70.5 85.802 70.188 86.555 69.622 87.121C68.452 88.29 66.549 88.291 65.379 87.121L61.844 83.586L66.087 79.343L69.623 82.879C70.188 83.445 70.5 84.198 70.5 85ZM63.257 76.929C63.524 76.929 63.775 77.033 63.964 77.222L64.671 77.929L60.428 82.172L59.721 81.465C59.331 81.075 59.331 80.44 59.721 80.05L62.55 77.222C62.739 77.032 62.99 76.929 63.257 76.929ZM60.429 76.515L59.015 77.929L55.361 74.275C55.863 73.835 56.335 73.363 56.775 72.861L60.429 76.515ZM62.5 49C61.949 49 61.5 48.552 61.5 48C61.5 47.448 61.949 47 62.5 47C63.051 47 63.5 47.448 63.5 48C63.5 48.552 63.051 49 62.5 49ZM70.5 39C69.949 39 69.5 38.552 69.5 38C69.5 37.448 69.949 37 70.5 37C71.051 37 71.5 37.448 71.5 38C71.5 38.552 71.051 39 70.5 39ZM87.5 32C88.051 32 88.5 32.448 88.5 33C88.5 33.552 88.051 34 87.5 34C86.949 34 86.5 33.552 86.5 33C86.5 32.448 86.949 32 87.5 32ZM79.5 43C78.949 43 78.5 42.552 78.5 42C78.5 41.448 78.949 41 79.5 41C80.051 41 80.5 41.448 80.5 42C80.5 42.552 80.051 43 79.5 43Z" fill="url(#paint3_linear_168_198)"/>
<path d="M35.5 38H38.5V45C38.5 45.553 38.948 46 39.5 46H45.5C46.052 46 46.5 45.553 46.5 45C46.5 44.447 46.052 44 45.5 44H40.5V37C40.5 36.447 40.052 36 39.5 36H38.803L44.5 32.202L50.197 36H49.5C48.948 36 48.5 36.447 48.5 37V45C48.5 45.553 48.948 46 49.5 46C50.052 46 50.5 45.553 50.5 45V38H53.5C53.94 38 54.33 37.712 54.457 37.29C54.585 36.868 54.421 36.412 54.055 36.168L45.055 30.168C44.719 29.943 44.282 29.943 43.946 30.168L34.946 36.168C34.579 36.412 34.416 36.868 34.544 37.29C34.67 37.712 35.06 38 35.5 38Z" fill="url(#paint4_linear_168_198)"/>
<path d="M89.5 41H85.5C84.948 41 84.5 41.447 84.5 42V68C84.5 68.553 84.948 69 85.5 69H89.5C90.052 69 90.5 68.553 90.5 68V65C90.5 64.447 90.052 64 89.5 64C88.948 64 88.5 64.447 88.5 65V67H86.5V43H88.5V61C88.5 61.553 88.948 62 89.5 62C90.052 62 90.5 61.553 90.5 61V42C90.5 41.447 90.052 41 89.5 41Z" fill="url(#paint5_linear_168_198)"/>
<path d="M81.5 51H77.5C76.948 51 76.5 51.447 76.5 52V68C76.5 68.553 76.948 69 77.5 69H81.5C82.052 69 82.5 68.553 82.5 68V66C82.5 65.447 82.052 65 81.5 65C80.948 65 80.5 65.447 80.5 66V67H78.5V53H80.5V62C80.5 62.553 80.948 63 81.5 63C82.052 63 82.5 62.553 82.5 62V52C82.5 51.447 82.052 51 81.5 51Z" fill="url(#paint6_linear_168_198)"/>
<path d="M73.5 47H69.5C68.948 47 68.5 47.447 68.5 48V68C68.5 68.553 68.948 69 69.5 69H73.5C74.052 69 74.5 68.553 74.5 68V65C74.5 64.447 74.052 64 73.5 64C72.948 64 72.5 64.447 72.5 65V67H70.5V49H72.5V61C72.5 61.553 72.948 62 73.5 62C74.052 62 74.5 61.553 74.5 61V48C74.5 47.447 74.052 47 73.5 47Z" fill="url(#paint7_linear_168_198)"/>
<defs>
<linearGradient id="paint0_linear_168_198" x1="14.1115" y1="9.15663" x2="134.53" y2="23.398" gradientUnits="userSpaceOnUse">
<stop stop-color="#4190E5"/>
<stop offset="1" stop-color="#3636BF"/>
</linearGradient>
<linearGradient id="paint1_linear_168_198" x1="36.9954" y1="53.6787" x2="59.0721" y2="56.2896" gradientUnits="userSpaceOnUse">
<stop stop-color="#4190E5"/>
<stop offset="1" stop-color="#3636BF"/>
</linearGradient>
<linearGradient id="paint2_linear_168_198" x1="61.1806" y1="56.992" x2="67.2676" y2="57.3242" gradientUnits="userSpaceOnUse">
<stop stop-color="#4190E5"/>
<stop offset="1" stop-color="#3636BF"/>
</linearGradient>
<linearGradient id="paint3_linear_168_198" x1="37.3057" y1="34.5781" x2="97.5148" y2="41.6991" gradientUnits="userSpaceOnUse">
<stop stop-color="#4190E5"/>
<stop offset="1" stop-color="#3636BF"/>
</linearGradient>
<linearGradient id="paint4_linear_168_198" x1="36.7693" y1="31.2202" x2="56.6838" y2="34.164" gradientUnits="userSpaceOnUse">
<stop stop-color="#4190E5"/>
<stop offset="1" stop-color="#3636BF"/>
</linearGradient>
<linearGradient id="paint5_linear_168_198" x1="85.1806" y1="43.1365" x2="91.2818" y2="43.2912" gradientUnits="userSpaceOnUse">
<stop stop-color="#4190E5"/>
<stop offset="1" stop-color="#3636BF"/>
</linearGradient>
<linearGradient id="paint6_linear_168_198" x1="77.1806" y1="52.3735" x2="83.2762" y2="52.6138" gradientUnits="userSpaceOnUse">
<stop stop-color="#4190E5"/>
<stop offset="1" stop-color="#3636BF"/>
</linearGradient>
<linearGradient id="paint7_linear_168_198" x1="69.1806" y1="48.6787" x2="75.2794" y2="48.8754" gradientUnits="userSpaceOnUse">
<stop stop-color="#4190E5"/>
<stop offset="1" stop-color="#3636BF"/>
</linearGradient>
</defs>
</svg>
