<svg width="121" height="120" viewBox="0 0 121 120" fill="none" xmlns="http://www.w3.org/2000/svg">
<circle cx="60.5" cy="60" r="59" stroke="url(#paint0_linear_168_179)" stroke-width="2"/>
<g clip-path="url(#clip0_168_179)">
<mask id="path-2-outside-1_168_179" maskUnits="userSpaceOnUse" x="31.2429" y="30.2515" width="57" height="59" fill="black">
<rect fill="white" x="31.2429" y="30.2515" width="57" height="59"/>
<path fill-rule="evenodd" clip-rule="evenodd" d="M45.5733 32.5731C44.8299 32.5731 44.215 33.1813 44.215 33.9457V61.6257C44.215 62.377 44.8169 62.9983 45.5733 62.9983H74.4267C75.1701 62.9983 75.785 62.3901 75.785 61.6257V33.9325C75.785 33.1813 75.1831 32.5599 74.4267 32.5599L45.5733 32.5731ZM74.4267 64.2953H45.5733C44.1126 64.2953 42.9202 63.0904 42.9202 61.6142V33.9325C42.9202 32.4564 44.1126 31.2515 45.5733 31.2515H74.4267C75.8875 31.2515 77.0798 32.4564 77.0798 33.9325V61.6126C77.0668 63.0904 75.8875 64.2953 74.4267 64.2953Z"/>
<path fill-rule="evenodd" clip-rule="evenodd" d="M76.4259 39.865H43.5741C43.2146 39.865 42.9202 39.5675 42.9202 39.2042C42.9202 38.8409 43.2146 38.5434 43.5741 38.5434H76.4259C76.7854 38.5434 77.0798 38.8409 77.0798 39.2042C77.0668 39.5806 76.7854 39.865 76.4259 39.865Z"/>
<path fill-rule="evenodd" clip-rule="evenodd" d="M48.4069 34.9944C48.0995 34.9944 47.8425 35.2541 47.8425 35.5648C47.8425 35.8755 48.0995 36.1352 48.4069 36.1352H55.1998C55.5072 36.1352 55.7642 35.8755 55.7642 35.5648C55.7642 35.2541 55.5072 34.9944 55.1998 34.9944H48.4069ZM55.1998 37.442H48.4069C47.3821 37.442 46.5476 36.6004 46.5476 35.5632C46.5476 34.5259 47.3805 33.6843 48.4069 33.6843H55.1998C56.2246 33.6843 57.059 34.5259 57.059 35.5632C57.059 36.6004 56.2246 37.442 55.1998 37.442Z"/>
<path fill-rule="evenodd" clip-rule="evenodd" d="M61.3778 36.2125H59.4421C59.0826 36.2125 58.7882 35.9149 58.7882 35.5517C58.7882 35.1884 59.0826 34.8909 59.4421 34.8909H61.3778C61.7373 34.8909 62.0317 35.1884 62.0317 35.5517C62.0317 35.9281 61.7373 36.2125 61.3778 36.2125Z"/>
<path fill-rule="evenodd" clip-rule="evenodd" d="M66.3504 36.2125H64.4147C64.0552 36.2125 63.7608 35.9149 63.7608 35.5517C63.7608 35.1884 64.0552 34.8909 64.4147 34.8909H66.3504C66.7099 34.8909 67.0043 35.1884 67.0043 35.5517C66.9913 35.9281 66.7099 36.2125 66.3504 36.2125Z"/>
<path fill-rule="evenodd" clip-rule="evenodd" d="M71.3117 36.2125H69.389C69.0295 36.2125 68.7351 35.9149 68.7351 35.5517C68.7351 35.1884 69.0295 34.8909 69.389 34.8909H71.3247C71.6842 34.8909 71.9786 35.1884 71.9786 35.5517C71.9656 35.9281 71.6712 36.2125 71.3117 36.2125Z"/>
<path fill-rule="evenodd" clip-rule="evenodd" d="M61.1858 49.6966C60.9288 49.6966 60.6734 49.5405 60.584 49.2692L58.2123 42.8567C58.0838 42.5198 58.2514 42.145 58.5962 42.0151C58.9297 41.8853 59.3005 42.0677 59.4291 42.4031L61.8007 48.8155C61.9292 49.1525 61.7617 49.5273 61.4168 49.6572C61.3387 49.6835 61.2623 49.6966 61.1858 49.6966Z"/>
<path fill-rule="evenodd" clip-rule="evenodd" d="M55.6617 49.6966C55.5332 49.6966 55.4047 49.6572 55.3023 49.5799L50.598 46.3942C50.4191 46.2775 50.3166 46.0704 50.3166 45.8501C50.3166 45.6298 50.4191 45.4227 50.598 45.306L55.3023 42.1072C55.5967 41.9001 56.0066 41.9905 56.2002 42.288C56.4051 42.5855 56.3157 42.9883 56.0212 43.1954L52.1124 45.8501L56.0212 48.5049C56.3157 48.712 56.3937 49.1131 56.2002 49.4122C56.0717 49.6062 55.8667 49.6966 55.6617 49.6966Z"/>
<path fill-rule="evenodd" clip-rule="evenodd" d="M64.3383 49.6966C64.1333 49.6966 63.9284 49.5931 63.7999 49.4122C63.5949 49.1147 63.6844 48.7005 63.9788 48.5049L67.8876 45.8501L63.9788 43.1954C63.6844 42.9883 63.6063 42.5872 63.7999 42.288C64.0048 41.9905 64.4017 41.9116 64.6978 42.1072L69.402 45.306C69.581 45.4227 69.6834 45.6298 69.6834 45.8501C69.6834 46.0704 69.581 46.2775 69.402 46.3942L64.6978 49.5931C64.5953 49.6703 64.4668 49.6966 64.3383 49.6966Z"/>
<path fill-rule="evenodd" clip-rule="evenodd" d="M71.0043 53.4264H57.0834C56.7239 53.4264 56.4295 53.1289 56.4295 52.7656C56.4295 52.4023 56.7239 52.1048 57.0834 52.1048H71.0043C71.3638 52.1048 71.6582 52.4023 71.6582 52.7656C71.6452 53.1289 71.3621 53.4264 71.0043 53.4264Z"/>
<path fill-rule="evenodd" clip-rule="evenodd" d="M71.0043 57.1447H57.0834C56.7239 57.1447 56.4295 56.8472 56.4295 56.4839C56.4295 56.1206 56.7239 55.8231 57.0834 55.8231H71.0043C71.3638 55.8231 71.6582 56.1206 71.6582 56.4839C71.6452 56.8587 71.3621 57.1447 71.0043 57.1447Z"/>
<path fill-rule="evenodd" clip-rule="evenodd" d="M71.0043 60.8614H57.9423C57.5828 60.8614 57.2884 60.5638 57.2884 60.2006C57.2884 59.8373 57.5828 59.5397 57.9423 59.5397H71.0043C71.3638 59.5397 71.6582 59.8373 71.6582 60.2006C71.6452 60.577 71.3621 60.8614 71.0043 60.8614Z"/>
<path fill-rule="evenodd" clip-rule="evenodd" d="M36.2038 34.7232C34.7301 34.7232 33.5377 35.9281 33.5377 37.4174V71.3538C33.5377 72.8431 34.7301 74.048 36.2038 74.048H83.7832C85.2569 74.048 86.4493 72.8431 86.4493 71.3538V37.4174C86.4493 35.9281 85.2569 34.7232 83.7832 34.7232H77.0668V61.6142C77.0668 63.0904 75.8744 64.2953 74.4137 64.2953H45.5603C44.0995 64.2953 42.9072 63.0904 42.9072 61.6142V34.7232H36.2038ZM83.7962 75.3565H36.2038C34.0241 75.3565 32.2429 73.5565 32.2429 71.3538V37.4174C32.2429 35.2147 34.0241 33.4147 36.2038 33.4147H43.5741C43.9336 33.4147 44.228 33.7122 44.228 34.0755V61.6274C44.228 62.3786 44.8299 63 45.5863 63H74.4397C75.1831 63 75.798 62.3918 75.798 61.6274V34.0755C75.798 33.7122 76.0924 33.4147 76.4519 33.4147H83.8222C86.0019 33.4147 87.7831 35.2147 87.7831 37.4174V71.3538C87.7571 73.5565 85.9759 75.3565 83.7962 75.3565Z"/>
<path fill-rule="evenodd" clip-rule="evenodd" d="M87.1032 67.5977H32.8968C32.5373 67.5977 32.2429 67.3002 32.2429 66.9369C32.2429 66.5736 32.5373 66.2761 32.8968 66.2761H87.1032C87.4627 66.2761 87.7571 66.5736 87.7571 66.9369C87.7571 67.3002 87.4627 67.5977 87.1032 67.5977Z"/>
<path fill-rule="evenodd" clip-rule="evenodd" d="M51.4178 84.3333C51.3023 84.3333 51.1999 84.307 51.0974 84.2429C50.7899 84.0621 50.6875 83.6593 50.8534 83.3487L55.9806 74.3718C56.1595 74.0611 56.558 73.9576 56.8655 74.1252C57.1729 74.3061 57.2754 74.7088 57.1095 75.0195L51.9823 83.9963C51.8538 84.2166 51.6358 84.3333 51.4178 84.3333Z"/>
<path fill-rule="evenodd" clip-rule="evenodd" d="M68.5936 84.3333C68.3756 84.3333 68.1576 84.2166 68.0291 84.0095L62.9036 75.0326C62.7246 74.7219 62.8271 74.3209 63.1346 74.1384C63.442 73.9576 63.8389 74.0611 64.0195 74.385L69.1466 83.3618C69.3256 83.6725 69.2231 84.0736 68.9157 84.256C68.8116 84.307 68.6961 84.3333 68.5936 84.3333Z"/>
<path fill-rule="evenodd" clip-rule="evenodd" d="M49.5081 87.0916H70.5033V85.7059C70.5033 84.9415 69.8884 84.3201 69.132 84.3201H50.8794C50.123 84.3201 49.5081 84.9415 49.5081 85.7059V87.0916ZM71.1458 88.4001H48.8542C48.4947 88.4001 48.2003 88.1025 48.2003 87.7393V85.7059C48.2003 84.2166 49.3926 83.0117 50.8664 83.0117H69.119C70.5927 83.0117 71.7851 84.2166 71.7851 85.7059V87.7393C71.7981 88.1157 71.5036 88.4001 71.1458 88.4001Z"/>
<path fill-rule="evenodd" clip-rule="evenodd" d="M49.7261 59.5529H54.7378C54.4564 58.4252 53.43 57.5968 52.2263 57.5968C51.0339 57.5984 50.0205 58.4269 49.7261 59.5529ZM55.4682 60.8614H48.9957C48.6363 60.8614 48.3418 60.5638 48.3418 60.2006C48.3418 58.0373 50.0856 56.2751 52.2263 56.2751C54.3669 56.2751 56.1107 58.0373 56.1107 60.2006C56.1221 60.577 55.8277 60.8614 55.4682 60.8614Z"/>
<path fill-rule="evenodd" clip-rule="evenodd" d="M52.2393 53.4264C51.4569 53.4264 50.816 54.0741 50.816 54.8648C50.816 55.6554 51.4569 56.3031 52.2393 56.3031C53.0217 56.3031 53.6626 55.6554 53.6626 54.8648C53.648 54.0609 53.0201 53.4264 52.2393 53.4264ZM52.2393 57.5984C50.7395 57.5984 49.5212 56.3672 49.5212 54.8516C49.5212 53.336 50.7395 52.1048 52.2393 52.1048C53.739 52.1048 54.9574 53.336 54.9574 54.8516C54.9428 56.3672 53.726 57.5984 52.2393 57.5984Z"/>
</mask>
<path fill-rule="evenodd" clip-rule="evenodd" d="M45.5733 32.5731C44.8299 32.5731 44.215 33.1813 44.215 33.9457V61.6257C44.215 62.377 44.8169 62.9983 45.5733 62.9983H74.4267C75.1701 62.9983 75.785 62.3901 75.785 61.6257V33.9325C75.785 33.1813 75.1831 32.5599 74.4267 32.5599L45.5733 32.5731ZM74.4267 64.2953H45.5733C44.1126 64.2953 42.9202 63.0904 42.9202 61.6142V33.9325C42.9202 32.4564 44.1126 31.2515 45.5733 31.2515H74.4267C75.8875 31.2515 77.0798 32.4564 77.0798 33.9325V61.6126C77.0668 63.0904 75.8875 64.2953 74.4267 64.2953Z" fill="url(#paint1_linear_168_179)"/>
<path fill-rule="evenodd" clip-rule="evenodd" d="M76.4259 39.865H43.5741C43.2146 39.865 42.9202 39.5675 42.9202 39.2042C42.9202 38.8409 43.2146 38.5434 43.5741 38.5434H76.4259C76.7854 38.5434 77.0798 38.8409 77.0798 39.2042C77.0668 39.5806 76.7854 39.865 76.4259 39.865Z" fill="url(#paint2_linear_168_179)"/>
<path fill-rule="evenodd" clip-rule="evenodd" d="M48.4069 34.9944C48.0995 34.9944 47.8425 35.2541 47.8425 35.5648C47.8425 35.8755 48.0995 36.1352 48.4069 36.1352H55.1998C55.5072 36.1352 55.7642 35.8755 55.7642 35.5648C55.7642 35.2541 55.5072 34.9944 55.1998 34.9944H48.4069ZM55.1998 37.442H48.4069C47.3821 37.442 46.5476 36.6004 46.5476 35.5632C46.5476 34.5259 47.3805 33.6843 48.4069 33.6843H55.1998C56.2246 33.6843 57.059 34.5259 57.059 35.5632C57.059 36.6004 56.2246 37.442 55.1998 37.442Z" fill="url(#paint3_linear_168_179)"/>
<path fill-rule="evenodd" clip-rule="evenodd" d="M61.3778 36.2125H59.4421C59.0826 36.2125 58.7882 35.9149 58.7882 35.5517C58.7882 35.1884 59.0826 34.8909 59.4421 34.8909H61.3778C61.7373 34.8909 62.0317 35.1884 62.0317 35.5517C62.0317 35.9281 61.7373 36.2125 61.3778 36.2125Z" fill="url(#paint4_linear_168_179)"/>
<path fill-rule="evenodd" clip-rule="evenodd" d="M66.3504 36.2125H64.4147C64.0552 36.2125 63.7608 35.9149 63.7608 35.5517C63.7608 35.1884 64.0552 34.8909 64.4147 34.8909H66.3504C66.7099 34.8909 67.0043 35.1884 67.0043 35.5517C66.9913 35.9281 66.7099 36.2125 66.3504 36.2125Z" fill="url(#paint5_linear_168_179)"/>
<path fill-rule="evenodd" clip-rule="evenodd" d="M71.3117 36.2125H69.389C69.0295 36.2125 68.7351 35.9149 68.7351 35.5517C68.7351 35.1884 69.0295 34.8909 69.389 34.8909H71.3247C71.6842 34.8909 71.9786 35.1884 71.9786 35.5517C71.9656 35.9281 71.6712 36.2125 71.3117 36.2125Z" fill="url(#paint6_linear_168_179)"/>
<path fill-rule="evenodd" clip-rule="evenodd" d="M61.1858 49.6966C60.9288 49.6966 60.6734 49.5405 60.584 49.2692L58.2123 42.8567C58.0838 42.5198 58.2514 42.145 58.5962 42.0151C58.9297 41.8853 59.3005 42.0677 59.4291 42.4031L61.8007 48.8155C61.9292 49.1525 61.7617 49.5273 61.4168 49.6572C61.3387 49.6835 61.2623 49.6966 61.1858 49.6966Z" fill="url(#paint7_linear_168_179)"/>
<path fill-rule="evenodd" clip-rule="evenodd" d="M55.6617 49.6966C55.5332 49.6966 55.4047 49.6572 55.3023 49.5799L50.598 46.3942C50.4191 46.2775 50.3166 46.0704 50.3166 45.8501C50.3166 45.6298 50.4191 45.4227 50.598 45.306L55.3023 42.1072C55.5967 41.9001 56.0066 41.9905 56.2002 42.288C56.4051 42.5855 56.3157 42.9883 56.0212 43.1954L52.1124 45.8501L56.0212 48.5049C56.3157 48.712 56.3937 49.1131 56.2002 49.4122C56.0717 49.6062 55.8667 49.6966 55.6617 49.6966Z" fill="url(#paint8_linear_168_179)"/>
<path fill-rule="evenodd" clip-rule="evenodd" d="M64.3383 49.6966C64.1333 49.6966 63.9284 49.5931 63.7999 49.4122C63.5949 49.1147 63.6844 48.7005 63.9788 48.5049L67.8876 45.8501L63.9788 43.1954C63.6844 42.9883 63.6063 42.5872 63.7999 42.288C64.0048 41.9905 64.4017 41.9116 64.6978 42.1072L69.402 45.306C69.581 45.4227 69.6834 45.6298 69.6834 45.8501C69.6834 46.0704 69.581 46.2775 69.402 46.3942L64.6978 49.5931C64.5953 49.6703 64.4668 49.6966 64.3383 49.6966Z" fill="url(#paint9_linear_168_179)"/>
<path fill-rule="evenodd" clip-rule="evenodd" d="M71.0043 53.4264H57.0834C56.7239 53.4264 56.4295 53.1289 56.4295 52.7656C56.4295 52.4023 56.7239 52.1048 57.0834 52.1048H71.0043C71.3638 52.1048 71.6582 52.4023 71.6582 52.7656C71.6452 53.1289 71.3621 53.4264 71.0043 53.4264Z" fill="url(#paint10_linear_168_179)"/>
<path fill-rule="evenodd" clip-rule="evenodd" d="M71.0043 57.1447H57.0834C56.7239 57.1447 56.4295 56.8472 56.4295 56.4839C56.4295 56.1206 56.7239 55.8231 57.0834 55.8231H71.0043C71.3638 55.8231 71.6582 56.1206 71.6582 56.4839C71.6452 56.8587 71.3621 57.1447 71.0043 57.1447Z" fill="url(#paint11_linear_168_179)"/>
<path fill-rule="evenodd" clip-rule="evenodd" d="M71.0043 60.8614H57.9423C57.5828 60.8614 57.2884 60.5638 57.2884 60.2006C57.2884 59.8373 57.5828 59.5397 57.9423 59.5397H71.0043C71.3638 59.5397 71.6582 59.8373 71.6582 60.2006C71.6452 60.577 71.3621 60.8614 71.0043 60.8614Z" fill="url(#paint12_linear_168_179)"/>
<path fill-rule="evenodd" clip-rule="evenodd" d="M36.2038 34.7232C34.7301 34.7232 33.5377 35.9281 33.5377 37.4174V71.3538C33.5377 72.8431 34.7301 74.048 36.2038 74.048H83.7832C85.2569 74.048 86.4493 72.8431 86.4493 71.3538V37.4174C86.4493 35.9281 85.2569 34.7232 83.7832 34.7232H77.0668V61.6142C77.0668 63.0904 75.8744 64.2953 74.4137 64.2953H45.5603C44.0995 64.2953 42.9072 63.0904 42.9072 61.6142V34.7232H36.2038ZM83.7962 75.3565H36.2038C34.0241 75.3565 32.2429 73.5565 32.2429 71.3538V37.4174C32.2429 35.2147 34.0241 33.4147 36.2038 33.4147H43.5741C43.9336 33.4147 44.228 33.7122 44.228 34.0755V61.6274C44.228 62.3786 44.8299 63 45.5863 63H74.4397C75.1831 63 75.798 62.3918 75.798 61.6274V34.0755C75.798 33.7122 76.0924 33.4147 76.4519 33.4147H83.8222C86.0019 33.4147 87.7831 35.2147 87.7831 37.4174V71.3538C87.7571 73.5565 85.9759 75.3565 83.7962 75.3565Z" fill="url(#paint13_linear_168_179)"/>
<path fill-rule="evenodd" clip-rule="evenodd" d="M87.1032 67.5977H32.8968C32.5373 67.5977 32.2429 67.3002 32.2429 66.9369C32.2429 66.5736 32.5373 66.2761 32.8968 66.2761H87.1032C87.4627 66.2761 87.7571 66.5736 87.7571 66.9369C87.7571 67.3002 87.4627 67.5977 87.1032 67.5977Z" fill="url(#paint14_linear_168_179)"/>
<path fill-rule="evenodd" clip-rule="evenodd" d="M51.4178 84.3333C51.3023 84.3333 51.1999 84.307 51.0974 84.2429C50.7899 84.0621 50.6875 83.6593 50.8534 83.3487L55.9806 74.3718C56.1595 74.0611 56.558 73.9576 56.8655 74.1252C57.1729 74.3061 57.2754 74.7088 57.1095 75.0195L51.9823 83.9963C51.8538 84.2166 51.6358 84.3333 51.4178 84.3333Z" fill="url(#paint15_linear_168_179)"/>
<path fill-rule="evenodd" clip-rule="evenodd" d="M68.5936 84.3333C68.3756 84.3333 68.1576 84.2166 68.0291 84.0095L62.9036 75.0326C62.7246 74.7219 62.8271 74.3209 63.1346 74.1384C63.442 73.9576 63.8389 74.0611 64.0195 74.385L69.1466 83.3618C69.3256 83.6725 69.2231 84.0736 68.9157 84.256C68.8116 84.307 68.6961 84.3333 68.5936 84.3333Z" fill="url(#paint16_linear_168_179)"/>
<path fill-rule="evenodd" clip-rule="evenodd" d="M49.5081 87.0916H70.5033V85.7059C70.5033 84.9415 69.8884 84.3201 69.132 84.3201H50.8794C50.123 84.3201 49.5081 84.9415 49.5081 85.7059V87.0916ZM71.1458 88.4001H48.8542C48.4947 88.4001 48.2003 88.1025 48.2003 87.7393V85.7059C48.2003 84.2166 49.3926 83.0117 50.8664 83.0117H69.119C70.5927 83.0117 71.7851 84.2166 71.7851 85.7059V87.7393C71.7981 88.1157 71.5036 88.4001 71.1458 88.4001Z" fill="url(#paint17_linear_168_179)"/>
<path fill-rule="evenodd" clip-rule="evenodd" d="M49.7261 59.5529H54.7378C54.4564 58.4252 53.43 57.5968 52.2263 57.5968C51.0339 57.5984 50.0205 58.4269 49.7261 59.5529ZM55.4682 60.8614H48.9957C48.6363 60.8614 48.3418 60.5638 48.3418 60.2006C48.3418 58.0373 50.0856 56.2751 52.2263 56.2751C54.3669 56.2751 56.1107 58.0373 56.1107 60.2006C56.1221 60.577 55.8277 60.8614 55.4682 60.8614Z" fill="url(#paint18_linear_168_179)"/>
<path fill-rule="evenodd" clip-rule="evenodd" d="M52.2393 53.4264C51.4569 53.4264 50.816 54.0741 50.816 54.8648C50.816 55.6554 51.4569 56.3031 52.2393 56.3031C53.0217 56.3031 53.6626 55.6554 53.6626 54.8648C53.648 54.0609 53.0201 53.4264 52.2393 53.4264ZM52.2393 57.5984C50.7395 57.5984 49.5212 56.3672 49.5212 54.8516C49.5212 53.336 50.7395 52.1048 52.2393 52.1048C53.739 52.1048 54.9574 53.336 54.9574 54.8516C54.9428 56.3672 53.726 57.5984 52.2393 57.5984Z" fill="url(#paint19_linear_168_179)"/>
<path fill-rule="evenodd" clip-rule="evenodd" d="M45.5733 32.5731C44.8299 32.5731 44.215 33.1813 44.215 33.9457V61.6257C44.215 62.377 44.8169 62.9983 45.5733 62.9983H74.4267C75.1701 62.9983 75.785 62.3901 75.785 61.6257V33.9325C75.785 33.1813 75.1831 32.5599 74.4267 32.5599L45.5733 32.5731ZM74.4267 64.2953H45.5733C44.1126 64.2953 42.9202 63.0904 42.9202 61.6142V33.9325C42.9202 32.4564 44.1126 31.2515 45.5733 31.2515H74.4267C75.8875 31.2515 77.0798 32.4564 77.0798 33.9325V61.6126C77.0668 63.0904 75.8875 64.2953 74.4267 64.2953Z" stroke="url(#paint20_linear_168_179)" stroke-width="0.6" mask="url(#path-2-outside-1_168_179)"/>
<path fill-rule="evenodd" clip-rule="evenodd" d="M76.4259 39.865H43.5741C43.2146 39.865 42.9202 39.5675 42.9202 39.2042C42.9202 38.8409 43.2146 38.5434 43.5741 38.5434H76.4259C76.7854 38.5434 77.0798 38.8409 77.0798 39.2042C77.0668 39.5806 76.7854 39.865 76.4259 39.865Z" stroke="url(#paint21_linear_168_179)" stroke-width="0.6" mask="url(#path-2-outside-1_168_179)"/>
<path fill-rule="evenodd" clip-rule="evenodd" d="M48.4069 34.9944C48.0995 34.9944 47.8425 35.2541 47.8425 35.5648C47.8425 35.8755 48.0995 36.1352 48.4069 36.1352H55.1998C55.5072 36.1352 55.7642 35.8755 55.7642 35.5648C55.7642 35.2541 55.5072 34.9944 55.1998 34.9944H48.4069ZM55.1998 37.442H48.4069C47.3821 37.442 46.5476 36.6004 46.5476 35.5632C46.5476 34.5259 47.3805 33.6843 48.4069 33.6843H55.1998C56.2246 33.6843 57.059 34.5259 57.059 35.5632C57.059 36.6004 56.2246 37.442 55.1998 37.442Z" stroke="url(#paint22_linear_168_179)" stroke-width="0.6" mask="url(#path-2-outside-1_168_179)"/>
<path fill-rule="evenodd" clip-rule="evenodd" d="M61.3778 36.2125H59.4421C59.0826 36.2125 58.7882 35.9149 58.7882 35.5517C58.7882 35.1884 59.0826 34.8909 59.4421 34.8909H61.3778C61.7373 34.8909 62.0317 35.1884 62.0317 35.5517C62.0317 35.9281 61.7373 36.2125 61.3778 36.2125Z" stroke="url(#paint23_linear_168_179)" stroke-width="0.6" mask="url(#path-2-outside-1_168_179)"/>
<path fill-rule="evenodd" clip-rule="evenodd" d="M66.3504 36.2125H64.4147C64.0552 36.2125 63.7608 35.9149 63.7608 35.5517C63.7608 35.1884 64.0552 34.8909 64.4147 34.8909H66.3504C66.7099 34.8909 67.0043 35.1884 67.0043 35.5517C66.9913 35.9281 66.7099 36.2125 66.3504 36.2125Z" stroke="url(#paint24_linear_168_179)" stroke-width="0.6" mask="url(#path-2-outside-1_168_179)"/>
<path fill-rule="evenodd" clip-rule="evenodd" d="M71.3117 36.2125H69.389C69.0295 36.2125 68.7351 35.9149 68.7351 35.5517C68.7351 35.1884 69.0295 34.8909 69.389 34.8909H71.3247C71.6842 34.8909 71.9786 35.1884 71.9786 35.5517C71.9656 35.9281 71.6712 36.2125 71.3117 36.2125Z" stroke="url(#paint25_linear_168_179)" stroke-width="0.6" mask="url(#path-2-outside-1_168_179)"/>
<path fill-rule="evenodd" clip-rule="evenodd" d="M61.1858 49.6966C60.9288 49.6966 60.6734 49.5405 60.584 49.2692L58.2123 42.8567C58.0838 42.5198 58.2514 42.145 58.5962 42.0151C58.9297 41.8853 59.3005 42.0677 59.4291 42.4031L61.8007 48.8155C61.9292 49.1525 61.7617 49.5273 61.4168 49.6572C61.3387 49.6835 61.2623 49.6966 61.1858 49.6966Z" stroke="url(#paint26_linear_168_179)" stroke-width="0.6" mask="url(#path-2-outside-1_168_179)"/>
<path fill-rule="evenodd" clip-rule="evenodd" d="M55.6617 49.6966C55.5332 49.6966 55.4047 49.6572 55.3023 49.5799L50.598 46.3942C50.4191 46.2775 50.3166 46.0704 50.3166 45.8501C50.3166 45.6298 50.4191 45.4227 50.598 45.306L55.3023 42.1072C55.5967 41.9001 56.0066 41.9905 56.2002 42.288C56.4051 42.5855 56.3157 42.9883 56.0212 43.1954L52.1124 45.8501L56.0212 48.5049C56.3157 48.712 56.3937 49.1131 56.2002 49.4122C56.0717 49.6062 55.8667 49.6966 55.6617 49.6966Z" stroke="url(#paint27_linear_168_179)" stroke-width="0.6" mask="url(#path-2-outside-1_168_179)"/>
<path fill-rule="evenodd" clip-rule="evenodd" d="M64.3383 49.6966C64.1333 49.6966 63.9284 49.5931 63.7999 49.4122C63.5949 49.1147 63.6844 48.7005 63.9788 48.5049L67.8876 45.8501L63.9788 43.1954C63.6844 42.9883 63.6063 42.5872 63.7999 42.288C64.0048 41.9905 64.4017 41.9116 64.6978 42.1072L69.402 45.306C69.581 45.4227 69.6834 45.6298 69.6834 45.8501C69.6834 46.0704 69.581 46.2775 69.402 46.3942L64.6978 49.5931C64.5953 49.6703 64.4668 49.6966 64.3383 49.6966Z" stroke="url(#paint28_linear_168_179)" stroke-width="0.6" mask="url(#path-2-outside-1_168_179)"/>
<path fill-rule="evenodd" clip-rule="evenodd" d="M71.0043 53.4264H57.0834C56.7239 53.4264 56.4295 53.1289 56.4295 52.7656C56.4295 52.4023 56.7239 52.1048 57.0834 52.1048H71.0043C71.3638 52.1048 71.6582 52.4023 71.6582 52.7656C71.6452 53.1289 71.3621 53.4264 71.0043 53.4264Z" stroke="url(#paint29_linear_168_179)" stroke-width="0.6" mask="url(#path-2-outside-1_168_179)"/>
<path fill-rule="evenodd" clip-rule="evenodd" d="M71.0043 57.1447H57.0834C56.7239 57.1447 56.4295 56.8472 56.4295 56.4839C56.4295 56.1206 56.7239 55.8231 57.0834 55.8231H71.0043C71.3638 55.8231 71.6582 56.1206 71.6582 56.4839C71.6452 56.8587 71.3621 57.1447 71.0043 57.1447Z" stroke="url(#paint30_linear_168_179)" stroke-width="0.6" mask="url(#path-2-outside-1_168_179)"/>
<path fill-rule="evenodd" clip-rule="evenodd" d="M71.0043 60.8614H57.9423C57.5828 60.8614 57.2884 60.5638 57.2884 60.2006C57.2884 59.8373 57.5828 59.5397 57.9423 59.5397H71.0043C71.3638 59.5397 71.6582 59.8373 71.6582 60.2006C71.6452 60.577 71.3621 60.8614 71.0043 60.8614Z" stroke="url(#paint31_linear_168_179)" stroke-width="0.6" mask="url(#path-2-outside-1_168_179)"/>
<path fill-rule="evenodd" clip-rule="evenodd" d="M36.2038 34.7232C34.7301 34.7232 33.5377 35.9281 33.5377 37.4174V71.3538C33.5377 72.8431 34.7301 74.048 36.2038 74.048H83.7832C85.2569 74.048 86.4493 72.8431 86.4493 71.3538V37.4174C86.4493 35.9281 85.2569 34.7232 83.7832 34.7232H77.0668V61.6142C77.0668 63.0904 75.8744 64.2953 74.4137 64.2953H45.5603C44.0995 64.2953 42.9072 63.0904 42.9072 61.6142V34.7232H36.2038ZM83.7962 75.3565H36.2038C34.0241 75.3565 32.2429 73.5565 32.2429 71.3538V37.4174C32.2429 35.2147 34.0241 33.4147 36.2038 33.4147H43.5741C43.9336 33.4147 44.228 33.7122 44.228 34.0755V61.6274C44.228 62.3786 44.8299 63 45.5863 63H74.4397C75.1831 63 75.798 62.3918 75.798 61.6274V34.0755C75.798 33.7122 76.0924 33.4147 76.4519 33.4147H83.8222C86.0019 33.4147 87.7831 35.2147 87.7831 37.4174V71.3538C87.7571 73.5565 85.9759 75.3565 83.7962 75.3565Z" stroke="url(#paint32_linear_168_179)" stroke-width="0.6" mask="url(#path-2-outside-1_168_179)"/>
<path fill-rule="evenodd" clip-rule="evenodd" d="M87.1032 67.5977H32.8968C32.5373 67.5977 32.2429 67.3002 32.2429 66.9369C32.2429 66.5736 32.5373 66.2761 32.8968 66.2761H87.1032C87.4627 66.2761 87.7571 66.5736 87.7571 66.9369C87.7571 67.3002 87.4627 67.5977 87.1032 67.5977Z" stroke="url(#paint33_linear_168_179)" stroke-width="0.6" mask="url(#path-2-outside-1_168_179)"/>
<path fill-rule="evenodd" clip-rule="evenodd" d="M51.4178 84.3333C51.3023 84.3333 51.1999 84.307 51.0974 84.2429C50.7899 84.0621 50.6875 83.6593 50.8534 83.3487L55.9806 74.3718C56.1595 74.0611 56.558 73.9576 56.8655 74.1252C57.1729 74.3061 57.2754 74.7088 57.1095 75.0195L51.9823 83.9963C51.8538 84.2166 51.6358 84.3333 51.4178 84.3333Z" stroke="url(#paint34_linear_168_179)" stroke-width="0.6" mask="url(#path-2-outside-1_168_179)"/>
<path fill-rule="evenodd" clip-rule="evenodd" d="M68.5936 84.3333C68.3756 84.3333 68.1576 84.2166 68.0291 84.0095L62.9036 75.0326C62.7246 74.7219 62.8271 74.3209 63.1346 74.1384C63.442 73.9576 63.8389 74.0611 64.0195 74.385L69.1466 83.3618C69.3256 83.6725 69.2231 84.0736 68.9157 84.256C68.8116 84.307 68.6961 84.3333 68.5936 84.3333Z" stroke="url(#paint35_linear_168_179)" stroke-width="0.6" mask="url(#path-2-outside-1_168_179)"/>
<path fill-rule="evenodd" clip-rule="evenodd" d="M49.5081 87.0916H70.5033V85.7059C70.5033 84.9415 69.8884 84.3201 69.132 84.3201H50.8794C50.123 84.3201 49.5081 84.9415 49.5081 85.7059V87.0916ZM71.1458 88.4001H48.8542C48.4947 88.4001 48.2003 88.1025 48.2003 87.7393V85.7059C48.2003 84.2166 49.3926 83.0117 50.8664 83.0117H69.119C70.5927 83.0117 71.7851 84.2166 71.7851 85.7059V87.7393C71.7981 88.1157 71.5036 88.4001 71.1458 88.4001Z" stroke="url(#paint36_linear_168_179)" stroke-width="0.6" mask="url(#path-2-outside-1_168_179)"/>
<path fill-rule="evenodd" clip-rule="evenodd" d="M49.7261 59.5529H54.7378C54.4564 58.4252 53.43 57.5968 52.2263 57.5968C51.0339 57.5984 50.0205 58.4269 49.7261 59.5529ZM55.4682 60.8614H48.9957C48.6363 60.8614 48.3418 60.5638 48.3418 60.2006C48.3418 58.0373 50.0856 56.2751 52.2263 56.2751C54.3669 56.2751 56.1107 58.0373 56.1107 60.2006C56.1221 60.577 55.8277 60.8614 55.4682 60.8614Z" stroke="url(#paint37_linear_168_179)" stroke-width="0.6" mask="url(#path-2-outside-1_168_179)"/>
<path fill-rule="evenodd" clip-rule="evenodd" d="M52.2393 53.4264C51.4569 53.4264 50.816 54.0741 50.816 54.8648C50.816 55.6554 51.4569 56.3031 52.2393 56.3031C53.0217 56.3031 53.6626 55.6554 53.6626 54.8648C53.648 54.0609 53.0201 53.4264 52.2393 53.4264ZM52.2393 57.5984C50.7395 57.5984 49.5212 56.3672 49.5212 54.8516C49.5212 53.336 50.7395 52.1048 52.2393 52.1048C53.739 52.1048 54.9574 53.336 54.9574 54.8516C54.9428 56.3672 53.726 57.5984 52.2393 57.5984Z" stroke="url(#paint38_linear_168_179)" stroke-width="0.6" mask="url(#path-2-outside-1_168_179)"/>
<mask id="path-3-inside-2_168_179" fill="white">
<path fill-rule="evenodd" clip-rule="evenodd" d="M45.5733 32.5731C44.8299 32.5731 44.215 33.1813 44.215 33.9457V61.6257C44.215 62.377 44.8169 62.9983 45.5733 62.9983H74.4267C75.1701 62.9983 75.785 62.3901 75.785 61.6257V33.9325C75.785 33.1813 75.1831 32.5599 74.4267 32.5599L45.5733 32.5731ZM74.4267 64.2953H45.5733C44.1126 64.2953 42.9202 63.0904 42.9202 61.6142V33.9325C42.9202 32.4564 44.1126 31.2515 45.5733 31.2515H74.4267C75.8875 31.2515 77.0798 32.4564 77.0798 33.9325V61.6126C77.0668 63.0904 75.8875 64.2953 74.4267 64.2953Z"/>
<path fill-rule="evenodd" clip-rule="evenodd" d="M76.4259 39.865H43.5741C43.2146 39.865 42.9202 39.5675 42.9202 39.2042C42.9202 38.8409 43.2146 38.5434 43.5741 38.5434H76.4259C76.7854 38.5434 77.0798 38.8409 77.0798 39.2042C77.0668 39.5806 76.7854 39.865 76.4259 39.865Z"/>
<path fill-rule="evenodd" clip-rule="evenodd" d="M48.4069 34.9944C48.0995 34.9944 47.8425 35.2541 47.8425 35.5648C47.8425 35.8755 48.0995 36.1352 48.4069 36.1352H55.1998C55.5072 36.1352 55.7642 35.8755 55.7642 35.5648C55.7642 35.2541 55.5072 34.9944 55.1998 34.9944H48.4069ZM55.1998 37.442H48.4069C47.3821 37.442 46.5476 36.6004 46.5476 35.5632C46.5476 34.5259 47.3805 33.6843 48.4069 33.6843H55.1998C56.2246 33.6843 57.059 34.5259 57.059 35.5632C57.059 36.6004 56.2246 37.442 55.1998 37.442Z"/>
<path fill-rule="evenodd" clip-rule="evenodd" d="M61.3778 36.2125H59.4421C59.0826 36.2125 58.7882 35.9149 58.7882 35.5517C58.7882 35.1884 59.0826 34.8909 59.4421 34.8909H61.3778C61.7373 34.8909 62.0317 35.1884 62.0317 35.5517C62.0317 35.9281 61.7373 36.2125 61.3778 36.2125Z"/>
<path fill-rule="evenodd" clip-rule="evenodd" d="M66.3504 36.2125H64.4147C64.0552 36.2125 63.7608 35.9149 63.7608 35.5517C63.7608 35.1884 64.0552 34.8909 64.4147 34.8909H66.3504C66.7099 34.8909 67.0043 35.1884 67.0043 35.5517C66.9913 35.9281 66.7099 36.2125 66.3504 36.2125Z"/>
<path fill-rule="evenodd" clip-rule="evenodd" d="M71.3117 36.2125H69.389C69.0295 36.2125 68.7351 35.9149 68.7351 35.5517C68.7351 35.1884 69.0295 34.8909 69.389 34.8909H71.3247C71.6842 34.8909 71.9786 35.1884 71.9786 35.5517C71.9656 35.9281 71.6712 36.2125 71.3117 36.2125Z"/>
<path fill-rule="evenodd" clip-rule="evenodd" d="M61.1858 49.6966C60.9288 49.6966 60.6734 49.5405 60.584 49.2692L58.2123 42.8567C58.0838 42.5198 58.2514 42.145 58.5962 42.0151C58.9297 41.8853 59.3005 42.0677 59.4291 42.4031L61.8007 48.8155C61.9292 49.1525 61.7617 49.5273 61.4168 49.6572C61.3387 49.6835 61.2623 49.6966 61.1858 49.6966Z"/>
<path fill-rule="evenodd" clip-rule="evenodd" d="M55.6617 49.6966C55.5332 49.6966 55.4047 49.6572 55.3023 49.5799L50.598 46.3942C50.4191 46.2775 50.3166 46.0704 50.3166 45.8501C50.3166 45.6298 50.4191 45.4227 50.598 45.306L55.3023 42.1072C55.5967 41.9001 56.0066 41.9905 56.2002 42.288C56.4051 42.5855 56.3157 42.9883 56.0212 43.1954L52.1124 45.8501L56.0212 48.5049C56.3157 48.712 56.3937 49.1131 56.2002 49.4122C56.0717 49.6062 55.8667 49.6966 55.6617 49.6966Z"/>
<path fill-rule="evenodd" clip-rule="evenodd" d="M64.3383 49.6966C64.1333 49.6966 63.9284 49.5931 63.7999 49.4122C63.5949 49.1147 63.6844 48.7005 63.9788 48.5049L67.8876 45.8501L63.9788 43.1954C63.6844 42.9883 63.6063 42.5872 63.7999 42.288C64.0048 41.9905 64.4017 41.9116 64.6978 42.1072L69.402 45.306C69.581 45.4227 69.6834 45.6298 69.6834 45.8501C69.6834 46.0704 69.581 46.2775 69.402 46.3942L64.6978 49.5931C64.5953 49.6703 64.4668 49.6966 64.3383 49.6966Z"/>
<path fill-rule="evenodd" clip-rule="evenodd" d="M71.0043 53.4264H57.0834C56.7239 53.4264 56.4295 53.1289 56.4295 52.7656C56.4295 52.4023 56.7239 52.1048 57.0834 52.1048H71.0043C71.3638 52.1048 71.6582 52.4023 71.6582 52.7656C71.6452 53.1289 71.3621 53.4264 71.0043 53.4264Z"/>
<path fill-rule="evenodd" clip-rule="evenodd" d="M71.0043 57.1447H57.0834C56.7239 57.1447 56.4295 56.8472 56.4295 56.4839C56.4295 56.1206 56.7239 55.8231 57.0834 55.8231H71.0043C71.3638 55.8231 71.6582 56.1206 71.6582 56.4839C71.6452 56.8587 71.3621 57.1447 71.0043 57.1447Z"/>
<path fill-rule="evenodd" clip-rule="evenodd" d="M71.0043 60.8614H57.9423C57.5828 60.8614 57.2884 60.5638 57.2884 60.2006C57.2884 59.8373 57.5828 59.5397 57.9423 59.5397H71.0043C71.3638 59.5397 71.6582 59.8373 71.6582 60.2006C71.6452 60.577 71.3621 60.8614 71.0043 60.8614Z"/>
<path fill-rule="evenodd" clip-rule="evenodd" d="M36.2038 34.7232C34.7301 34.7232 33.5377 35.9281 33.5377 37.4174V71.3538C33.5377 72.8431 34.7301 74.048 36.2038 74.048H83.7832C85.2569 74.048 86.4493 72.8431 86.4493 71.3538V37.4174C86.4493 35.9281 85.2569 34.7232 83.7832 34.7232H77.0668V61.6142C77.0668 63.0904 75.8744 64.2953 74.4137 64.2953H45.5603C44.0995 64.2953 42.9072 63.0904 42.9072 61.6142V34.7232H36.2038ZM83.7962 75.3565H36.2038C34.0241 75.3565 32.2429 73.5565 32.2429 71.3538V37.4174C32.2429 35.2147 34.0241 33.4147 36.2038 33.4147H43.5741C43.9336 33.4147 44.228 33.7122 44.228 34.0755V61.6274C44.228 62.3786 44.8299 63 45.5863 63H74.4397C75.1831 63 75.798 62.3918 75.798 61.6274V34.0755C75.798 33.7122 76.0924 33.4147 76.4519 33.4147H83.8222C86.0019 33.4147 87.7831 35.2147 87.7831 37.4174V71.3538C87.7571 73.5565 85.9759 75.3565 83.7962 75.3565Z"/>
<path fill-rule="evenodd" clip-rule="evenodd" d="M87.1032 67.5977H32.8968C32.5373 67.5977 32.2429 67.3002 32.2429 66.9369C32.2429 66.5736 32.5373 66.2761 32.8968 66.2761H87.1032C87.4627 66.2761 87.7571 66.5736 87.7571 66.9369C87.7571 67.3002 87.4627 67.5977 87.1032 67.5977Z"/>
<path fill-rule="evenodd" clip-rule="evenodd" d="M51.4178 84.3333C51.3023 84.3333 51.1999 84.307 51.0974 84.2429C50.7899 84.0621 50.6875 83.6593 50.8534 83.3487L55.9806 74.3718C56.1595 74.0611 56.558 73.9576 56.8655 74.1252C57.1729 74.3061 57.2754 74.7088 57.1095 75.0195L51.9823 83.9963C51.8538 84.2166 51.6358 84.3333 51.4178 84.3333Z"/>
<path fill-rule="evenodd" clip-rule="evenodd" d="M68.5936 84.3333C68.3756 84.3333 68.1576 84.2166 68.0291 84.0095L62.9036 75.0326C62.7246 74.7219 62.8271 74.3209 63.1346 74.1384C63.442 73.9576 63.8389 74.0611 64.0195 74.385L69.1466 83.3618C69.3256 83.6725 69.2231 84.0736 68.9157 84.256C68.8116 84.307 68.6961 84.3333 68.5936 84.3333Z"/>
<path fill-rule="evenodd" clip-rule="evenodd" d="M49.5081 87.0916H70.5033V85.7059C70.5033 84.9415 69.8884 84.3201 69.132 84.3201H50.8794C50.123 84.3201 49.5081 84.9415 49.5081 85.7059V87.0916ZM71.1458 88.4001H48.8542C48.4947 88.4001 48.2003 88.1025 48.2003 87.7393V85.7059C48.2003 84.2166 49.3926 83.0117 50.8664 83.0117H69.119C70.5927 83.0117 71.7851 84.2166 71.7851 85.7059V87.7393C71.7981 88.1157 71.5036 88.4001 71.1458 88.4001Z"/>
<path fill-rule="evenodd" clip-rule="evenodd" d="M49.7261 59.5529H54.7378C54.4564 58.4252 53.43 57.5968 52.2263 57.5968C51.0339 57.5984 50.0205 58.4269 49.7261 59.5529ZM55.4682 60.8614H48.9957C48.6363 60.8614 48.3418 60.5638 48.3418 60.2006C48.3418 58.0373 50.0856 56.2751 52.2263 56.2751C54.3669 56.2751 56.1107 58.0373 56.1107 60.2006C56.1221 60.577 55.8277 60.8614 55.4682 60.8614Z"/>
<path fill-rule="evenodd" clip-rule="evenodd" d="M52.2393 53.4264C51.4569 53.4264 50.816 54.0741 50.816 54.8648C50.816 55.6554 51.4569 56.3031 52.2393 56.3031C53.0217 56.3031 53.6626 55.6554 53.6626 54.8648C53.648 54.0609 53.0201 53.4264 52.2393 53.4264ZM52.2393 57.5984C50.7395 57.5984 49.5212 56.3672 49.5212 54.8516C49.5212 53.336 50.7395 52.1048 52.2393 52.1048C53.739 52.1048 54.9574 53.336 54.9574 54.8516C54.9428 56.3672 53.726 57.5984 52.2393 57.5984Z"/>
</mask>
<path fill-rule="evenodd" clip-rule="evenodd" d="M45.5733 32.5731C44.8299 32.5731 44.215 33.1813 44.215 33.9457V61.6257C44.215 62.377 44.8169 62.9983 45.5733 62.9983H74.4267C75.1701 62.9983 75.785 62.3901 75.785 61.6257V33.9325C75.785 33.1813 75.1831 32.5599 74.4267 32.5599L45.5733 32.5731ZM74.4267 64.2953H45.5733C44.1126 64.2953 42.9202 63.0904 42.9202 61.6142V33.9325C42.9202 32.4564 44.1126 31.2515 45.5733 31.2515H74.4267C75.8875 31.2515 77.0798 32.4564 77.0798 33.9325V61.6126C77.0668 63.0904 75.8875 64.2953 74.4267 64.2953Z" stroke="url(#paint39_linear_168_179)" stroke-width="2" mask="url(#path-3-inside-2_168_179)"/>
<path fill-rule="evenodd" clip-rule="evenodd" d="M76.4259 39.865H43.5741C43.2146 39.865 42.9202 39.5675 42.9202 39.2042C42.9202 38.8409 43.2146 38.5434 43.5741 38.5434H76.4259C76.7854 38.5434 77.0798 38.8409 77.0798 39.2042C77.0668 39.5806 76.7854 39.865 76.4259 39.865Z" stroke="url(#paint40_linear_168_179)" stroke-width="2" mask="url(#path-3-inside-2_168_179)"/>
<path fill-rule="evenodd" clip-rule="evenodd" d="M48.4069 34.9944C48.0995 34.9944 47.8425 35.2541 47.8425 35.5648C47.8425 35.8755 48.0995 36.1352 48.4069 36.1352H55.1998C55.5072 36.1352 55.7642 35.8755 55.7642 35.5648C55.7642 35.2541 55.5072 34.9944 55.1998 34.9944H48.4069ZM55.1998 37.442H48.4069C47.3821 37.442 46.5476 36.6004 46.5476 35.5632C46.5476 34.5259 47.3805 33.6843 48.4069 33.6843H55.1998C56.2246 33.6843 57.059 34.5259 57.059 35.5632C57.059 36.6004 56.2246 37.442 55.1998 37.442Z" stroke="url(#paint41_linear_168_179)" stroke-width="2" mask="url(#path-3-inside-2_168_179)"/>
<path fill-rule="evenodd" clip-rule="evenodd" d="M61.3778 36.2125H59.4421C59.0826 36.2125 58.7882 35.9149 58.7882 35.5517C58.7882 35.1884 59.0826 34.8909 59.4421 34.8909H61.3778C61.7373 34.8909 62.0317 35.1884 62.0317 35.5517C62.0317 35.9281 61.7373 36.2125 61.3778 36.2125Z" stroke="url(#paint42_linear_168_179)" stroke-width="2" mask="url(#path-3-inside-2_168_179)"/>
<path fill-rule="evenodd" clip-rule="evenodd" d="M66.3504 36.2125H64.4147C64.0552 36.2125 63.7608 35.9149 63.7608 35.5517C63.7608 35.1884 64.0552 34.8909 64.4147 34.8909H66.3504C66.7099 34.8909 67.0043 35.1884 67.0043 35.5517C66.9913 35.9281 66.7099 36.2125 66.3504 36.2125Z" stroke="url(#paint43_linear_168_179)" stroke-width="2" mask="url(#path-3-inside-2_168_179)"/>
<path fill-rule="evenodd" clip-rule="evenodd" d="M71.3117 36.2125H69.389C69.0295 36.2125 68.7351 35.9149 68.7351 35.5517C68.7351 35.1884 69.0295 34.8909 69.389 34.8909H71.3247C71.6842 34.8909 71.9786 35.1884 71.9786 35.5517C71.9656 35.9281 71.6712 36.2125 71.3117 36.2125Z" stroke="url(#paint44_linear_168_179)" stroke-width="2" mask="url(#path-3-inside-2_168_179)"/>
<path fill-rule="evenodd" clip-rule="evenodd" d="M61.1858 49.6966C60.9288 49.6966 60.6734 49.5405 60.584 49.2692L58.2123 42.8567C58.0838 42.5198 58.2514 42.145 58.5962 42.0151C58.9297 41.8853 59.3005 42.0677 59.4291 42.4031L61.8007 48.8155C61.9292 49.1525 61.7617 49.5273 61.4168 49.6572C61.3387 49.6835 61.2623 49.6966 61.1858 49.6966Z" stroke="url(#paint45_linear_168_179)" stroke-width="2" mask="url(#path-3-inside-2_168_179)"/>
<path fill-rule="evenodd" clip-rule="evenodd" d="M55.6617 49.6966C55.5332 49.6966 55.4047 49.6572 55.3023 49.5799L50.598 46.3942C50.4191 46.2775 50.3166 46.0704 50.3166 45.8501C50.3166 45.6298 50.4191 45.4227 50.598 45.306L55.3023 42.1072C55.5967 41.9001 56.0066 41.9905 56.2002 42.288C56.4051 42.5855 56.3157 42.9883 56.0212 43.1954L52.1124 45.8501L56.0212 48.5049C56.3157 48.712 56.3937 49.1131 56.2002 49.4122C56.0717 49.6062 55.8667 49.6966 55.6617 49.6966Z" stroke="url(#paint46_linear_168_179)" stroke-width="2" mask="url(#path-3-inside-2_168_179)"/>
<path fill-rule="evenodd" clip-rule="evenodd" d="M64.3383 49.6966C64.1333 49.6966 63.9284 49.5931 63.7999 49.4122C63.5949 49.1147 63.6844 48.7005 63.9788 48.5049L67.8876 45.8501L63.9788 43.1954C63.6844 42.9883 63.6063 42.5872 63.7999 42.288C64.0048 41.9905 64.4017 41.9116 64.6978 42.1072L69.402 45.306C69.581 45.4227 69.6834 45.6298 69.6834 45.8501C69.6834 46.0704 69.581 46.2775 69.402 46.3942L64.6978 49.5931C64.5953 49.6703 64.4668 49.6966 64.3383 49.6966Z" stroke="url(#paint47_linear_168_179)" stroke-width="2" mask="url(#path-3-inside-2_168_179)"/>
<path fill-rule="evenodd" clip-rule="evenodd" d="M71.0043 53.4264H57.0834C56.7239 53.4264 56.4295 53.1289 56.4295 52.7656C56.4295 52.4023 56.7239 52.1048 57.0834 52.1048H71.0043C71.3638 52.1048 71.6582 52.4023 71.6582 52.7656C71.6452 53.1289 71.3621 53.4264 71.0043 53.4264Z" stroke="url(#paint48_linear_168_179)" stroke-width="2" mask="url(#path-3-inside-2_168_179)"/>
<path fill-rule="evenodd" clip-rule="evenodd" d="M71.0043 57.1447H57.0834C56.7239 57.1447 56.4295 56.8472 56.4295 56.4839C56.4295 56.1206 56.7239 55.8231 57.0834 55.8231H71.0043C71.3638 55.8231 71.6582 56.1206 71.6582 56.4839C71.6452 56.8587 71.3621 57.1447 71.0043 57.1447Z" stroke="url(#paint49_linear_168_179)" stroke-width="2" mask="url(#path-3-inside-2_168_179)"/>
<path fill-rule="evenodd" clip-rule="evenodd" d="M71.0043 60.8614H57.9423C57.5828 60.8614 57.2884 60.5638 57.2884 60.2006C57.2884 59.8373 57.5828 59.5397 57.9423 59.5397H71.0043C71.3638 59.5397 71.6582 59.8373 71.6582 60.2006C71.6452 60.577 71.3621 60.8614 71.0043 60.8614Z" stroke="url(#paint50_linear_168_179)" stroke-width="2" mask="url(#path-3-inside-2_168_179)"/>
<path fill-rule="evenodd" clip-rule="evenodd" d="M36.2038 34.7232C34.7301 34.7232 33.5377 35.9281 33.5377 37.4174V71.3538C33.5377 72.8431 34.7301 74.048 36.2038 74.048H83.7832C85.2569 74.048 86.4493 72.8431 86.4493 71.3538V37.4174C86.4493 35.9281 85.2569 34.7232 83.7832 34.7232H77.0668V61.6142C77.0668 63.0904 75.8744 64.2953 74.4137 64.2953H45.5603C44.0995 64.2953 42.9072 63.0904 42.9072 61.6142V34.7232H36.2038ZM83.7962 75.3565H36.2038C34.0241 75.3565 32.2429 73.5565 32.2429 71.3538V37.4174C32.2429 35.2147 34.0241 33.4147 36.2038 33.4147H43.5741C43.9336 33.4147 44.228 33.7122 44.228 34.0755V61.6274C44.228 62.3786 44.8299 63 45.5863 63H74.4397C75.1831 63 75.798 62.3918 75.798 61.6274V34.0755C75.798 33.7122 76.0924 33.4147 76.4519 33.4147H83.8222C86.0019 33.4147 87.7831 35.2147 87.7831 37.4174V71.3538C87.7571 73.5565 85.9759 75.3565 83.7962 75.3565Z" stroke="url(#paint51_linear_168_179)" stroke-width="2" mask="url(#path-3-inside-2_168_179)"/>
<path fill-rule="evenodd" clip-rule="evenodd" d="M87.1032 67.5977H32.8968C32.5373 67.5977 32.2429 67.3002 32.2429 66.9369C32.2429 66.5736 32.5373 66.2761 32.8968 66.2761H87.1032C87.4627 66.2761 87.7571 66.5736 87.7571 66.9369C87.7571 67.3002 87.4627 67.5977 87.1032 67.5977Z" stroke="url(#paint52_linear_168_179)" stroke-width="2" mask="url(#path-3-inside-2_168_179)"/>
<path fill-rule="evenodd" clip-rule="evenodd" d="M51.4178 84.3333C51.3023 84.3333 51.1999 84.307 51.0974 84.2429C50.7899 84.0621 50.6875 83.6593 50.8534 83.3487L55.9806 74.3718C56.1595 74.0611 56.558 73.9576 56.8655 74.1252C57.1729 74.3061 57.2754 74.7088 57.1095 75.0195L51.9823 83.9963C51.8538 84.2166 51.6358 84.3333 51.4178 84.3333Z" stroke="url(#paint53_linear_168_179)" stroke-width="2" mask="url(#path-3-inside-2_168_179)"/>
<path fill-rule="evenodd" clip-rule="evenodd" d="M68.5936 84.3333C68.3756 84.3333 68.1576 84.2166 68.0291 84.0095L62.9036 75.0326C62.7246 74.7219 62.8271 74.3209 63.1346 74.1384C63.442 73.9576 63.8389 74.0611 64.0195 74.385L69.1466 83.3618C69.3256 83.6725 69.2231 84.0736 68.9157 84.256C68.8116 84.307 68.6961 84.3333 68.5936 84.3333Z" stroke="url(#paint54_linear_168_179)" stroke-width="2" mask="url(#path-3-inside-2_168_179)"/>
<path fill-rule="evenodd" clip-rule="evenodd" d="M49.5081 87.0916H70.5033V85.7059C70.5033 84.9415 69.8884 84.3201 69.132 84.3201H50.8794C50.123 84.3201 49.5081 84.9415 49.5081 85.7059V87.0916ZM71.1458 88.4001H48.8542C48.4947 88.4001 48.2003 88.1025 48.2003 87.7393V85.7059C48.2003 84.2166 49.3926 83.0117 50.8664 83.0117H69.119C70.5927 83.0117 71.7851 84.2166 71.7851 85.7059V87.7393C71.7981 88.1157 71.5036 88.4001 71.1458 88.4001Z" stroke="url(#paint55_linear_168_179)" stroke-width="2" mask="url(#path-3-inside-2_168_179)"/>
<path fill-rule="evenodd" clip-rule="evenodd" d="M49.7261 59.5529H54.7378C54.4564 58.4252 53.43 57.5968 52.2263 57.5968C51.0339 57.5984 50.0205 58.4269 49.7261 59.5529ZM55.4682 60.8614H48.9957C48.6363 60.8614 48.3418 60.5638 48.3418 60.2006C48.3418 58.0373 50.0856 56.2751 52.2263 56.2751C54.3669 56.2751 56.1107 58.0373 56.1107 60.2006C56.1221 60.577 55.8277 60.8614 55.4682 60.8614Z" stroke="url(#paint56_linear_168_179)" stroke-width="2" mask="url(#path-3-inside-2_168_179)"/>
<path fill-rule="evenodd" clip-rule="evenodd" d="M52.2393 53.4264C51.4569 53.4264 50.816 54.0741 50.816 54.8648C50.816 55.6554 51.4569 56.3031 52.2393 56.3031C53.0217 56.3031 53.6626 55.6554 53.6626 54.8648C53.648 54.0609 53.0201 53.4264 52.2393 53.4264ZM52.2393 57.5984C50.7395 57.5984 49.5212 56.3672 49.5212 54.8516C49.5212 53.336 50.7395 52.1048 52.2393 52.1048C53.739 52.1048 54.9574 53.336 54.9574 54.8516C54.9428 56.3672 53.726 57.5984 52.2393 57.5984Z" stroke="url(#paint57_linear_168_179)" stroke-width="2" mask="url(#path-3-inside-2_168_179)"/>
</g>
<defs>
<linearGradient id="paint0_linear_168_179" x1="14.1115" y1="9.15663" x2="134.53" y2="23.398" gradientUnits="userSpaceOnUse">
<stop stop-color="#4190E5"/>
<stop offset="1" stop-color="#3636BF"/>
</linearGradient>
<linearGradient id="paint1_linear_168_179" x1="38.5428" y1="35.6122" x2="94.3192" y2="42.023" gradientUnits="userSpaceOnUse">
<stop stop-color="#4190E5"/>
<stop offset="1" stop-color="#3636BF"/>
</linearGradient>
<linearGradient id="paint2_linear_168_179" x1="38.5428" y1="35.6122" x2="94.3192" y2="42.023" gradientUnits="userSpaceOnUse">
<stop stop-color="#4190E5"/>
<stop offset="1" stop-color="#3636BF"/>
</linearGradient>
<linearGradient id="paint3_linear_168_179" x1="38.5428" y1="35.6122" x2="94.3192" y2="42.023" gradientUnits="userSpaceOnUse">
<stop stop-color="#4190E5"/>
<stop offset="1" stop-color="#3636BF"/>
</linearGradient>
<linearGradient id="paint4_linear_168_179" x1="38.5428" y1="35.6122" x2="94.3192" y2="42.023" gradientUnits="userSpaceOnUse">
<stop stop-color="#4190E5"/>
<stop offset="1" stop-color="#3636BF"/>
</linearGradient>
<linearGradient id="paint5_linear_168_179" x1="38.5428" y1="35.6122" x2="94.3192" y2="42.023" gradientUnits="userSpaceOnUse">
<stop stop-color="#4190E5"/>
<stop offset="1" stop-color="#3636BF"/>
</linearGradient>
<linearGradient id="paint6_linear_168_179" x1="38.5428" y1="35.6122" x2="94.3192" y2="42.023" gradientUnits="userSpaceOnUse">
<stop stop-color="#4190E5"/>
<stop offset="1" stop-color="#3636BF"/>
</linearGradient>
<linearGradient id="paint7_linear_168_179" x1="38.5428" y1="35.6122" x2="94.3192" y2="42.023" gradientUnits="userSpaceOnUse">
<stop stop-color="#4190E5"/>
<stop offset="1" stop-color="#3636BF"/>
</linearGradient>
<linearGradient id="paint8_linear_168_179" x1="38.5428" y1="35.6122" x2="94.3192" y2="42.023" gradientUnits="userSpaceOnUse">
<stop stop-color="#4190E5"/>
<stop offset="1" stop-color="#3636BF"/>
</linearGradient>
<linearGradient id="paint9_linear_168_179" x1="38.5428" y1="35.6122" x2="94.3192" y2="42.023" gradientUnits="userSpaceOnUse">
<stop stop-color="#4190E5"/>
<stop offset="1" stop-color="#3636BF"/>
</linearGradient>
<linearGradient id="paint10_linear_168_179" x1="38.5428" y1="35.6122" x2="94.3192" y2="42.023" gradientUnits="userSpaceOnUse">
<stop stop-color="#4190E5"/>
<stop offset="1" stop-color="#3636BF"/>
</linearGradient>
<linearGradient id="paint11_linear_168_179" x1="38.5428" y1="35.6122" x2="94.3192" y2="42.023" gradientUnits="userSpaceOnUse">
<stop stop-color="#4190E5"/>
<stop offset="1" stop-color="#3636BF"/>
</linearGradient>
<linearGradient id="paint12_linear_168_179" x1="38.5428" y1="35.6122" x2="94.3192" y2="42.023" gradientUnits="userSpaceOnUse">
<stop stop-color="#4190E5"/>
<stop offset="1" stop-color="#3636BF"/>
</linearGradient>
<linearGradient id="paint13_linear_168_179" x1="38.5428" y1="35.6122" x2="94.3192" y2="42.023" gradientUnits="userSpaceOnUse">
<stop stop-color="#4190E5"/>
<stop offset="1" stop-color="#3636BF"/>
</linearGradient>
<linearGradient id="paint14_linear_168_179" x1="38.5428" y1="35.6122" x2="94.3192" y2="42.023" gradientUnits="userSpaceOnUse">
<stop stop-color="#4190E5"/>
<stop offset="1" stop-color="#3636BF"/>
</linearGradient>
<linearGradient id="paint15_linear_168_179" x1="38.5428" y1="35.6122" x2="94.3192" y2="42.023" gradientUnits="userSpaceOnUse">
<stop stop-color="#4190E5"/>
<stop offset="1" stop-color="#3636BF"/>
</linearGradient>
<linearGradient id="paint16_linear_168_179" x1="38.5428" y1="35.6122" x2="94.3192" y2="42.023" gradientUnits="userSpaceOnUse">
<stop stop-color="#4190E5"/>
<stop offset="1" stop-color="#3636BF"/>
</linearGradient>
<linearGradient id="paint17_linear_168_179" x1="38.5428" y1="35.6122" x2="94.3192" y2="42.023" gradientUnits="userSpaceOnUse">
<stop stop-color="#4190E5"/>
<stop offset="1" stop-color="#3636BF"/>
</linearGradient>
<linearGradient id="paint18_linear_168_179" x1="38.5428" y1="35.6122" x2="94.3192" y2="42.023" gradientUnits="userSpaceOnUse">
<stop stop-color="#4190E5"/>
<stop offset="1" stop-color="#3636BF"/>
</linearGradient>
<linearGradient id="paint19_linear_168_179" x1="38.5428" y1="35.6122" x2="94.3192" y2="42.023" gradientUnits="userSpaceOnUse">
<stop stop-color="#4190E5"/>
<stop offset="1" stop-color="#3636BF"/>
</linearGradient>
<linearGradient id="paint20_linear_168_179" x1="38.5428" y1="35.6122" x2="94.3192" y2="42.023" gradientUnits="userSpaceOnUse">
<stop stop-color="#4190E5"/>
<stop offset="1" stop-color="#3636BF"/>
</linearGradient>
<linearGradient id="paint21_linear_168_179" x1="38.5428" y1="35.6122" x2="94.3192" y2="42.023" gradientUnits="userSpaceOnUse">
<stop stop-color="#4190E5"/>
<stop offset="1" stop-color="#3636BF"/>
</linearGradient>
<linearGradient id="paint22_linear_168_179" x1="38.5428" y1="35.6122" x2="94.3192" y2="42.023" gradientUnits="userSpaceOnUse">
<stop stop-color="#4190E5"/>
<stop offset="1" stop-color="#3636BF"/>
</linearGradient>
<linearGradient id="paint23_linear_168_179" x1="38.5428" y1="35.6122" x2="94.3192" y2="42.023" gradientUnits="userSpaceOnUse">
<stop stop-color="#4190E5"/>
<stop offset="1" stop-color="#3636BF"/>
</linearGradient>
<linearGradient id="paint24_linear_168_179" x1="38.5428" y1="35.6122" x2="94.3192" y2="42.023" gradientUnits="userSpaceOnUse">
<stop stop-color="#4190E5"/>
<stop offset="1" stop-color="#3636BF"/>
</linearGradient>
<linearGradient id="paint25_linear_168_179" x1="38.5428" y1="35.6122" x2="94.3192" y2="42.023" gradientUnits="userSpaceOnUse">
<stop stop-color="#4190E5"/>
<stop offset="1" stop-color="#3636BF"/>
</linearGradient>
<linearGradient id="paint26_linear_168_179" x1="38.5428" y1="35.6122" x2="94.3192" y2="42.023" gradientUnits="userSpaceOnUse">
<stop stop-color="#4190E5"/>
<stop offset="1" stop-color="#3636BF"/>
</linearGradient>
<linearGradient id="paint27_linear_168_179" x1="38.5428" y1="35.6122" x2="94.3192" y2="42.023" gradientUnits="userSpaceOnUse">
<stop stop-color="#4190E5"/>
<stop offset="1" stop-color="#3636BF"/>
</linearGradient>
<linearGradient id="paint28_linear_168_179" x1="38.5428" y1="35.6122" x2="94.3192" y2="42.023" gradientUnits="userSpaceOnUse">
<stop stop-color="#4190E5"/>
<stop offset="1" stop-color="#3636BF"/>
</linearGradient>
<linearGradient id="paint29_linear_168_179" x1="38.5428" y1="35.6122" x2="94.3192" y2="42.023" gradientUnits="userSpaceOnUse">
<stop stop-color="#4190E5"/>
<stop offset="1" stop-color="#3636BF"/>
</linearGradient>
<linearGradient id="paint30_linear_168_179" x1="38.5428" y1="35.6122" x2="94.3192" y2="42.023" gradientUnits="userSpaceOnUse">
<stop stop-color="#4190E5"/>
<stop offset="1" stop-color="#3636BF"/>
</linearGradient>
<linearGradient id="paint31_linear_168_179" x1="38.5428" y1="35.6122" x2="94.3192" y2="42.023" gradientUnits="userSpaceOnUse">
<stop stop-color="#4190E5"/>
<stop offset="1" stop-color="#3636BF"/>
</linearGradient>
<linearGradient id="paint32_linear_168_179" x1="38.5428" y1="35.6122" x2="94.3192" y2="42.023" gradientUnits="userSpaceOnUse">
<stop stop-color="#4190E5"/>
<stop offset="1" stop-color="#3636BF"/>
</linearGradient>
<linearGradient id="paint33_linear_168_179" x1="38.5428" y1="35.6122" x2="94.3192" y2="42.023" gradientUnits="userSpaceOnUse">
<stop stop-color="#4190E5"/>
<stop offset="1" stop-color="#3636BF"/>
</linearGradient>
<linearGradient id="paint34_linear_168_179" x1="38.5428" y1="35.6122" x2="94.3192" y2="42.023" gradientUnits="userSpaceOnUse">
<stop stop-color="#4190E5"/>
<stop offset="1" stop-color="#3636BF"/>
</linearGradient>
<linearGradient id="paint35_linear_168_179" x1="38.5428" y1="35.6122" x2="94.3192" y2="42.023" gradientUnits="userSpaceOnUse">
<stop stop-color="#4190E5"/>
<stop offset="1" stop-color="#3636BF"/>
</linearGradient>
<linearGradient id="paint36_linear_168_179" x1="38.5428" y1="35.6122" x2="94.3192" y2="42.023" gradientUnits="userSpaceOnUse">
<stop stop-color="#4190E5"/>
<stop offset="1" stop-color="#3636BF"/>
</linearGradient>
<linearGradient id="paint37_linear_168_179" x1="38.5428" y1="35.6122" x2="94.3192" y2="42.023" gradientUnits="userSpaceOnUse">
<stop stop-color="#4190E5"/>
<stop offset="1" stop-color="#3636BF"/>
</linearGradient>
<linearGradient id="paint38_linear_168_179" x1="38.5428" y1="35.6122" x2="94.3192" y2="42.023" gradientUnits="userSpaceOnUse">
<stop stop-color="#4190E5"/>
<stop offset="1" stop-color="#3636BF"/>
</linearGradient>
<linearGradient id="paint39_linear_168_179" x1="38.5428" y1="35.6122" x2="94.3192" y2="42.023" gradientUnits="userSpaceOnUse">
<stop stop-color="#4190E5"/>
<stop offset="1" stop-color="#3636BF"/>
</linearGradient>
<linearGradient id="paint40_linear_168_179" x1="38.5428" y1="35.6122" x2="94.3192" y2="42.023" gradientUnits="userSpaceOnUse">
<stop stop-color="#4190E5"/>
<stop offset="1" stop-color="#3636BF"/>
</linearGradient>
<linearGradient id="paint41_linear_168_179" x1="38.5428" y1="35.6122" x2="94.3192" y2="42.023" gradientUnits="userSpaceOnUse">
<stop stop-color="#4190E5"/>
<stop offset="1" stop-color="#3636BF"/>
</linearGradient>
<linearGradient id="paint42_linear_168_179" x1="38.5428" y1="35.6122" x2="94.3192" y2="42.023" gradientUnits="userSpaceOnUse">
<stop stop-color="#4190E5"/>
<stop offset="1" stop-color="#3636BF"/>
</linearGradient>
<linearGradient id="paint43_linear_168_179" x1="38.5428" y1="35.6122" x2="94.3192" y2="42.023" gradientUnits="userSpaceOnUse">
<stop stop-color="#4190E5"/>
<stop offset="1" stop-color="#3636BF"/>
</linearGradient>
<linearGradient id="paint44_linear_168_179" x1="38.5428" y1="35.6122" x2="94.3192" y2="42.023" gradientUnits="userSpaceOnUse">
<stop stop-color="#4190E5"/>
<stop offset="1" stop-color="#3636BF"/>
</linearGradient>
<linearGradient id="paint45_linear_168_179" x1="38.5428" y1="35.6122" x2="94.3192" y2="42.023" gradientUnits="userSpaceOnUse">
<stop stop-color="#4190E5"/>
<stop offset="1" stop-color="#3636BF"/>
</linearGradient>
<linearGradient id="paint46_linear_168_179" x1="38.5428" y1="35.6122" x2="94.3192" y2="42.023" gradientUnits="userSpaceOnUse">
<stop stop-color="#4190E5"/>
<stop offset="1" stop-color="#3636BF"/>
</linearGradient>
<linearGradient id="paint47_linear_168_179" x1="38.5428" y1="35.6122" x2="94.3192" y2="42.023" gradientUnits="userSpaceOnUse">
<stop stop-color="#4190E5"/>
<stop offset="1" stop-color="#3636BF"/>
</linearGradient>
<linearGradient id="paint48_linear_168_179" x1="38.5428" y1="35.6122" x2="94.3192" y2="42.023" gradientUnits="userSpaceOnUse">
<stop stop-color="#4190E5"/>
<stop offset="1" stop-color="#3636BF"/>
</linearGradient>
<linearGradient id="paint49_linear_168_179" x1="38.5428" y1="35.6122" x2="94.3192" y2="42.023" gradientUnits="userSpaceOnUse">
<stop stop-color="#4190E5"/>
<stop offset="1" stop-color="#3636BF"/>
</linearGradient>
<linearGradient id="paint50_linear_168_179" x1="38.5428" y1="35.6122" x2="94.3192" y2="42.023" gradientUnits="userSpaceOnUse">
<stop stop-color="#4190E5"/>
<stop offset="1" stop-color="#3636BF"/>
</linearGradient>
<linearGradient id="paint51_linear_168_179" x1="38.5428" y1="35.6122" x2="94.3192" y2="42.023" gradientUnits="userSpaceOnUse">
<stop stop-color="#4190E5"/>
<stop offset="1" stop-color="#3636BF"/>
</linearGradient>
<linearGradient id="paint52_linear_168_179" x1="38.5428" y1="35.6122" x2="94.3192" y2="42.023" gradientUnits="userSpaceOnUse">
<stop stop-color="#4190E5"/>
<stop offset="1" stop-color="#3636BF"/>
</linearGradient>
<linearGradient id="paint53_linear_168_179" x1="38.5428" y1="35.6122" x2="94.3192" y2="42.023" gradientUnits="userSpaceOnUse">
<stop stop-color="#4190E5"/>
<stop offset="1" stop-color="#3636BF"/>
</linearGradient>
<linearGradient id="paint54_linear_168_179" x1="38.5428" y1="35.6122" x2="94.3192" y2="42.023" gradientUnits="userSpaceOnUse">
<stop stop-color="#4190E5"/>
<stop offset="1" stop-color="#3636BF"/>
</linearGradient>
<linearGradient id="paint55_linear_168_179" x1="38.5428" y1="35.6122" x2="94.3192" y2="42.023" gradientUnits="userSpaceOnUse">
<stop stop-color="#4190E5"/>
<stop offset="1" stop-color="#3636BF"/>
</linearGradient>
<linearGradient id="paint56_linear_168_179" x1="38.5428" y1="35.6122" x2="94.3192" y2="42.023" gradientUnits="userSpaceOnUse">
<stop stop-color="#4190E5"/>
<stop offset="1" stop-color="#3636BF"/>
</linearGradient>
<linearGradient id="paint57_linear_168_179" x1="38.5428" y1="35.6122" x2="94.3192" y2="42.023" gradientUnits="userSpaceOnUse">
<stop stop-color="#4190E5"/>
<stop offset="1" stop-color="#3636BF"/>
</linearGradient>
<clipPath id="clip0_168_179">
<rect width="63" height="63.6647" fill="white" transform="translate(28.5 28)"/>
</clipPath>
</defs>
</svg>
