<svg width="121" height="120" viewBox="0 0 121 120" fill="none" xmlns="http://www.w3.org/2000/svg">
<circle cx="60.5" cy="60" r="59" stroke="url(#paint0_linear_168_184)" stroke-width="2"/>
<path d="M89.5 55H88.5V31C88.5 30.447 88.053 30 87.5 30H81.5C80.947 30 80.5 30.447 80.5 31V32H40.5V31C40.5 30.447 40.053 30 39.5 30H33.5C32.947 30 32.5 30.447 32.5 31V55H31.5C30.947 55 30.5 55.447 30.5 56V85C30.5 87.757 32.743 90 35.5 90H85.5C88.257 90 90.5 87.757 90.5 85V56C90.5 55.447 90.053 55 89.5 55ZM82.5 32H86.5V55H82.5V37V33V32ZM77.5 55V50.236L78.395 48.447C78.536 48.166 78.536 47.834 78.395 47.552L75.395 41.552C75.055 40.874 73.946 40.874 73.606 41.552L70.606 47.552C70.465 47.833 70.465 48.165 70.606 48.447L71.5 50.236V55H65.5V53.414L68.207 50.707C68.395 50.52 68.5 50.266 68.5 50V45C68.5 44.686 68.352 44.389 68.1 44.2L64.1 41.2C63.797 40.971 63.392 40.936 63.053 41.105C62.714 41.275 62.5 41.621 62.5 42V47H58.5V42C58.5 41.621 58.286 41.275 57.947 41.105C57.609 40.937 57.202 40.972 56.9 41.2L52.9 44.2C52.648 44.389 52.5 44.686 52.5 45V50C52.5 50.266 52.605 50.52 52.793 50.707L55.5 53.414V55H49.5V50.236L50.395 48.447C50.49 48.258 50.522 48.044 50.487 47.836L49.487 41.836C49.406 41.354 48.989 41 48.5 41H44.5C44.011 41 43.594 41.354 43.514 41.836L42.514 47.836C42.479 48.044 42.511 48.258 42.606 48.447L43.5 50.236V55H40.5V38H80.5V55H77.5ZM77.5 68C77.5 68.552 77.052 69 76.5 69C75.948 69 75.5 68.552 75.5 68C75.5 67.448 75.948 67 76.5 67C77.052 67 77.5 67.448 77.5 68ZM69.5 75C69.5 75.552 69.052 76 68.5 76C67.948 76 67.5 75.552 67.5 75C67.5 74.448 67.948 74 68.5 74C69.052 74 69.5 74.448 69.5 75ZM68.5 65.586L65.5 62.586V57H70.5V63.586L68.5 65.586ZM61.5 72C61.5 72.552 61.052 73 60.5 73C59.948 73 59.5 72.552 59.5 72C59.5 71.448 59.948 71 60.5 71C61.052 71 61.5 71.448 61.5 72ZM59.5 64.586L56.5 61.586V57H59.5V64.586ZM57.5 55V53C57.5 52.734 57.395 52.48 57.207 52.293L54.5 49.586V45.5L56.5 44V48C56.5 48.553 56.947 49 57.5 49H63.5C64.053 49 64.5 48.553 64.5 48V44L66.5 45.5V49.586L63.793 52.293C63.605 52.48 63.5 52.734 63.5 53V55H57.5ZM73.395 49.553L72.618 48L74.5 44.236L76.382 48L75.606 49.553C75.536 49.691 75.5 49.845 75.5 50V55H73.5V50C73.5 49.845 73.464 49.691 73.395 49.553ZM45.5 68C45.5 68.552 45.052 69 44.5 69C43.948 69 43.5 68.552 43.5 68C43.5 67.448 43.948 67 44.5 67C45.052 67 45.5 67.448 45.5 68ZM45.395 49.553L44.541 47.844L45.347 43H47.654L48.461 47.844L47.607 49.553C47.536 49.691 47.5 49.845 47.5 50V55H45.5V50C45.5 49.845 45.464 49.691 45.395 49.553ZM80.5 34V36H40.5V34H80.5ZM34.5 32H38.5V33V37V55H34.5V32ZM88.5 85C88.5 86.654 87.154 88 85.5 88H35.5C33.846 88 32.5 86.654 32.5 85V57H33.5H38.5V61.586L36.793 63.293C36.605 63.48 36.5 63.734 36.5 64V71.184C35.339 71.598 34.5 72.698 34.5 74C34.5 75.654 35.846 77 37.5 77C39.154 77 40.5 75.654 40.5 74C40.5 72.698 39.661 71.598 38.5 71.184V64.414L40.207 62.707C40.395 62.52 40.5 62.266 40.5 62V57H43.5V65.184C42.339 65.598 41.5 66.698 41.5 68C41.5 69.654 42.846 71 44.5 71C46.154 71 47.5 69.654 47.5 68C47.5 66.698 46.661 65.598 45.5 65.184V57H48.5V64C48.5 64.266 48.605 64.52 48.793 64.707L51.5 67.414V73.184C50.339 73.598 49.5 74.698 49.5 76C49.5 77.654 50.846 79 52.5 79C54.154 79 55.5 77.654 55.5 76C55.5 74.698 54.661 73.598 53.5 73.184V67C53.5 66.734 53.395 66.48 53.207 66.293L50.5 63.586V57H54.5V62C54.5 62.266 54.605 62.52 54.793 62.707L59.5 67.414V69.184C58.339 69.598 57.5 70.698 57.5 72C57.5 73.654 58.846 75 60.5 75C62.154 75 63.5 73.654 63.5 72C63.5 70.698 62.661 69.598 61.5 69.184V57H63.5V63C63.5 63.266 63.605 63.52 63.793 63.707L67.5 67.414V72.184C66.339 72.598 65.5 73.698 65.5 75C65.5 76.654 66.846 78 68.5 78C70.154 78 71.5 76.654 71.5 75C71.5 73.698 70.661 72.598 69.5 72.184V67.414L72.207 64.707C72.395 64.52 72.5 64.266 72.5 64V57H75.5V65.184C74.339 65.598 73.5 66.698 73.5 68C73.5 69.654 74.846 71 76.5 71C78.154 71 79.5 69.654 79.5 68C79.5 66.698 78.661 65.598 77.5 65.184V57H80.5V62C80.5 62.266 80.605 62.52 80.793 62.707L82.5 64.414V71.184C81.339 71.598 80.5 72.698 80.5 74C80.5 75.654 81.846 77 83.5 77C85.154 77 86.5 75.654 86.5 74C86.5 72.698 85.661 71.598 84.5 71.184V64C84.5 63.734 84.395 63.48 84.207 63.293L82.5 61.586V57H87.5H88.5V85ZM38.5 74C38.5 74.552 38.052 75 37.5 75C36.948 75 36.5 74.552 36.5 74C36.5 73.448 36.948 73 37.5 73C38.052 73 38.5 73.448 38.5 74ZM53.5 76C53.5 76.552 53.052 77 52.5 77C51.948 77 51.5 76.552 51.5 76C51.5 75.448 51.948 75 52.5 75C53.052 75 53.5 75.448 53.5 76ZM84.5 74C84.5 74.552 84.052 75 83.5 75C82.948 75 82.5 74.552 82.5 74C82.5 73.448 82.948 73 83.5 73C84.052 73 84.5 73.448 84.5 74Z" fill="url(#paint1_linear_168_184)"/>
<path d="M83.5 79H81.5V84H79.5V75H77.5V84H75.5V73H73.5V84H71.5V80H69.5V84H67.5V80H65.5V84H63.5V77H61.5V84H59.5V76H57.5V84H55.5V80H53.5V84H51.5V80H49.5V84H47.5V77H45.5V84H43.5V75H41.5V84H39.5V80H37.5V84H35.5V86H85.5V84H83.5V79Z" fill="url(#paint2_linear_168_184)"/>
<defs>
<linearGradient id="paint0_linear_168_184" x1="14.1115" y1="9.15663" x2="134.53" y2="23.398" gradientUnits="userSpaceOnUse">
<stop stop-color="#4190E5"/>
<stop offset="1" stop-color="#3636BF"/>
</linearGradient>
<linearGradient id="paint1_linear_168_184" x1="37.3057" y1="34.5783" x2="97.5148" y2="41.699" gradientUnits="userSpaceOnUse">
<stop stop-color="#4190E5"/>
<stop offset="1" stop-color="#3636BF"/>
</linearGradient>
<linearGradient id="paint2_linear_168_184" x1="41.1714" y1="73.992" x2="83.3256" y2="93.1665" gradientUnits="userSpaceOnUse">
<stop stop-color="#4190E5"/>
<stop offset="1" stop-color="#3636BF"/>
</linearGradient>
</defs>
</svg>
