<svg width="54" height="14" viewBox="0 0 54 14" fill="none" xmlns="http://www.w3.org/2000/svg">
<path d="M5.104 0.631999C5.048 0.897999 4.992 1.5 4.978 1.85C4.908 2.956 4.866 4.468 4.866 5.77C4.866 7.296 4.95 9.718 4.95 10.53C4.95 12.252 4.334 12.728 3.41 12.728C2.052 12.728 0.12 11.552 0.12 10.068C0.12 8.71 1.87 7.282 3.816 6.596C5.062 6.148 6.476 5.924 7.54 5.924C9.696 5.924 11.404 7.044 11.404 8.976C11.404 10.642 10.536 11.888 8.31 12.434C7.666 12.574 7.036 12.616 6.462 12.672L5.832 10.852C6.448 10.852 7.064 10.852 7.54 10.754C8.674 10.558 9.584 9.984 9.584 8.976C9.584 8.01 8.744 7.464 7.526 7.464C6.336 7.464 5.104 7.716 4.012 8.15C2.752 8.626 1.856 9.382 1.856 9.984C1.856 10.432 2.514 10.81 2.878 10.81C3.13 10.81 3.312 10.698 3.312 10.208C3.312 9.48 3.242 7.534 3.242 5.84C3.242 4.244 3.256 2.508 3.256 1.864C3.256 1.584 3.214 0.884 3.172 0.631999H5.104ZM9.094 2.158C10.158 2.676 11.782 3.586 12.538 4.118L11.684 5.546C11.012 4.986 9.192 3.936 8.324 3.516L9.094 2.158ZM0.498 2.928C1.324 3.026 1.926 3.026 2.43 3.026C3.886 3.026 6.07 2.76 7.512 2.34L7.554 4.076C5.972 4.44 3.718 4.692 2.486 4.692C1.562 4.692 1.016 4.678 0.54 4.622L0.498 2.928ZM21.246 10.264H25.082V11.832H21.246V10.264ZM20.49 1.318H25.866V12.658H24.158V2.9H22.114V12.854H20.49V1.318ZM16.122 2.634H17.816V5.336C17.816 7.716 17.312 11.174 14.498 13.218C14.288 12.868 13.644 12.196 13.308 11.958C15.87 10.11 16.122 7.366 16.122 5.308V2.634ZM14.974 1.892H19.776V3.446H14.974V1.892ZM13.518 5.658H20.126V7.254H13.518V5.658ZM17.396 7.632C17.97 8.136 19.818 10.25 20.252 10.768L19.118 12.182C18.46 11.146 17.088 9.41 16.374 8.584L17.396 7.632ZM14.82 0.113999L16.43 0.436C16.066 2.284 15.394 4.132 14.596 5.308C14.302 5.042 13.616 4.566 13.252 4.342C14.008 3.334 14.54 1.724 14.82 0.113999ZM31.662 0.729999C32.992 1.15 36.044 1.696 37.276 1.822L36.856 3.544C35.428 3.348 32.32 2.704 31.228 2.424L31.662 0.729999ZM31.76 3.544C31.564 4.328 31.326 6.022 31.228 6.834C32.488 5.91 33.888 5.49 35.358 5.49C37.808 5.49 39.236 7.002 39.236 8.696C39.236 11.258 37.206 13.218 31.396 12.714L30.85 10.88C35.064 11.468 37.276 10.446 37.276 8.654C37.276 7.744 36.422 7.086 35.19 7.086C33.608 7.086 32.194 7.674 31.312 8.738C31.06 9.032 30.906 9.256 30.794 9.536L29.17 9.144C29.45 7.772 29.786 5.028 29.87 3.292L31.76 3.544ZM51.4366 1.024C51.3946 1.248 51.3666 1.864 51.3526 2.228C51.3246 3.18 51.3246 3.978 51.2966 4.692C51.2686 5.938 51.2266 7.45 51.0866 8.164C50.9326 8.906 50.5686 9.088 49.8546 9.088C49.3646 9.088 48.2306 8.962 47.7546 8.878L47.7826 7.338C48.2166 7.436 48.8046 7.506 49.0846 7.506C49.3506 7.506 49.4766 7.464 49.5186 7.184C49.5886 6.652 49.6166 5.644 49.6446 4.678C49.6446 3.95 49.6446 3.138 49.6446 2.312C49.6446 1.948 49.5886 1.29 49.5466 1.024H51.4366ZM45.9206 1.444C45.8646 1.906 45.8366 2.298 45.8366 2.9C45.8366 4.174 45.7806 7.87 45.8086 9.018C45.8506 10.404 45.9626 10.712 48.0626 10.712C49.4346 10.712 51.2126 10.544 52.2486 10.348L52.1786 12.266C51.2406 12.364 49.5326 12.49 48.1886 12.49C44.5766 12.49 44.1286 11.72 44.0726 9.298C44.0446 8.094 44.0586 3.838 44.0586 2.998C44.0586 2.41 44.0166 1.934 43.9466 1.444H45.9206ZM41.2446 4.608C41.6366 4.608 42.2806 4.58 42.9946 4.496C44.4086 4.37 49.6726 3.852 52.3746 3.684C52.7526 3.656 53.2986 3.614 53.7186 3.586V5.294C53.4666 5.28 52.7246 5.308 52.3606 5.308C50.1766 5.378 44.7306 5.966 43.1066 6.148C42.6726 6.204 41.8046 6.33 41.4266 6.386L41.2446 4.608Z" fill="url(#paint0_linear_117_598)"/>
<defs>
<linearGradient id="paint0_linear_117_598" x1="5.35202" y1="-2.47389" x2="56.7023" y2="14.5304" gradientUnits="userSpaceOnUse">
<stop stop-color="#4190E5"/>
<stop offset="1" stop-color="#3636BF"/>
</linearGradient>
</defs>
</svg>
