<svg width="184" height="224" viewBox="0 0 184 224" fill="none" xmlns="http://www.w3.org/2000/svg">
<path d="M220.466 6.94326C217.198 8.93945 214.149 11.1031 211.368 13.8197C209.81 15.3959 208.419 16.7542 207.079 18.4979C202.89 23.947 198.402 36.0998 194.65 46.392C187.866 61.9817 186.827 61.5299 177.695 66.6466C163.084 74.8334 149.895 69.897 134.596 66.8054C133.557 66.3535 132.35 66.1196 131.529 65.8351C131.311 65.6677 129.451 64.9314 129.233 64.7639C128.412 64.4795 127.758 63.9771 126.719 63.5252C120.602 60.2104 115.357 57.5655 108.452 55.726C87.4712 49.6545 63.8607 51.964 43.2681 63.8747C2.41818 87.2602 -11.7324 139.489 11.6344 180.334C35.0013 221.179 87.2193 235.311 128.069 211.925C149.6 199.696 163.639 179.627 168.746 157.201C169.902 152.541 170.286 147.982 170.788 142.82C170.754 141.061 171.055 138.865 171.34 138.044C171.574 136.837 171.809 135.63 172.043 134.423C172.328 133.602 172.68 131.792 173.249 130.149C178.424 115.75 180.952 102.09 195.396 94.1212C205.248 88.518 221.938 90.2514 233.401 92.4737C238.059 93.6274 242.785 93.7923 247.46 93.5718C250.376 93.3857 253.627 92.7638 256.274 92.0249C259.86 90.967 263.396 89.5237 266.663 87.5275C288.914 74.8114 296.567 46.367 283.861 24.1183C270.988 2.08764 242.717 -5.77282 220.466 6.94326Z" fill="url(#paint0_linear_119_1451)"/>
<defs>
<linearGradient id="paint0_linear_119_1451" x1="276.321" y1="46.053" x2="20.4902" y2="169.074" gradientUnits="userSpaceOnUse">
<stop stop-color="#4190E5"/>
<stop offset="0.1843" stop-color="#408BE3"/>
<stop offset="0.4157" stop-color="#3E7BDC"/>
<stop offset="0.6722" stop-color="#3B62D1"/>
<stop offset="0.9453" stop-color="#373EC2"/>
<stop offset="1" stop-color="#3636BF"/>
</linearGradient>
</defs>
</svg>
