<svg width="489" height="516" viewBox="0 0 489 516" fill="none" xmlns="http://www.w3.org/2000/svg">
<path d="M510.384 14.6395C502.817 19.2631 495.754 24.2745 489.312 30.5664C485.703 34.2173 482.482 37.3632 479.378 41.4019C469.677 54.0229 459.28 82.1709 450.59 106.009C434.878 142.118 432.471 141.071 411.321 152.922C377.479 171.884 346.932 160.451 311.495 153.29C309.088 152.243 306.294 151.702 304.392 151.043C303.887 150.655 299.579 148.949 299.074 148.562C297.172 147.903 295.658 146.739 293.252 145.692C279.084 138.015 266.934 131.889 250.943 127.628C202.347 113.566 147.661 118.915 99.9657 146.502C5.35049 200.667 -27.4246 321.638 26.6968 416.242C80.8182 510.845 201.764 543.576 296.379 489.411C346.248 461.086 378.765 414.603 390.593 362.66C393.269 351.867 394.16 341.309 395.322 329.353C395.244 325.277 395.942 320.192 396.601 318.289C397.144 315.494 397.687 312.699 398.23 309.904C398.889 308.002 399.704 303.809 401.023 300.004C413.01 266.654 418.865 235.015 452.318 216.558C475.137 203.58 513.795 207.595 540.344 212.742C551.134 215.414 562.079 215.796 572.908 215.285C579.661 214.854 587.191 213.414 593.323 211.702C601.628 209.252 609.817 205.909 617.385 201.286C668.922 171.833 686.648 105.951 657.219 54.4198C627.402 3.39316 561.922 -14.813 510.384 14.6395Z" fill="url(#paint0_linear_13_832)"/>
<defs>
<linearGradient id="paint0_linear_13_832" x1="639.753" y1="105.224" x2="47.2081" y2="390.162" gradientUnits="userSpaceOnUse">
<stop stop-color="#4190E5"/>
<stop offset="0.1843" stop-color="#408BE3"/>
<stop offset="0.4157" stop-color="#3E7BDC"/>
<stop offset="0.6722" stop-color="#3B62D1"/>
<stop offset="0.9453" stop-color="#373EC2"/>
<stop offset="1" stop-color="#3636BF"/>
</linearGradient>
</defs>
</svg>
