<svg width="123" height="429" viewBox="0 0 123 429" fill="none" xmlns="http://www.w3.org/2000/svg">
<path d="M-60.496 13.9474C-95.97 32.1699 -119.189 64.898 -126.128 101.264C-133.067 137.629 -156.286 170.357 -191.76 188.58C-222.8 204.525 -257.176 206.182 -288.177 195.706C-291.703 193.518 -296.188 191.021 -300.348 189.158C-304.182 187.927 -307.708 185.739 -311.543 184.508C-342.219 174.665 -377.228 176.649 -408.268 192.593C-469.714 224.157 -493.761 298.912 -462.221 360.313C-430.68 421.714 -355.907 445.706 -294.461 414.142C-260.888 396.896 -238.593 367.043 -230.354 333.209C-229.737 331.292 -229.754 329.701 -228.812 328.417C-228.196 326.5 -228.212 324.909 -227.596 322.992C-219.356 289.158 -197.062 259.305 -163.488 242.059C-128.648 224.162 -88.5203 224.35 -55.243 239.257L-54.9347 238.298C-21.3322 253.838 18.7952 254.026 54.2692 235.804C115.715 204.24 139.763 129.485 108.222 68.084C76.6814 6.68338 0.95003 -17.6166 -60.496 13.9474Z" fill="url(#paint0_linear_119_1447)"/>
<defs>
<linearGradient id="paint0_linear_119_1447" x1="-353.377" y1="468.48" x2="-36.2196" y2="9.78318" gradientUnits="userSpaceOnUse">
<stop stop-color="#E0D32B"/>
<stop offset="0.619" stop-color="#EDFF2A"/>
</linearGradient>
</defs>
</svg>
